<svg width="941" height="248" viewBox="0 0 941 248" fill="none" xmlns="http://www.w3.org/2000/svg">
<path d="M0.775 9.30005H0V10.0459H0.775V9.30005Z" fill="#E1D7D5"/>
<path d="M178.25 165.921H69.75V173.379H178.25V165.921Z" fill="#807F7E"/>
<path d="M178.25 173.379H69.75V180.837H178.25V173.379Z" fill="#807F7E"/>
<path d="M178.25 180.837H69.75V188.295H178.25V180.837Z" fill="#807F7E"/>
<path d="M178.25 188.295H69.75V195.753H178.25V188.295Z" fill="#807F7E"/>
<path d="M85.25 195.753H69.75V203.212H85.25V195.753Z" fill="#807F7E"/>
<path d="M178.25 195.753H93V203.212H178.25V195.753Z" fill="#807F7E"/>
<path d="M85.25 203.211H69.75V210.67H85.25V203.211Z" fill="#807F7E"/>
<path d="M178.25 203.211H93V210.67H178.25V203.211Z" fill="#807F7E"/>
<path d="M85.25 210.67H69.75V218.128H85.25V210.67Z" fill="#807F7E"/>
<path d="M178.25 210.67H93V218.128H178.25V210.67Z" fill="#807F7E"/>
<path d="M85.25 218.128H69.75V225.586H85.25V218.128Z" fill="#807F7E"/>
<path d="M178.25 218.128H93V225.586H178.25V218.128Z" fill="#807F7E"/>
<path d="M85.25 225.586H69.75V233.044H85.25V225.586Z" fill="#807F7E"/>
<path d="M178.25 225.586H93V233.044H178.25V225.586Z" fill="#807F7E"/>
<path d="M85.25 233.044H69.75V240.502H85.25V233.044Z" fill="#807F7E"/>
<path d="M178.25 233.044H93V240.502H178.25V233.044Z" fill="#807F7E"/>
<path d="M85.25 240.502H69.75V247.96H85.25V240.502Z" fill="#807F7E"/>
<path d="M178.25 240.502H93V247.96H178.25V240.502Z" fill="#807F7E"/>
<path d="M116.25 180.837H108.5V188.295H116.25V180.837Z" fill="#C4DA53"/>
<path d="M131.75 180.837H124V188.295H131.75V180.837Z" fill="#C4DA53"/>
<path d="M116.25 195.753H100.75V203.212H116.25V195.753Z" fill="#C4DA53"/>
<path d="M139.5 195.753H124V203.212H139.5V195.753Z" fill="#C4DA53"/>
<path d="M116.25 210.67H100.75V218.128H116.25V210.67Z" fill="#C4DA53"/>
<path d="M139.5 210.67H124V218.128H139.5V210.67Z" fill="#C4DA53"/>
<path d="M116.25 225.586H100.75V233.044H116.25V225.586Z" fill="#C4DA53"/>
<path d="M131.75 225.586H124V233.044H131.75V225.586Z" fill="#C4DA53"/>
<path d="M116.25 233.044H108.5V240.502H116.25V233.044Z" fill="#C4DA53"/>
<path d="M108.5 31.6744H100.75V39.1325H108.5V31.6744Z" fill="#068940"/>
<path d="M131.75 31.6744H116.25V39.1325H131.75V31.6744Z" fill="#3F9323"/>
<path d="M147.25 31.6744H139.5V39.1325H147.25V31.6744Z" fill="#068940"/>
<path d="M93 39.1325H85.25V46.5907H93V39.1325Z" fill="#3F9323"/>
<path d="M116.25 39.1325H100.75V46.5907H116.25V39.1325Z" fill="#068940"/>
<path d="M131.75 39.1325H116.25V46.5907H131.75V39.1325Z" fill="#3F9323"/>
<path d="M147.25 39.1325H131.75V46.5907H147.25V39.1325Z" fill="#068940"/>
<path d="M162.75 39.1325H155V46.5907H162.75V39.1325Z" fill="#3F9323"/>
<path d="M108.5 46.5907H85.25V54.0487H108.5V46.5907Z" fill="#3F9323"/>
<path d="M116.25 46.5907H108.5V54.0487H116.25V46.5907Z" fill="#068940"/>
<path d="M131.75 46.5907H116.25V54.0487H131.75V46.5907Z" fill="#3F9323"/>
<path d="M139.5 46.5907H131.75V54.0487H139.5V46.5907Z" fill="#068940"/>
<path d="M162.75 46.5907H139.5V54.0487H162.75V46.5907Z" fill="#3F9323"/>
<path d="M147.25 54.0488H100.75V61.5069H147.25V54.0488Z" fill="#3F9323"/>
<path d="M100.75 61.5069H85.25V68.965H100.75V61.5069Z" fill="#FFEF16"/>
<path d="M116.25 61.5069H100.75V68.965H116.25V61.5069Z" fill="#FFC110"/>
<path d="M131.75 61.5069H116.25V68.965H131.75V61.5069Z" fill="#FFEF16"/>
<path d="M147.25 61.5069H131.75V68.965H147.25V61.5069Z" fill="#FFC110"/>
<path d="M162.75 61.5069H147.25V68.965H162.75V61.5069Z" fill="#FFEF16"/>
<path d="M85.25 68.9651H69.75V76.4232H85.25V68.9651Z" fill="#FFEF16"/>
<path d="M100.75 68.9651H85.25V76.4232H100.75V68.9651Z" fill="#FFC110"/>
<path d="M116.25 68.9651H100.75V76.4232H116.25V68.9651Z" fill="#FFEF16"/>
<path d="M131.75 68.9651H116.25V76.4232H131.75V68.9651Z" fill="#FFC110"/>
<path d="M147.25 68.9651H131.75V76.4232H147.25V68.9651Z" fill="#FFEF16"/>
<path d="M162.75 68.9651H147.25V76.4232H162.75V68.9651Z" fill="#FFC110"/>
<path d="M178.25 68.9651H162.75V76.4232H178.25V68.9651Z" fill="#FFEF16"/>
<path d="M85.25 76.4232H69.75V83.8814H85.25V76.4232Z" fill="#FFEF16"/>
<path d="M100.75 76.4232H85.25V83.8814H100.75V76.4232Z" fill="#FFC110"/>
<path d="M116.25 76.4232H100.75V83.8814H116.25V76.4232Z" fill="#FFEF16"/>
<path d="M131.75 76.4232H116.25V83.8814H131.75V76.4232Z" fill="#FFC110"/>
<path d="M147.25 76.4232H131.75V83.8814H147.25V76.4232Z" fill="#FFEF16"/>
<path d="M162.75 76.4232H147.25V83.8814H162.75V76.4232Z" fill="#FFC110"/>
<path d="M178.25 76.4232H162.75V83.8814H178.25V76.4232Z" fill="#FFEF16"/>
<path d="M69.75 83.8813H62V91.3395H69.75V83.8813Z" fill="#FFEF16"/>
<path d="M85.25 83.8813H69.75V91.3395H85.25V83.8813Z" fill="#FFC110"/>
<path d="M100.75 83.8813H85.25V91.3395H100.75V83.8813Z" fill="#FFEF16"/>
<path d="M116.25 83.8813H100.75V91.3395H116.25V83.8813Z" fill="#FFC110"/>
<path d="M131.75 83.8813H116.25V91.3395H131.75V83.8813Z" fill="#FFEF16"/>
<path d="M147.25 83.8813H131.75V91.3395H147.25V83.8813Z" fill="#FFC110"/>
<path d="M162.75 83.8813H147.25V91.3395H162.75V83.8813Z" fill="#FFEF16"/>
<path d="M178.25 83.8813H162.75V91.3395H178.25V83.8813Z" fill="#FFC110"/>
<path d="M186 83.8813H178.25V91.3395H186V83.8813Z" fill="#FFEF16"/>
<path d="M69.75 91.3395H62V98.7975H69.75V91.3395Z" fill="#FFEF16"/>
<path d="M85.25 91.3395H69.75V98.7975H85.25V91.3395Z" fill="#FFC110"/>
<path d="M100.75 91.3395H85.25V98.7975H100.75V91.3395Z" fill="#FFEF16"/>
<path d="M116.25 91.3395H100.75V98.7975H116.25V91.3395Z" fill="#FFC110"/>
<path d="M131.75 91.3395H116.25V98.7975H131.75V91.3395Z" fill="#FFEF16"/>
<path d="M147.25 91.3395H131.75V98.7975H147.25V91.3395Z" fill="#FFC110"/>
<path d="M162.75 91.3395H147.25V98.7975H162.75V91.3395Z" fill="#FFEF16"/>
<path d="M178.25 91.3395H162.75V98.7975H178.25V91.3395Z" fill="#FFC110"/>
<path d="M186 91.3395H178.25V98.7975H186V91.3395Z" fill="#FFEF16"/>
<path d="M69.75 98.7975H62V106.256H69.75V98.7975Z" fill="#FFC110"/>
<path d="M85.25 98.7975H69.75V106.256H85.25V98.7975Z" fill="#FFEF16"/>
<path d="M100.75 98.7975H85.25V106.256H100.75V98.7975Z" fill="#FFC110"/>
<path d="M116.25 98.7975H100.75V106.256H116.25V98.7975Z" fill="#FFEF16"/>
<path d="M131.75 98.7975H116.25V106.256H131.75V98.7975Z" fill="#FFC110"/>
<path d="M147.25 98.7975H131.75V106.256H147.25V98.7975Z" fill="#FFEF16"/>
<path d="M162.75 98.7975H147.25V106.256H162.75V98.7975Z" fill="#FFC110"/>
<path d="M178.25 98.7975H162.75V106.256H178.25V98.7975Z" fill="#FFEF16"/>
<path d="M186 98.7975H178.25V106.256H186V98.7975Z" fill="#FFC110"/>
<path d="M69.75 106.256H62V113.714H69.75V106.256Z" fill="#FFC110"/>
<path d="M85.25 106.256H69.75V113.714H85.25V106.256Z" fill="#FFEF16"/>
<path d="M100.75 106.256H85.25V113.714H100.75V106.256Z" fill="#FFC110"/>
<path d="M116.25 106.256H100.75V113.714H116.25V106.256Z" fill="#FFEF16"/>
<path d="M131.75 106.256H116.25V113.714H131.75V106.256Z" fill="#FFC110"/>
<path d="M147.25 106.256H131.75V113.714H147.25V106.256Z" fill="#FFEF16"/>
<path d="M162.75 106.256H147.25V113.714H162.75V106.256Z" fill="#FFC110"/>
<path d="M178.25 106.256H162.75V113.714H178.25V106.256Z" fill="#FFEF16"/>
<path d="M186 106.256H178.25V113.714H186V106.256Z" fill="#FFC110"/>
<path d="M193.75 113.714H62V121.172H193.75V113.714Z" fill="#FFC110"/>
<path d="M186 121.172H62V128.63H186V121.172Z" fill="#FFC110"/>
<path d="M186 128.63H62V136.088H186V128.63Z" fill="#FFC110"/>
<path d="M193.75 136.088H54.25V143.546H193.75V136.088Z" fill="#FFC110"/>
<path d="M77.5 143.546H62V151.005H77.5V143.546Z" fill="#FFC110"/>
<path d="M100.75 143.546H77.5V151.005H100.75V143.546Z" fill="#F78A18"/>
<path d="M108.5 143.546H100.75V151.005H108.5V143.546Z" fill="#FFC110"/>
<path d="M139.5 143.546H108.5V151.005H139.5V143.546Z" fill="#F78A18"/>
<path d="M147.25 143.546H139.5V151.005H147.25V143.546Z" fill="#FFC110"/>
<path d="M170.5 143.546H147.25V151.005H170.5V143.546Z" fill="#F78A18"/>
<path d="M186 143.546H170.5V151.005H186V143.546Z" fill="#FFC110"/>
<path d="M77.5 151.005H62V158.463H77.5V151.005Z" fill="#FFC110"/>
<path d="M100.75 151.005H77.5V158.463H100.75V151.005Z" fill="#F78A18"/>
<path d="M108.5 151.005H100.75V158.463H108.5V151.005Z" fill="#FFC110"/>
<path d="M139.5 151.005H108.5V158.463H139.5V151.005Z" fill="#F78A18"/>
<path d="M147.25 151.005H139.5V158.463H147.25V151.005Z" fill="#FFC110"/>
<path d="M170.5 151.005H147.25V158.463H170.5V151.005Z" fill="#F78A18"/>
<path d="M186 151.005H170.5V158.463H186V151.005Z" fill="#FFC110"/>
<path d="M178.25 158.463H69.75V165.921H178.25V158.463Z" fill="#FFC110"/>
<path d="M124 91.3395H77.5V98.7975H124V91.3395Z" fill="#FFEF16"/>
<path d="M178.25 91.3395H131.75V98.7975H178.25V91.3395Z" fill="#FFEF16"/>
<path d="M85.25 98.7975H77.5V106.256H85.25V98.7975Z" fill="#FFEF16"/>
<path d="M100.75 98.7975H85.25V106.256H100.75V98.7975Z" fill="white"/>
<path d="M116.25 98.7975H100.75V106.256H116.25V98.7975Z" fill="black"/>
<path d="M124 98.7975H116.25V106.256H124V98.7975Z" fill="#FFEF16"/>
<path d="M139.5 98.7975H131.75V106.256H139.5V98.7975Z" fill="#FFEF16"/>
<path d="M155 98.7975H139.5V106.256H155V98.7975Z" fill="white"/>
<path d="M170.5 98.7975H155V106.256H170.5V98.7975Z" fill="black"/>
<path d="M178.25 98.7975H170.5V106.256H178.25V98.7975Z" fill="#FFEF16"/>
<path d="M85.25 106.256H54.25V113.714H85.25V106.256Z" fill="#FFEF16"/>
<path d="M100.75 106.256H85.25V113.714H100.75V106.256Z" fill="white"/>
<path d="M116.25 106.256H100.75V113.714H116.25V106.256Z" fill="black"/>
<path d="M139.5 106.256H116.25V113.714H139.5V106.256Z" fill="#FFEF16"/>
<path d="M155 106.256H139.5V113.714H155V106.256Z" fill="white"/>
<path d="M170.5 106.256H155V113.714H170.5V106.256Z" fill="black"/>
<path d="M178.25 106.256H170.5V113.714H178.25V106.256Z" fill="#FFEF16"/>
<path d="M62 113.714H54.25V121.172H62V113.714Z" fill="#FFEF16"/>
<path d="M85.25 113.714H77.5V121.172H85.25V113.714Z" fill="#FFEF16"/>
<path d="M100.75 113.714H85.25V121.172H100.75V113.714Z" fill="white"/>
<path d="M116.25 113.714H100.75V121.172H116.25V113.714Z" fill="black"/>
<path d="M124 113.714H116.25V121.172H124V113.714Z" fill="#FFEF16"/>
<path d="M139.5 113.714H131.75V121.172H139.5V113.714Z" fill="#FFEF16"/>
<path d="M155 113.714H139.5V121.172H155V113.714Z" fill="white"/>
<path d="M170.5 113.714H155V121.172H170.5V113.714Z" fill="black"/>
<path d="M178.25 113.714H170.5V121.172H178.25V113.714Z" fill="#FFEF16"/>
<path d="M62 121.172H54.25V128.63H62V121.172Z" fill="#FFEF16"/>
<path d="M85.25 121.172H77.5V128.63H85.25V121.172Z" fill="#FFEF16"/>
<path d="M100.75 121.172H85.25V128.63H100.75V121.172Z" fill="white"/>
<path d="M116.25 121.172H100.75V128.63H116.25V121.172Z" fill="black"/>
<path d="M124 121.172H116.25V128.63H124V121.172Z" fill="#FFEF16"/>
<path d="M139.5 121.172H131.75V128.63H139.5V121.172Z" fill="#FFEF16"/>
<path d="M155 121.172H139.5V128.63H155V121.172Z" fill="white"/>
<path d="M170.5 121.172H155V128.63H170.5V121.172Z" fill="black"/>
<path d="M178.25 121.172H170.5V128.63H178.25V121.172Z" fill="#FFEF16"/>
<path d="M124 128.63H77.5V136.088H124V128.63Z" fill="#FFEF16"/>
<path d="M178.25 128.63H131.75V136.088H178.25V128.63Z" fill="#FFEF16"/>
<path d="M223.975 9.30005H223.2V10.0459H223.975V9.30005Z" fill="#E1D7D5"/>
<path d="M401.45 165.921H292.95V173.379H401.45V165.921Z" fill="#5A423F"/>
<path d="M401.45 173.379H292.95V180.837H401.45V173.379Z" fill="#5A423F"/>
<path d="M401.45 180.837H292.95V188.295H401.45V180.837Z" fill="#5A423F"/>
<path d="M401.45 188.295H292.95V195.753H401.45V188.295Z" fill="#5A423F"/>
<path d="M308.45 195.753H292.95V203.212H308.45V195.753Z" fill="#5A423F"/>
<path d="M401.45 195.753H316.2V203.212H401.45V195.753Z" fill="#5A423F"/>
<path d="M308.45 203.211H292.95V210.67H308.45V203.211Z" fill="#5A423F"/>
<path d="M401.45 203.211H316.2V210.67H401.45V203.211Z" fill="#5A423F"/>
<path d="M308.45 210.67H292.95V218.128H308.45V210.67Z" fill="#5A423F"/>
<path d="M401.45 210.67H316.2V218.128H401.45V210.67Z" fill="#5A423F"/>
<path d="M308.45 218.128H292.95V225.586H308.45V218.128Z" fill="#5A423F"/>
<path d="M401.45 218.128H316.2V225.586H401.45V218.128Z" fill="#5A423F"/>
<path d="M308.45 225.586H292.95V233.044H308.45V225.586Z" fill="#5A423F"/>
<path d="M401.45 225.586H316.2V233.044H401.45V225.586Z" fill="#5A423F"/>
<path d="M308.45 233.044H292.95V240.502H308.45V233.044Z" fill="#5A423F"/>
<path d="M401.45 233.044H316.2V240.502H401.45V233.044Z" fill="#5A423F"/>
<path d="M308.45 240.502H292.95V247.96H308.45V240.502Z" fill="#5A423F"/>
<path d="M401.45 240.502H316.2V247.96H401.45V240.502Z" fill="#5A423F"/>
<path d="M347.2 188.295H331.7V195.753H347.2V188.295Z" fill="#D8DADF"/>
<path d="M370.45 188.295H354.95V195.753H370.45V188.295Z" fill="#D8DADF"/>
<path d="M378.2 195.753H323.95V203.212H378.2V195.753Z" fill="#D8DADF"/>
<path d="M378.2 203.211H323.95V210.67H378.2V203.211Z" fill="#D8DADF"/>
<path d="M370.45 210.67H331.7V218.128H370.45V210.67Z" fill="#D8DADF"/>
<path d="M362.7 218.128H339.45V225.586H362.7V218.128Z" fill="#D8DADF"/>
<path d="M354.95 225.586H347.2V233.044H354.95V225.586Z" fill="#D8DADF"/>
<path d="M300.7 46.5907H277.45V54.0487H300.7V46.5907Z" fill="#757576"/>
<path d="M277.45 54.0488H269.7V61.5069H277.45V54.0488Z" fill="#757576"/>
<path d="M308.45 54.0488H300.7V61.5069H308.45V54.0488Z" fill="#757576"/>
<path d="M277.45 61.5069H269.7V68.965H277.45V61.5069Z" fill="#757576"/>
<path d="M308.45 61.5069H300.7V68.965H308.45V61.5069Z" fill="#757576"/>
<path d="M316.2 68.9651H254.2V76.4232H316.2V68.9651Z" fill="#757576"/>
<path d="M339.45 68.9651H331.7V76.4232H339.45V68.9651Z" fill="#343235"/>
<path d="M362.7 68.9651H354.95V76.4232H362.7V68.9651Z" fill="#343235"/>
<path d="M385.95 68.9651H378.2V76.4232H385.95V68.9651Z" fill="#343235"/>
<path d="M409.2 68.9651H401.45V76.4232H409.2V68.9651Z" fill="#343235"/>
<path d="M316.2 76.4232H254.2V83.8814H316.2V76.4232Z" fill="#757576"/>
<path d="M323.95 76.4232H316.2V83.8814H323.95V76.4232Z" fill="#343235"/>
<path d="M347.2 76.4232H331.7V83.8814H347.2V76.4232Z" fill="#343235"/>
<path d="M370.45 76.4232H354.95V83.8814H370.45V76.4232Z" fill="#343235"/>
<path d="M393.7 76.4232H378.2V83.8814H393.7V76.4232Z" fill="#343235"/>
<path d="M416.95 76.4232H401.45V83.8814H416.95V76.4232Z" fill="#343235"/>
<path d="M316.2 83.8813H254.2V91.3395H316.2V83.8813Z" fill="#757576"/>
<path d="M331.7 83.8813H316.2V91.3395H331.7V83.8813Z" fill="#343235"/>
<path d="M347.2 83.8813H331.7V91.3395H347.2V83.8813Z" fill="#757576"/>
<path d="M354.95 83.8813H347.2V91.3395H354.95V83.8813Z" fill="#343235"/>
<path d="M370.45 83.8813H354.95V91.3395H370.45V83.8813Z" fill="#757576"/>
<path d="M378.2 83.8813H370.45V91.3395H378.2V83.8813Z" fill="#343235"/>
<path d="M393.7 83.8813H378.2V91.3395H393.7V83.8813Z" fill="#757576"/>
<path d="M401.45 83.8813H393.7V91.3395H401.45V83.8813Z" fill="#343235"/>
<path d="M416.95 83.8813H401.45V91.3395H416.95V83.8813Z" fill="#757576"/>
<path d="M432.45 83.8813H416.95V91.3395H432.45V83.8813Z" fill="#343235"/>
<path d="M269.7 91.3395H261.95V98.7975H269.7V91.3395Z" fill="#343235"/>
<path d="M316.2 91.3395H269.7V98.7975H316.2V91.3395Z" fill="#757576"/>
<path d="M424.7 91.3395H316.2V98.7975H424.7V91.3395Z" fill="#343235"/>
<path d="M432.45 91.3395H424.7V98.7975H432.45V91.3395Z" fill="#757576"/>
<path d="M447.95 91.3395H432.45V98.7975H447.95V91.3395Z" fill="#343235"/>
<path d="M316.2 98.7975H254.2V106.256H316.2V98.7975Z" fill="#757576"/>
<path d="M424.7 98.7975H316.2V106.256H424.7V98.7975Z" fill="#343235"/>
<path d="M432.45 98.7975H424.7V106.256H432.45V98.7975Z" fill="#757576"/>
<path d="M440.2 98.7975H432.45V106.256H440.2V98.7975Z" fill="#343235"/>
<path d="M269.7 106.256H261.95V113.714H269.7V106.256Z" fill="#343235"/>
<path d="M316.2 106.256H269.7V113.714H316.2V106.256Z" fill="#757576"/>
<path d="M432.45 106.256H316.2V113.714H432.45V106.256Z" fill="#343235"/>
<path d="M316.2 113.714H254.2V121.172H316.2V113.714Z" fill="#757576"/>
<path d="M424.7 113.714H316.2V121.172H424.7V113.714Z" fill="#343235"/>
<path d="M432.45 113.714H424.7V121.172H432.45V113.714Z" fill="#757576"/>
<path d="M447.95 113.714H432.45V121.172H447.95V113.714Z" fill="#343235"/>
<path d="M269.7 121.172H261.95V128.63H269.7V121.172Z" fill="#343235"/>
<path d="M316.2 121.172H269.7V128.63H316.2V121.172Z" fill="#757576"/>
<path d="M424.7 121.172H316.2V128.63H424.7V121.172Z" fill="#343235"/>
<path d="M432.45 121.172H424.7V128.63H432.45V121.172Z" fill="#757576"/>
<path d="M440.2 121.172H432.45V128.63H440.2V121.172Z" fill="#343235"/>
<path d="M316.2 128.63H254.2V136.088H316.2V128.63Z" fill="#757576"/>
<path d="M432.45 128.63H316.2V136.088H432.45V128.63Z" fill="#343235"/>
<path d="M316.2 136.088H254.2V143.546H316.2V136.088Z" fill="#757576"/>
<path d="M424.7 136.088H316.2V143.546H424.7V136.088Z" fill="#343235"/>
<path d="M432.45 136.088H424.7V143.546H432.45V136.088Z" fill="#757576"/>
<path d="M447.95 136.088H432.45V143.546H447.95V136.088Z" fill="#343235"/>
<path d="M277.45 143.546H254.2V151.005H277.45V143.546Z" fill="#757576"/>
<path d="M285.2 143.546H277.45V151.005H285.2V143.546Z" fill="white"/>
<path d="M292.95 143.546H285.2V151.005H292.95V143.546Z" fill="#343235"/>
<path d="M300.7 143.546H292.95V151.005H300.7V143.546Z" fill="white"/>
<path d="M308.45 143.546H300.7V151.005H308.45V143.546Z" fill="#343235"/>
<path d="M316.2 143.546H308.45V151.005H316.2V143.546Z" fill="#757576"/>
<path d="M424.7 143.546H316.2V151.005H424.7V143.546Z" fill="#343235"/>
<path d="M432.45 143.546H424.7V151.005H432.45V143.546Z" fill="#757576"/>
<path d="M440.2 143.546H432.45V151.005H440.2V143.546Z" fill="#343235"/>
<path d="M277.45 151.005H261.95V158.463H277.45V151.005Z" fill="#757576"/>
<path d="M285.2 151.005H277.45V158.463H285.2V151.005Z" fill="#343235"/>
<path d="M292.95 151.005H285.2V158.463H292.95V151.005Z" fill="white"/>
<path d="M300.7 151.005H292.95V158.463H300.7V151.005Z" fill="#343235"/>
<path d="M308.45 151.005H300.7V158.463H308.45V151.005Z" fill="white"/>
<path d="M316.2 151.005H308.45V158.463H316.2V151.005Z" fill="#757576"/>
<path d="M432.45 151.005H316.2V158.463H432.45V151.005Z" fill="#343235"/>
<path d="M331.7 158.463H269.7V165.921H331.7V158.463Z" fill="#757576"/>
<path d="M339.45 158.463H331.7V165.921H339.45V158.463Z" fill="#343235"/>
<path d="M354.95 158.463H339.45V165.921H354.95V158.463Z" fill="#757576"/>
<path d="M362.7 158.463H354.95V165.921H362.7V158.463Z" fill="#343235"/>
<path d="M378.2 158.463H362.7V165.921H378.2V158.463Z" fill="#757576"/>
<path d="M385.95 158.463H378.2V165.921H385.95V158.463Z" fill="#343235"/>
<path d="M401.45 158.463H385.95V165.921H401.45V158.463Z" fill="#757576"/>
<path d="M409.2 158.463H401.45V165.921H409.2V158.463Z" fill="#343235"/>
<path d="M424.7 158.463H409.2V165.921H424.7V158.463Z" fill="#757576"/>
<path d="M432.45 158.463H424.7V165.921H432.45V158.463Z" fill="#343235"/>
<path d="M316.2 165.921H277.45V173.379H316.2V165.921Z" fill="#757576"/>
<path d="M331.7 165.921H316.2V173.379H331.7V165.921Z" fill="#343235"/>
<path d="M354.95 165.921H339.45V173.379H354.95V165.921Z" fill="#343235"/>
<path d="M378.2 165.921H362.7V173.379H378.2V165.921Z" fill="#343235"/>
<path d="M401.45 165.921H385.95V173.379H401.45V165.921Z" fill="#343235"/>
<path d="M424.7 165.921H409.2V173.379H424.7V165.921Z" fill="#343235"/>
<path d="M316.2 173.379H285.2V180.837H316.2V173.379Z" fill="#757576"/>
<path d="M331.7 173.379H323.95V180.837H331.7V173.379Z" fill="#343235"/>
<path d="M354.95 173.379H347.2V180.837H354.95V173.379Z" fill="#343235"/>
<path d="M378.2 173.379H370.45V180.837H378.2V173.379Z" fill="#343235"/>
<path d="M401.45 173.379H393.7V180.837H401.45V173.379Z" fill="#343235"/>
<path d="M424.7 173.379H416.95V180.837H424.7V173.379Z" fill="#343235"/>
<path d="M347.2 91.3395H300.7V98.7975H347.2V91.3395Z" fill="#FFC110"/>
<path d="M401.45 91.3395H354.95V98.7975H401.45V91.3395Z" fill="#F98F30"/>
<path d="M308.45 98.7975H300.7V106.256H308.45V98.7975Z" fill="#FFC110"/>
<path d="M323.95 98.7975H308.45V106.256H323.95V98.7975Z" fill="white"/>
<path d="M339.45 98.7975H323.95V106.256H339.45V98.7975Z" fill="black"/>
<path d="M347.2 98.7975H339.45V106.256H347.2V98.7975Z" fill="#FFC110"/>
<path d="M362.7 98.7975H354.95V106.256H362.7V98.7975Z" fill="#F98F30"/>
<path d="M378.2 98.7975H362.7V106.256H378.2V98.7975Z" fill="white"/>
<path d="M393.7 98.7975H378.2V106.256H393.7V98.7975Z" fill="black"/>
<path d="M401.45 98.7975H393.7V106.256H401.45V98.7975Z" fill="#F98F30"/>
<path d="M300.7 106.256H277.45V113.714H300.7V106.256Z" fill="#F78A18"/>
<path d="M308.45 106.256H300.7V113.714H308.45V106.256Z" fill="#FFC110"/>
<path d="M323.95 106.256H308.45V113.714H323.95V106.256Z" fill="white"/>
<path d="M339.45 106.256H323.95V113.714H339.45V106.256Z" fill="black"/>
<path d="M347.2 106.256H339.45V113.714H347.2V106.256Z" fill="#FFC110"/>
<path d="M354.95 106.256H347.2V113.714H354.95V106.256Z" fill="#F78A18"/>
<path d="M362.7 106.256H354.95V113.714H362.7V106.256Z" fill="#F98F30"/>
<path d="M378.2 106.256H362.7V113.714H378.2V106.256Z" fill="white"/>
<path d="M393.7 106.256H378.2V113.714H393.7V106.256Z" fill="black"/>
<path d="M401.45 106.256H393.7V113.714H401.45V106.256Z" fill="#F98F30"/>
<path d="M285.2 113.714H277.45V121.172H285.2V113.714Z" fill="#FFC110"/>
<path d="M308.45 113.714H300.7V121.172H308.45V113.714Z" fill="#FFC110"/>
<path d="M323.95 113.714H308.45V121.172H323.95V113.714Z" fill="white"/>
<path d="M339.45 113.714H323.95V121.172H339.45V113.714Z" fill="black"/>
<path d="M347.2 113.714H339.45V121.172H347.2V113.714Z" fill="#FFC110"/>
<path d="M362.7 113.714H354.95V121.172H362.7V113.714Z" fill="#F98F30"/>
<path d="M378.2 113.714H362.7V121.172H378.2V113.714Z" fill="white"/>
<path d="M393.7 113.714H378.2V121.172H393.7V113.714Z" fill="black"/>
<path d="M401.45 113.714H393.7V121.172H401.45V113.714Z" fill="#F98F30"/>
<path d="M285.2 121.172H277.45V128.63H285.2V121.172Z" fill="#FFC110"/>
<path d="M308.45 121.172H300.7V128.63H308.45V121.172Z" fill="#FFC110"/>
<path d="M323.95 121.172H308.45V128.63H323.95V121.172Z" fill="white"/>
<path d="M339.45 121.172H323.95V128.63H339.45V121.172Z" fill="black"/>
<path d="M347.2 121.172H339.45V128.63H347.2V121.172Z" fill="#FFC110"/>
<path d="M362.7 121.172H354.95V128.63H362.7V121.172Z" fill="#F98F30"/>
<path d="M378.2 121.172H362.7V128.63H378.2V121.172Z" fill="white"/>
<path d="M393.7 121.172H378.2V128.63H393.7V121.172Z" fill="black"/>
<path d="M401.45 121.172H393.7V128.63H401.45V121.172Z" fill="#F98F30"/>
<path d="M347.2 128.63H300.7V136.088H347.2V128.63Z" fill="#FFC110"/>
<path d="M401.45 128.63H354.95V136.088H401.45V128.63Z" fill="#F98F30"/>
<g clip-path="url(#clip0)">
<path d="M473.525 0H472.75V0.775H473.525V0Z" fill="#D5D7E1"/>
<path d="M651 162.75H542.5V170.5H651V162.75Z" fill="#B87B11"/>
<path d="M651 170.5H542.5V178.25H651V170.5Z" fill="#B87B11"/>
<path d="M651 178.25H542.5V186H651V178.25Z" fill="#B87B11"/>
<path d="M651 186H542.5V193.75H651V186Z" fill="#B87B11"/>
<path d="M558 193.75H542.5V201.5H558V193.75Z" fill="#B87B11"/>
<path d="M651 193.75H565.75V201.5H651V193.75Z" fill="#B87B11"/>
<path d="M558 201.5H542.5V209.25H558V201.5Z" fill="#B87B11"/>
<path d="M651 201.5H565.75V209.25H651V201.5Z" fill="#B87B11"/>
<path d="M558 209.25H542.5V217H558V209.25Z" fill="#B87B11"/>
<path d="M651 209.25H565.75V217H651V209.25Z" fill="#B87B11"/>
<path d="M558 217H542.5V224.75H558V217Z" fill="#B87B11"/>
<path d="M651 217H565.75V224.75H651V217Z" fill="#B87B11"/>
<path d="M558 224.75H542.5V232.5H558V224.75Z" fill="#B87B11"/>
<path d="M651 224.75H565.75V232.5H651V224.75Z" fill="#B87B11"/>
<path d="M558 232.5H542.5V240.25H558V232.5Z" fill="#B87B11"/>
<path d="M651 232.5H565.75V240.25H651V232.5Z" fill="#B87B11"/>
<path d="M558 240.25H542.5V248H558V240.25Z" fill="#B87B11"/>
<path d="M651 240.25H565.75V248H651V240.25Z" fill="#B87B11"/>
<path d="M589 178.25H581.25V186H589V178.25Z" fill="#4B65F7"/>
<path d="M612.25 178.25H604.5V186H612.25V178.25Z" fill="#4B65F7"/>
<path d="M589 186H573.5V193.75H589V186Z" fill="#4B65F7"/>
<path d="M604.5 186H596.75V193.75H604.5V186Z" fill="#4B65F7"/>
<path d="M620 186H612.25V193.75H620V186Z" fill="#4B65F7"/>
<path d="M589 193.75H573.5V201.5H589V193.75Z" fill="#4B65F7"/>
<path d="M612.25 193.75H604.5V201.5H612.25V193.75Z" fill="#4B65F7"/>
<path d="M589 209.25H573.5V217H589V209.25Z" fill="#4B65F7"/>
<path d="M604.5 209.25H596.75V217H604.5V209.25Z" fill="#4B65F7"/>
<path d="M589 217H573.5V224.75H589V217Z" fill="#4B65F7"/>
<path d="M612.25 217H596.75V224.75H612.25V217Z" fill="#4B65F7"/>
<path d="M581.25 224.75H573.5V232.5H581.25V224.75Z" fill="#4B65F7"/>
<path d="M620 224.75H596.75V232.5H620V224.75Z" fill="#4B65F7"/>
<path d="M604.5 46.5H534.75V54.25H604.5V46.5Z" fill="#F3322C"/>
<path d="M658.75 46.5H604.5V54.25H658.75V46.5Z" fill="#34AC80"/>
<path d="M612.25 54.25H519.25V62H612.25V54.25Z" fill="#F3322C"/>
<path d="M674.25 54.25H612.25V62H674.25V54.25Z" fill="#34AC80"/>
<path d="M558 62H511.5V69.75H558V62Z" fill="#F3322C"/>
<path d="M565.75 62H558V69.75H565.75V62Z" fill="white"/>
<path d="M620 62H565.75V69.75H620V62Z" fill="#F3322C"/>
<path d="M682 62H620V69.75H682V62Z" fill="#34AC80"/>
<path d="M527 69.75H503.75V77.5H527V69.75Z" fill="#F3322C"/>
<path d="M542.5 69.75H527V77.5H542.5V69.75Z" fill="white"/>
<path d="M620 69.75H542.5V77.5H620V69.75Z" fill="#F3322C"/>
<path d="M689.75 69.75H620V77.5H689.75V69.75Z" fill="#34AC80"/>
<path d="M527 77.5H503.75V85.25H527V77.5Z" fill="#F3322C"/>
<path d="M542.5 77.5H527V85.25H542.5V77.5Z" fill="white"/>
<path d="M627.75 77.5H542.5V85.25H627.75V77.5Z" fill="#F3322C"/>
<path d="M689.75 77.5H627.75V85.25H689.75V77.5Z" fill="#34AC80"/>
<path d="M627.75 85.25H496V93H627.75V85.25Z" fill="#F3322C"/>
<path d="M697.5 85.25H627.75V93H697.5V85.25Z" fill="#34AC80"/>
<path d="M627.75 93H496V100.75H627.75V93Z" fill="#F3322C"/>
<path d="M697.5 93H627.75V100.75H697.5V93Z" fill="#34AC80"/>
<path d="M627.75 100.75H496V108.5H627.75V100.75Z" fill="#F3322C"/>
<path d="M697.5 100.75H627.75V108.5H697.5V100.75Z" fill="#34AC80"/>
<path d="M627.75 108.5H496V116.25H627.75V108.5Z" fill="#F3322C"/>
<path d="M697.5 108.5H627.75V116.25H697.5V108.5Z" fill="#34AC80"/>
<path d="M627.75 116.25H496V124H627.75V116.25Z" fill="#F3322C"/>
<path d="M697.5 116.25H627.75V124H697.5V116.25Z" fill="#34AC80"/>
<path d="M627.75 124H503.75V131.75H627.75V124Z" fill="#F3322C"/>
<path d="M674.25 124H627.75V131.75H674.25V124Z" fill="#34AC80"/>
<path d="M682 124H674.25V131.75H682V124Z" fill="#068940"/>
<path d="M689.75 124H682V131.75H689.75V124Z" fill="#34AC80"/>
<path d="M620 131.75H503.75V139.5H620V131.75Z" fill="#F3322C"/>
<path d="M674.25 131.75H620V139.5H674.25V131.75Z" fill="#34AC80"/>
<path d="M682 131.75H674.25V139.5H682V131.75Z" fill="#068940"/>
<path d="M689.75 131.75H682V139.5H689.75V131.75Z" fill="#34AC80"/>
<path d="M589 139.5H511.5V147.25H589V139.5Z" fill="#F3322C"/>
<path d="M612.25 139.5H589V147.25H612.25V139.5Z" fill="black"/>
<path d="M620 139.5H612.25V147.25H620V139.5Z" fill="#F3322C"/>
<path d="M666.5 139.5H620V147.25H666.5V139.5Z" fill="#34AC80"/>
<path d="M674.25 139.5H666.5V147.25H674.25V139.5Z" fill="#068940"/>
<path d="M682 139.5H674.25V147.25H682V139.5Z" fill="#34AC80"/>
<path d="M612.25 147.25H519.25V155H612.25V147.25Z" fill="#F3322C"/>
<path d="M674.25 147.25H612.25V155H674.25V147.25Z" fill="#34AC80"/>
<path d="M604.5 155H534.75V162.75H604.5V155Z" fill="#F3322C"/>
<path d="M658.75 155H604.5V162.75H658.75V155Z" fill="#34AC80"/>
<path d="M596.75 85.25H550.25V93H596.75V85.25Z" fill="#B9185C"/>
<path d="M651 85.25H604.5V93H651V85.25Z" fill="#B9185C"/>
<path d="M558 93H550.25V100.75H558V93Z" fill="#B9185C"/>
<path d="M573.5 93H558V100.75H573.5V93Z" fill="white"/>
<path d="M589 93H573.5V100.75H589V93Z" fill="black"/>
<path d="M596.75 93H589V100.75H596.75V93Z" fill="#B9185C"/>
<path d="M612.25 93H604.5V100.75H612.25V93Z" fill="#B9185C"/>
<path d="M627.75 93H612.25V100.75H627.75V93Z" fill="white"/>
<path d="M643.25 93H627.75V100.75H643.25V93Z" fill="black"/>
<path d="M651 93H643.25V100.75H651V93Z" fill="#B9185C"/>
<path d="M558 100.75H527V108.5H558V100.75Z" fill="#B9185C"/>
<path d="M573.5 100.75H558V108.5H573.5V100.75Z" fill="white"/>
<path d="M589 100.75H573.5V108.5H589V100.75Z" fill="black"/>
<path d="M612.25 100.75H589V108.5H612.25V100.75Z" fill="#B9185C"/>
<path d="M627.75 100.75H612.25V108.5H627.75V100.75Z" fill="white"/>
<path d="M643.25 100.75H627.75V108.5H643.25V100.75Z" fill="black"/>
<path d="M651 100.75H643.25V108.5H651V100.75Z" fill="#B9185C"/>
<path d="M534.75 108.5H527V116.25H534.75V108.5Z" fill="#B9185C"/>
<path d="M558 108.5H550.25V116.25H558V108.5Z" fill="#B9185C"/>
<path d="M573.5 108.5H558V116.25H573.5V108.5Z" fill="white"/>
<path d="M589 108.5H573.5V116.25H589V108.5Z" fill="black"/>
<path d="M596.75 108.5H589V116.25H596.75V108.5Z" fill="#B9185C"/>
<path d="M612.25 108.5H604.5V116.25H612.25V108.5Z" fill="#B9185C"/>
<path d="M627.75 108.5H612.25V116.25H627.75V108.5Z" fill="white"/>
<path d="M643.25 108.5H627.75V116.25H643.25V108.5Z" fill="black"/>
<path d="M651 108.5H643.25V116.25H651V108.5Z" fill="#B9185C"/>
<path d="M534.75 116.25H527V124H534.75V116.25Z" fill="#B9185C"/>
<path d="M558 116.25H550.25V124H558V116.25Z" fill="#B9185C"/>
<path d="M573.5 116.25H558V124H573.5V116.25Z" fill="white"/>
<path d="M589 116.25H573.5V124H589V116.25Z" fill="black"/>
<path d="M596.75 116.25H589V124H596.75V116.25Z" fill="#B9185C"/>
<path d="M612.25 116.25H604.5V124H612.25V116.25Z" fill="#B9185C"/>
<path d="M627.75 116.25H612.25V124H627.75V116.25Z" fill="white"/>
<path d="M643.25 116.25H627.75V124H643.25V116.25Z" fill="black"/>
<path d="M651 116.25H643.25V124H651V116.25Z" fill="#B9185C"/>
<path d="M596.75 124H550.25V131.75H596.75V124Z" fill="#B9185C"/>
<path d="M651 124H604.5V131.75H651V124Z" fill="#B9185C"/>
</g>
<g clip-path="url(#clip1)">
<path d="M693.625 0H692.85V0.775H693.625V0Z" fill="#E1D7D5"/>
<path d="M871.1 162.75H762.6V170.5H871.1V162.75Z" fill="#4BEA69"/>
<path d="M871.1 170.5H762.6V178.25H871.1V170.5Z" fill="#4BEA69"/>
<path d="M871.1 178.25H762.6V186H871.1V178.25Z" fill="#4BEA69"/>
<path d="M871.1 186H762.6V193.75H871.1V186Z" fill="#4BEA69"/>
<path d="M778.1 193.75H762.6V201.5H778.1V193.75Z" fill="#4BEA69"/>
<path d="M871.1 193.75H785.85V201.5H871.1V193.75Z" fill="#4BEA69"/>
<path d="M778.1 201.5H762.6V209.25H778.1V201.5Z" fill="#4BEA69"/>
<path d="M871.1 201.5H785.85V209.25H871.1V201.5Z" fill="#4BEA69"/>
<path d="M778.1 209.25H762.6V217H778.1V209.25Z" fill="#4BEA69"/>
<path d="M871.1 209.25H785.85V217H871.1V209.25Z" fill="#4BEA69"/>
<path d="M778.1 217H762.6V224.75H778.1V217Z" fill="#4BEA69"/>
<path d="M871.1 217H785.85V224.75H871.1V217Z" fill="#4BEA69"/>
<path d="M778.1 224.75H762.6V232.5H778.1V224.75Z" fill="#4BEA69"/>
<path d="M871.1 224.75H785.85V232.5H871.1V224.75Z" fill="#4BEA69"/>
<path d="M778.1 232.5H762.6V240.25H778.1V232.5Z" fill="#4BEA69"/>
<path d="M871.1 232.5H785.85V240.25H871.1V232.5Z" fill="#4BEA69"/>
<path d="M778.1 240.25H762.6V248H778.1V240.25Z" fill="#4BEA69"/>
<path d="M871.1 240.25H785.85V248H871.1V240.25Z" fill="#4BEA69"/>
<path d="M816.85 178.25H801.35V186H816.85V178.25Z" fill="#FFFDF2"/>
<path d="M801.35 186H793.6V193.75H801.35V186Z" fill="#FFFDF2"/>
<path d="M824.6 186H816.85V193.75H824.6V186Z" fill="#FFFDF2"/>
<path d="M801.35 193.75H793.6V201.5H801.35V193.75Z" fill="#FFFDF2"/>
<path d="M824.6 201.5H801.35V209.25H824.6V201.5Z" fill="#FFFDF2"/>
<path d="M840.1 209.25H816.85V217H840.1V209.25Z" fill="#FFFDF2"/>
<path d="M847.85 217H840.1V224.75H847.85V217Z" fill="#FFFDF2"/>
<path d="M824.6 224.75H816.85V232.5H824.6V224.75Z" fill="#FFFDF2"/>
<path d="M847.85 224.75H840.1V232.5H847.85V224.75Z" fill="#FFFDF2"/>
<path d="M840.1 232.5H824.6V240.25H840.1V232.5Z" fill="#FFFDF2"/>
<path d="M809.1 46.5H770.35V54.25H809.1V46.5Z" fill="#4BEA69"/>
<path d="M863.35 46.5H832.35V54.25H863.35V46.5Z" fill="#4BEA69"/>
<path d="M816.85 54.25H762.6V62H816.85V54.25Z" fill="#4BEA69"/>
<path d="M871.1 54.25H824.6V62H871.1V54.25Z" fill="#4BEA69"/>
<path d="M785.85 62H754.85V69.75H785.85V62Z" fill="#4BEA69"/>
<path d="M801.35 62H785.85V69.75H801.35V62Z" fill="#068940"/>
<path d="M878.85 62H801.35V69.75H878.85V62Z" fill="#4BEA69"/>
<path d="M785.85 69.75H754.85V77.5H785.85V69.75Z" fill="#4BEA69"/>
<path d="M801.35 69.75H785.85V77.5H801.35V69.75Z" fill="#068940"/>
<path d="M878.85 69.75H801.35V77.5H878.85V69.75Z" fill="#4BEA69"/>
<path d="M855.6 77.5H754.85V85.25H855.6V77.5Z" fill="#4BEA69"/>
<path d="M871.1 77.5H855.6V85.25H871.1V77.5Z" fill="#068940"/>
<path d="M878.85 77.5H871.1V85.25H878.85V77.5Z" fill="#4BEA69"/>
<path d="M855.6 85.25H754.85V93H855.6V85.25Z" fill="#4BEA69"/>
<path d="M871.1 85.25H855.6V93H871.1V85.25Z" fill="#068940"/>
<path d="M878.85 85.25H871.1V93H878.85V85.25Z" fill="#4BEA69"/>
<path d="M878.85 93H754.85V100.75H878.85V93Z" fill="#4BEA69"/>
<path d="M878.85 100.75H754.85V108.5H878.85V100.75Z" fill="#4BEA69"/>
<path d="M770.35 108.5H754.85V116.25H770.35V108.5Z" fill="#068940"/>
<path d="M878.85 108.5H770.35V116.25H878.85V108.5Z" fill="#4BEA69"/>
<path d="M754.85 116.25H747.1V124H754.85V116.25Z" fill="#4BEA69"/>
<path d="M770.35 116.25H754.85V124H770.35V116.25Z" fill="#068940"/>
<path d="M886.6 116.25H770.35V124H886.6V116.25Z" fill="#4BEA69"/>
<path d="M886.6 124H747.1V131.75H886.6V124Z" fill="#4BEA69"/>
<path d="M886.6 131.75H747.1V139.5H886.6V131.75Z" fill="#4BEA69"/>
<path d="M886.6 139.5H747.1V147.25H886.6V139.5Z" fill="#70E890"/>
<path d="M762.6 147.25H747.1V155H762.6V147.25Z" fill="#70E890"/>
<path d="M871.1 147.25H762.6V155H871.1V147.25Z" fill="#0B5027"/>
<path d="M886.6 147.25H871.1V155H886.6V147.25Z" fill="#70E890"/>
<path d="M878.85 155H754.85V162.75H878.85V155Z" fill="#70E890"/>
<path d="M816.85 85.25H770.35V93H816.85V85.25Z" fill="#9CB4B8"/>
<path d="M871.1 85.25H824.6V93H871.1V85.25Z" fill="#9CB4B8"/>
<path d="M778.1 93H770.35V100.75H778.1V93Z" fill="#9CB4B8"/>
<path d="M793.6 93H778.1V100.75H793.6V93Z" fill="white"/>
<path d="M809.1 93H793.6V100.75H809.1V93Z" fill="black"/>
<path d="M816.85 93H809.1V100.75H816.85V93Z" fill="#9CB4B8"/>
<path d="M832.35 93H824.6V100.75H832.35V93Z" fill="#9CB4B8"/>
<path d="M847.85 93H832.35V100.75H847.85V93Z" fill="white"/>
<path d="M863.35 93H847.85V100.75H863.35V93Z" fill="black"/>
<path d="M871.1 93H863.35V100.75H871.1V93Z" fill="#9CB4B8"/>
<path d="M778.1 100.75H747.1V108.5H778.1V100.75Z" fill="#9CB4B8"/>
<path d="M793.6 100.75H778.1V108.5H793.6V100.75Z" fill="white"/>
<path d="M809.1 100.75H793.6V108.5H809.1V100.75Z" fill="black"/>
<path d="M832.35 100.75H809.1V108.5H832.35V100.75Z" fill="#9CB4B8"/>
<path d="M847.85 100.75H832.35V108.5H847.85V100.75Z" fill="white"/>
<path d="M863.35 100.75H847.85V108.5H863.35V100.75Z" fill="black"/>
<path d="M871.1 100.75H863.35V108.5H871.1V100.75Z" fill="#9CB4B8"/>
<path d="M754.85 108.5H747.1V116.25H754.85V108.5Z" fill="#9CB4B8"/>
<path d="M778.1 108.5H770.35V116.25H778.1V108.5Z" fill="#9CB4B8"/>
<path d="M793.6 108.5H778.1V116.25H793.6V108.5Z" fill="white"/>
<path d="M809.1 108.5H793.6V116.25H809.1V108.5Z" fill="black"/>
<path d="M816.85 108.5H809.1V116.25H816.85V108.5Z" fill="#9CB4B8"/>
<path d="M832.35 108.5H824.6V116.25H832.35V108.5Z" fill="#9CB4B8"/>
<path d="M847.85 108.5H832.35V116.25H847.85V108.5Z" fill="white"/>
<path d="M863.35 108.5H847.85V116.25H863.35V108.5Z" fill="black"/>
<path d="M871.1 108.5H863.35V116.25H871.1V108.5Z" fill="#9CB4B8"/>
<path d="M754.85 116.25H747.1V124H754.85V116.25Z" fill="#9CB4B8"/>
<path d="M778.1 116.25H770.35V124H778.1V116.25Z" fill="#9CB4B8"/>
<path d="M793.6 116.25H778.1V124H793.6V116.25Z" fill="white"/>
<path d="M809.1 116.25H793.6V124H809.1V116.25Z" fill="black"/>
<path d="M816.85 116.25H809.1V124H816.85V116.25Z" fill="#9CB4B8"/>
<path d="M832.35 116.25H824.6V124H832.35V116.25Z" fill="#9CB4B8"/>
<path d="M847.85 116.25H832.35V124H847.85V116.25Z" fill="white"/>
<path d="M863.35 116.25H847.85V124H863.35V116.25Z" fill="black"/>
<path d="M871.1 116.25H863.35V124H871.1V116.25Z" fill="#9CB4B8"/>
<path d="M816.85 124H770.35V131.75H816.85V124Z" fill="#9CB4B8"/>
<path d="M871.1 124H824.6V131.75H871.1V124Z" fill="#9CB4B8"/>
</g>
<defs>
<clipPath id="clip0">
<rect width="248" height="248" fill="white" transform="translate(472.75)"/>
</clipPath>
<clipPath id="clip1">
<rect width="248" height="248" fill="white" transform="translate(692.85)"/>
</clipPath>
</defs>
</svg>
