<svg width="1201" height="320" viewBox="0 0 1201 320" fill="none" xmlns="http://www.w3.org/2000/svg">
<path d="M1 0H0V1H1V0Z" fill="#E1D7D5"/>
<path d="M230 210H90V220H230V210Z" fill="#807F7E"/>
<path d="M230 220H90V230H230V220Z" fill="#807F7E"/>
<path d="M230 230H90V240H230V230Z" fill="#807F7E"/>
<path d="M230 240H90V250H230V240Z" fill="#807F7E"/>
<path d="M110 250H90V260H110V250Z" fill="#807F7E"/>
<path d="M230 250H120V260H230V250Z" fill="#807F7E"/>
<path d="M110 260H90V270H110V260Z" fill="#807F7E"/>
<path d="M230 260H120V270H230V260Z" fill="#807F7E"/>
<path d="M110 270H90V280H110V270Z" fill="#807F7E"/>
<path d="M230 270H120V280H230V270Z" fill="#807F7E"/>
<path d="M110 280H90V290H110V280Z" fill="#807F7E"/>
<path d="M230 280H120V290H230V280Z" fill="#807F7E"/>
<path d="M110 290H90V300H110V290Z" fill="#807F7E"/>
<path d="M230 290H120V300H230V290Z" fill="#807F7E"/>
<path d="M110 300H90V310H110V300Z" fill="#807F7E"/>
<path d="M230 300H120V310H230V300Z" fill="#807F7E"/>
<path d="M110 310H90V320H110V310Z" fill="#807F7E"/>
<path d="M230 310H120V320H230V310Z" fill="#807F7E"/>
<path d="M150 230H140V240H150V230Z" fill="#C4DA53"/>
<path d="M170 230H160V240H170V230Z" fill="#C4DA53"/>
<path d="M150 250H130V260H150V250Z" fill="#C4DA53"/>
<path d="M180 250H160V260H180V250Z" fill="#C4DA53"/>
<path d="M150 270H130V280H150V270Z" fill="#C4DA53"/>
<path d="M180 270H160V280H180V270Z" fill="#C4DA53"/>
<path d="M150 290H130V300H150V290Z" fill="#C4DA53"/>
<path d="M170 290H160V300H170V290Z" fill="#C4DA53"/>
<path d="M150 300H140V310H150V300Z" fill="#C4DA53"/>
<path d="M140 30H130V40H140V30Z" fill="#068940"/>
<path d="M170 30H150V40H170V30Z" fill="#3F9323"/>
<path d="M190 30H180V40H190V30Z" fill="#068940"/>
<path d="M120 40H110V50H120V40Z" fill="#3F9323"/>
<path d="M150 40H130V50H150V40Z" fill="#068940"/>
<path d="M170 40H150V50H170V40Z" fill="#3F9323"/>
<path d="M190 40H170V50H190V40Z" fill="#068940"/>
<path d="M210 40H200V50H210V40Z" fill="#3F9323"/>
<path d="M140 50H110V60H140V50Z" fill="#3F9323"/>
<path d="M150 50H140V60H150V50Z" fill="#068940"/>
<path d="M170 50H150V60H170V50Z" fill="#3F9323"/>
<path d="M180 50H170V60H180V50Z" fill="#068940"/>
<path d="M210 50H180V60H210V50Z" fill="#3F9323"/>
<path d="M190 60H130V70H190V60Z" fill="#3F9323"/>
<path d="M130 70H110V80H130V70Z" fill="#FFEF16"/>
<path d="M150 70H130V80H150V70Z" fill="#FFC110"/>
<path d="M170 70H150V80H170V70Z" fill="#FFEF16"/>
<path d="M190 70H170V80H190V70Z" fill="#FFC110"/>
<path d="M210 70H190V80H210V70Z" fill="#FFEF16"/>
<path d="M110 80H90V90H110V80Z" fill="#FFEF16"/>
<path d="M130 80H110V90H130V80Z" fill="#FFC110"/>
<path d="M150 80H130V90H150V80Z" fill="#FFEF16"/>
<path d="M170 80H150V90H170V80Z" fill="#FFC110"/>
<path d="M190 80H170V90H190V80Z" fill="#FFEF16"/>
<path d="M210 80H190V90H210V80Z" fill="#FFC110"/>
<path d="M230 80H210V90H230V80Z" fill="#FFEF16"/>
<path d="M110 90H90V100H110V90Z" fill="#FFEF16"/>
<path d="M130 90H110V100H130V90Z" fill="#FFC110"/>
<path d="M150 90H130V100H150V90Z" fill="#FFEF16"/>
<path d="M170 90H150V100H170V90Z" fill="#FFC110"/>
<path d="M190 90H170V100H190V90Z" fill="#FFEF16"/>
<path d="M210 90H190V100H210V90Z" fill="#FFC110"/>
<path d="M230 90H210V100H230V90Z" fill="#FFEF16"/>
<path d="M90 100H80V110H90V100Z" fill="#FFEF16"/>
<path d="M110 100H90V110H110V100Z" fill="#FFC110"/>
<path d="M130 100H110V110H130V100Z" fill="#FFEF16"/>
<path d="M150 100H130V110H150V100Z" fill="#FFC110"/>
<path d="M170 100H150V110H170V100Z" fill="#FFEF16"/>
<path d="M190 100H170V110H190V100Z" fill="#FFC110"/>
<path d="M210 100H190V110H210V100Z" fill="#FFEF16"/>
<path d="M230 100H210V110H230V100Z" fill="#FFC110"/>
<path d="M240 100H230V110H240V100Z" fill="#FFEF16"/>
<path d="M90 110H80V120H90V110Z" fill="#FFEF16"/>
<path d="M110 110H90V120H110V110Z" fill="#FFC110"/>
<path d="M130 110H110V120H130V110Z" fill="#FFEF16"/>
<path d="M150 110H130V120H150V110Z" fill="#FFC110"/>
<path d="M170 110H150V120H170V110Z" fill="#FFEF16"/>
<path d="M190 110H170V120H190V110Z" fill="#FFC110"/>
<path d="M210 110H190V120H210V110Z" fill="#FFEF16"/>
<path d="M230 110H210V120H230V110Z" fill="#FFC110"/>
<path d="M240 110H230V120H240V110Z" fill="#FFEF16"/>
<path d="M90 120H80V130H90V120Z" fill="#FFC110"/>
<path d="M110 120H90V130H110V120Z" fill="#FFEF16"/>
<path d="M130 120H110V130H130V120Z" fill="#FFC110"/>
<path d="M150 120H130V130H150V120Z" fill="#FFEF16"/>
<path d="M170 120H150V130H170V120Z" fill="#FFC110"/>
<path d="M190 120H170V130H190V120Z" fill="#FFEF16"/>
<path d="M210 120H190V130H210V120Z" fill="#FFC110"/>
<path d="M230 120H210V130H230V120Z" fill="#FFEF16"/>
<path d="M240 120H230V130H240V120Z" fill="#FFC110"/>
<path d="M90 130H80V140H90V130Z" fill="#FFC110"/>
<path d="M110 130H90V140H110V130Z" fill="#FFEF16"/>
<path d="M130 130H110V140H130V130Z" fill="#FFC110"/>
<path d="M150 130H130V140H150V130Z" fill="#FFEF16"/>
<path d="M170 130H150V140H170V130Z" fill="#FFC110"/>
<path d="M190 130H170V140H190V130Z" fill="#FFEF16"/>
<path d="M210 130H190V140H210V130Z" fill="#FFC110"/>
<path d="M230 130H210V140H230V130Z" fill="#FFEF16"/>
<path d="M240 130H230V140H240V130Z" fill="#FFC110"/>
<path d="M250 140H80V150H250V140Z" fill="#FFC110"/>
<path d="M240 150H80V160H240V150Z" fill="#FFC110"/>
<path d="M240 160H80V170H240V160Z" fill="#FFC110"/>
<path d="M250 170H70V180H250V170Z" fill="#FFC110"/>
<path d="M100 180H80V190H100V180Z" fill="#FFC110"/>
<path d="M130 180H100V190H130V180Z" fill="#F78A18"/>
<path d="M140 180H130V190H140V180Z" fill="#FFC110"/>
<path d="M180 180H140V190H180V180Z" fill="#F78A18"/>
<path d="M190 180H180V190H190V180Z" fill="#FFC110"/>
<path d="M220 180H190V190H220V180Z" fill="#F78A18"/>
<path d="M240 180H220V190H240V180Z" fill="#FFC110"/>
<path d="M100 190H80V200H100V190Z" fill="#FFC110"/>
<path d="M130 190H100V200H130V190Z" fill="#F78A18"/>
<path d="M140 190H130V200H140V190Z" fill="#FFC110"/>
<path d="M180 190H140V200H180V190Z" fill="#F78A18"/>
<path d="M190 190H180V200H190V190Z" fill="#FFC110"/>
<path d="M220 190H190V200H220V190Z" fill="#F78A18"/>
<path d="M240 190H220V200H240V190Z" fill="#FFC110"/>
<path d="M230 200H90V210H230V200Z" fill="#FFC110"/>
<path d="M160 110H100V120H160V110Z" fill="#FFEF16"/>
<path d="M230 110H170V120H230V110Z" fill="#FFEF16"/>
<path d="M110 120H100V130H110V120Z" fill="#FFEF16"/>
<path d="M130 120H110V130H130V120Z" fill="white"/>
<path d="M150 120H130V130H150V120Z" fill="black"/>
<path d="M160 120H150V130H160V120Z" fill="#FFEF16"/>
<path d="M180 120H170V130H180V120Z" fill="#FFEF16"/>
<path d="M200 120H180V130H200V120Z" fill="white"/>
<path d="M220 120H200V130H220V120Z" fill="black"/>
<path d="M230 120H220V130H230V120Z" fill="#FFEF16"/>
<path d="M110 130H70V140H110V130Z" fill="#FFEF16"/>
<path d="M130 130H110V140H130V130Z" fill="white"/>
<path d="M150 130H130V140H150V130Z" fill="black"/>
<path d="M180 130H150V140H180V130Z" fill="#FFEF16"/>
<path d="M200 130H180V140H200V130Z" fill="white"/>
<path d="M220 130H200V140H220V130Z" fill="black"/>
<path d="M230 130H220V140H230V130Z" fill="#FFEF16"/>
<path d="M80 140H70V150H80V140Z" fill="#FFEF16"/>
<path d="M110 140H100V150H110V140Z" fill="#FFEF16"/>
<path d="M130 140H110V150H130V140Z" fill="white"/>
<path d="M150 140H130V150H150V140Z" fill="black"/>
<path d="M160 140H150V150H160V140Z" fill="#FFEF16"/>
<path d="M180 140H170V150H180V140Z" fill="#FFEF16"/>
<path d="M200 140H180V150H200V140Z" fill="white"/>
<path d="M220 140H200V150H220V140Z" fill="black"/>
<path d="M230 140H220V150H230V140Z" fill="#FFEF16"/>
<path d="M80 150H70V160H80V150Z" fill="#FFEF16"/>
<path d="M110 150H100V160H110V150Z" fill="#FFEF16"/>
<path d="M130 150H110V160H130V150Z" fill="white"/>
<path d="M150 150H130V160H150V150Z" fill="black"/>
<path d="M160 150H150V160H160V150Z" fill="#FFEF16"/>
<path d="M180 150H170V160H180V150Z" fill="#FFEF16"/>
<path d="M200 150H180V160H200V150Z" fill="white"/>
<path d="M220 150H200V160H220V150Z" fill="black"/>
<path d="M230 150H220V160H230V150Z" fill="#FFEF16"/>
<path d="M160 160H100V170H160V160Z" fill="#FFEF16"/>
<path d="M230 160H170V170H230V160Z" fill="#FFEF16"/>
<path d="M882 0H881V1H882V0Z" fill="#E1D7D5"/>
<path d="M1111 210H971V220H1111V210Z" fill="#4BEA69"/>
<path d="M1111 220H971V230H1111V220Z" fill="#4BEA69"/>
<path d="M1111 230H971V240H1111V230Z" fill="#4BEA69"/>
<path d="M1111 240H971V250H1111V240Z" fill="#4BEA69"/>
<path d="M991 250H971V260H991V250Z" fill="#4BEA69"/>
<path d="M1111 250H1001V260H1111V250Z" fill="#4BEA69"/>
<path d="M991 260H971V270H991V260Z" fill="#4BEA69"/>
<path d="M1111 260H1001V270H1111V260Z" fill="#4BEA69"/>
<path d="M991 270H971V280H991V270Z" fill="#4BEA69"/>
<path d="M1111 270H1001V280H1111V270Z" fill="#4BEA69"/>
<path d="M991 280H971V290H991V280Z" fill="#4BEA69"/>
<path d="M1111 280H1001V290H1111V280Z" fill="#4BEA69"/>
<path d="M991 290H971V300H991V290Z" fill="#4BEA69"/>
<path d="M1111 290H1001V300H1111V290Z" fill="#4BEA69"/>
<path d="M991 300H971V310H991V300Z" fill="#4BEA69"/>
<path d="M1111 300H1001V310H1111V300Z" fill="#4BEA69"/>
<path d="M991 310H971V320H991V310Z" fill="#4BEA69"/>
<path d="M1111 310H1001V320H1111V310Z" fill="#4BEA69"/>
<path d="M1041 230H1021V240H1041V230Z" fill="#FFFDF2"/>
<path d="M1021 240H1011V250H1021V240Z" fill="#FFFDF2"/>
<path d="M1051 240H1041V250H1051V240Z" fill="#FFFDF2"/>
<path d="M1021 250H1011V260H1021V250Z" fill="#FFFDF2"/>
<path d="M1051 260H1021V270H1051V260Z" fill="#FFFDF2"/>
<path d="M1071 270H1041V280H1071V270Z" fill="#FFFDF2"/>
<path d="M1081 280H1071V290H1081V280Z" fill="#FFFDF2"/>
<path d="M1051 290H1041V300H1051V290Z" fill="#FFFDF2"/>
<path d="M1081 290H1071V300H1081V290Z" fill="#FFFDF2"/>
<path d="M1071 300H1051V310H1071V300Z" fill="#FFFDF2"/>
<path d="M1031 60H981V70H1031V60Z" fill="#4BEA69"/>
<path d="M1101 60H1061V70H1101V60Z" fill="#4BEA69"/>
<path d="M1041 70H971V80H1041V70Z" fill="#4BEA69"/>
<path d="M1111 70H1051V80H1111V70Z" fill="#4BEA69"/>
<path d="M1001 80H961V90H1001V80Z" fill="#4BEA69"/>
<path d="M1021 80H1001V90H1021V80Z" fill="#068940"/>
<path d="M1121 80H1021V90H1121V80Z" fill="#4BEA69"/>
<path d="M1001 90H961V100H1001V90Z" fill="#4BEA69"/>
<path d="M1021 90H1001V100H1021V90Z" fill="#068940"/>
<path d="M1121 90H1021V100H1121V90Z" fill="#4BEA69"/>
<path d="M1091 100H961V110H1091V100Z" fill="#4BEA69"/>
<path d="M1111 100H1091V110H1111V100Z" fill="#068940"/>
<path d="M1121 100H1111V110H1121V100Z" fill="#4BEA69"/>
<path d="M1091 110H961V120H1091V110Z" fill="#4BEA69"/>
<path d="M1111 110H1091V120H1111V110Z" fill="#068940"/>
<path d="M1121 110H1111V120H1121V110Z" fill="#4BEA69"/>
<path d="M1121 120H961V130H1121V120Z" fill="#4BEA69"/>
<path d="M1121 130H961V140H1121V130Z" fill="#4BEA69"/>
<path d="M981 140H961V150H981V140Z" fill="#068940"/>
<path d="M1121 140H981V150H1121V140Z" fill="#4BEA69"/>
<path d="M961 150H951V160H961V150Z" fill="#4BEA69"/>
<path d="M981 150H961V160H981V150Z" fill="#068940"/>
<path d="M1131 150H981V160H1131V150Z" fill="#4BEA69"/>
<path d="M1131 160H951V170H1131V160Z" fill="#4BEA69"/>
<path d="M1131 170H951V180H1131V170Z" fill="#4BEA69"/>
<path d="M1131 180H951V190H1131V180Z" fill="#70E890"/>
<path d="M971 190H951V200H971V190Z" fill="#70E890"/>
<path d="M1111 190H971V200H1111V190Z" fill="#0B5027"/>
<path d="M1131 190H1111V200H1131V190Z" fill="#70E890"/>
<path d="M1121 200H961V210H1121V200Z" fill="#70E890"/>
<path d="M1041 110H981V120H1041V110Z" fill="#9CB4B8"/>
<path d="M1111 110H1051V120H1111V110Z" fill="#9CB4B8"/>
<path d="M991 120H981V130H991V120Z" fill="#9CB4B8"/>
<path d="M1011 120H991V130H1011V120Z" fill="white"/>
<path d="M1031 120H1011V130H1031V120Z" fill="black"/>
<path d="M1041 120H1031V130H1041V120Z" fill="#9CB4B8"/>
<path d="M1061 120H1051V130H1061V120Z" fill="#9CB4B8"/>
<path d="M1081 120H1061V130H1081V120Z" fill="white"/>
<path d="M1101 120H1081V130H1101V120Z" fill="black"/>
<path d="M1111 120H1101V130H1111V120Z" fill="#9CB4B8"/>
<path d="M991 130H951V140H991V130Z" fill="#9CB4B8"/>
<path d="M1011 130H991V140H1011V130Z" fill="white"/>
<path d="M1031 130H1011V140H1031V130Z" fill="black"/>
<path d="M1061 130H1031V140H1061V130Z" fill="#9CB4B8"/>
<path d="M1081 130H1061V140H1081V130Z" fill="white"/>
<path d="M1101 130H1081V140H1101V130Z" fill="black"/>
<path d="M1111 130H1101V140H1111V130Z" fill="#9CB4B8"/>
<path d="M961 140H951V150H961V140Z" fill="#9CB4B8"/>
<path d="M991 140H981V150H991V140Z" fill="#9CB4B8"/>
<path d="M1011 140H991V150H1011V140Z" fill="white"/>
<path d="M1031 140H1011V150H1031V140Z" fill="black"/>
<path d="M1041 140H1031V150H1041V140Z" fill="#9CB4B8"/>
<path d="M1061 140H1051V150H1061V140Z" fill="#9CB4B8"/>
<path d="M1081 140H1061V150H1081V140Z" fill="white"/>
<path d="M1101 140H1081V150H1101V140Z" fill="black"/>
<path d="M1111 140H1101V150H1111V140Z" fill="#9CB4B8"/>
<path d="M961 150H951V160H961V150Z" fill="#9CB4B8"/>
<path d="M991 150H981V160H991V150Z" fill="#9CB4B8"/>
<path d="M1011 150H991V160H1011V150Z" fill="white"/>
<path d="M1031 150H1011V160H1031V150Z" fill="black"/>
<path d="M1041 150H1031V160H1041V150Z" fill="#9CB4B8"/>
<path d="M1061 150H1051V160H1061V150Z" fill="#9CB4B8"/>
<path d="M1081 150H1061V160H1081V150Z" fill="white"/>
<path d="M1101 150H1081V160H1101V150Z" fill="black"/>
<path d="M1111 150H1101V160H1111V150Z" fill="#9CB4B8"/>
<path d="M1041 160H981V170H1041V160Z" fill="#9CB4B8"/>
<path d="M1111 160H1051V170H1111V160Z" fill="#9CB4B8"/>
<path d="M596 0H595V1H596V0Z" fill="#D5D7E1"/>
<path d="M825 210H685V220H825V210Z" fill="#B87B11"/>
<path d="M825 220H685V230H825V220Z" fill="#B87B11"/>
<path d="M825 230H685V240H825V230Z" fill="#B87B11"/>
<path d="M825 240H685V250H825V240Z" fill="#B87B11"/>
<path d="M705 250H685V260H705V250Z" fill="#B87B11"/>
<path d="M825 250H715V260H825V250Z" fill="#B87B11"/>
<path d="M705 260H685V270H705V260Z" fill="#B87B11"/>
<path d="M825 260H715V270H825V260Z" fill="#B87B11"/>
<path d="M705 270H685V280H705V270Z" fill="#B87B11"/>
<path d="M825 270H715V280H825V270Z" fill="#B87B11"/>
<path d="M705 280H685V290H705V280Z" fill="#B87B11"/>
<path d="M825 280H715V290H825V280Z" fill="#B87B11"/>
<path d="M705 290H685V300H705V290Z" fill="#B87B11"/>
<path d="M825 290H715V300H825V290Z" fill="#B87B11"/>
<path d="M705 300H685V310H705V300Z" fill="#B87B11"/>
<path d="M825 300H715V310H825V300Z" fill="#B87B11"/>
<path d="M705 310H685V320H705V310Z" fill="#B87B11"/>
<path d="M825 310H715V320H825V310Z" fill="#B87B11"/>
<path d="M745 230H735V240H745V230Z" fill="#4B65F7"/>
<path d="M775 230H765V240H775V230Z" fill="#4B65F7"/>
<path d="M745 240H725V250H745V240Z" fill="#4B65F7"/>
<path d="M765 240H755V250H765V240Z" fill="#4B65F7"/>
<path d="M785 240H775V250H785V240Z" fill="#4B65F7"/>
<path d="M745 250H725V260H745V250Z" fill="#4B65F7"/>
<path d="M775 250H765V260H775V250Z" fill="#4B65F7"/>
<path d="M745 270H725V280H745V270Z" fill="#4B65F7"/>
<path d="M765 270H755V280H765V270Z" fill="#4B65F7"/>
<path d="M745 280H725V290H745V280Z" fill="#4B65F7"/>
<path d="M775 280H755V290H775V280Z" fill="#4B65F7"/>
<path d="M735 290H725V300H735V290Z" fill="#4B65F7"/>
<path d="M785 290H755V300H785V290Z" fill="#4B65F7"/>
<path d="M765 60H675V70H765V60Z" fill="#F3322C"/>
<path d="M835 60H765V70H835V60Z" fill="#34AC80"/>
<path d="M775 70H655V80H775V70Z" fill="#F3322C"/>
<path d="M855 70H775V80H855V70Z" fill="#34AC80"/>
<path d="M705 80H645V90H705V80Z" fill="#F3322C"/>
<path d="M715 80H705V90H715V80Z" fill="white"/>
<path d="M785 80H715V90H785V80Z" fill="#F3322C"/>
<path d="M865 80H785V90H865V80Z" fill="#34AC80"/>
<path d="M665 90H635V100H665V90Z" fill="#F3322C"/>
<path d="M685 90H665V100H685V90Z" fill="white"/>
<path d="M785 90H685V100H785V90Z" fill="#F3322C"/>
<path d="M875 90H785V100H875V90Z" fill="#34AC80"/>
<path d="M665 100H635V110H665V100Z" fill="#F3322C"/>
<path d="M685 100H665V110H685V100Z" fill="white"/>
<path d="M795 100H685V110H795V100Z" fill="#F3322C"/>
<path d="M875 100H795V110H875V100Z" fill="#34AC80"/>
<path d="M795 110H625V120H795V110Z" fill="#F3322C"/>
<path d="M885 110H795V120H885V110Z" fill="#34AC80"/>
<path d="M795 120H625V130H795V120Z" fill="#F3322C"/>
<path d="M885 120H795V130H885V120Z" fill="#34AC80"/>
<path d="M795 130H625V140H795V130Z" fill="#F3322C"/>
<path d="M885 130H795V140H885V130Z" fill="#34AC80"/>
<path d="M795 140H625V150H795V140Z" fill="#F3322C"/>
<path d="M885 140H795V150H885V140Z" fill="#34AC80"/>
<path d="M795 150H625V160H795V150Z" fill="#F3322C"/>
<path d="M885 150H795V160H885V150Z" fill="#34AC80"/>
<path d="M795 160H635V170H795V160Z" fill="#F3322C"/>
<path d="M855 160H795V170H855V160Z" fill="#34AC80"/>
<path d="M865 160H855V170H865V160Z" fill="#068940"/>
<path d="M875 160H865V170H875V160Z" fill="#34AC80"/>
<path d="M785 170H635V180H785V170Z" fill="#F3322C"/>
<path d="M855 170H785V180H855V170Z" fill="#34AC80"/>
<path d="M865 170H855V180H865V170Z" fill="#068940"/>
<path d="M875 170H865V180H875V170Z" fill="#34AC80"/>
<path d="M745 180H645V190H745V180Z" fill="#F3322C"/>
<path d="M775 180H745V190H775V180Z" fill="black"/>
<path d="M785 180H775V190H785V180Z" fill="#F3322C"/>
<path d="M845 180H785V190H845V180Z" fill="#34AC80"/>
<path d="M855 180H845V190H855V180Z" fill="#068940"/>
<path d="M865 180H855V190H865V180Z" fill="#34AC80"/>
<path d="M775 190H655V200H775V190Z" fill="#F3322C"/>
<path d="M855 190H775V200H855V190Z" fill="#34AC80"/>
<path d="M765 200H675V210H765V200Z" fill="#F3322C"/>
<path d="M835 200H765V210H835V200Z" fill="#34AC80"/>
<path d="M755 110H695V120H755V110Z" fill="#B9185C"/>
<path d="M825 110H765V120H825V110Z" fill="#B9185C"/>
<path d="M705 120H695V130H705V120Z" fill="#B9185C"/>
<path d="M725 120H705V130H725V120Z" fill="white"/>
<path d="M745 120H725V130H745V120Z" fill="black"/>
<path d="M755 120H745V130H755V120Z" fill="#B9185C"/>
<path d="M775 120H765V130H775V120Z" fill="#B9185C"/>
<path d="M795 120H775V130H795V120Z" fill="white"/>
<path d="M815 120H795V130H815V120Z" fill="black"/>
<path d="M825 120H815V130H825V120Z" fill="#B9185C"/>
<path d="M705 130H665V140H705V130Z" fill="#B9185C"/>
<path d="M725 130H705V140H725V130Z" fill="white"/>
<path d="M745 130H725V140H745V130Z" fill="black"/>
<path d="M775 130H745V140H775V130Z" fill="#B9185C"/>
<path d="M795 130H775V140H795V130Z" fill="white"/>
<path d="M815 130H795V140H815V130Z" fill="black"/>
<path d="M825 130H815V140H825V130Z" fill="#B9185C"/>
<path d="M675 140H665V150H675V140Z" fill="#B9185C"/>
<path d="M705 140H695V150H705V140Z" fill="#B9185C"/>
<path d="M725 140H705V150H725V140Z" fill="white"/>
<path d="M745 140H725V150H745V140Z" fill="black"/>
<path d="M755 140H745V150H755V140Z" fill="#B9185C"/>
<path d="M775 140H765V150H775V140Z" fill="#B9185C"/>
<path d="M795 140H775V150H795V140Z" fill="white"/>
<path d="M815 140H795V150H815V140Z" fill="black"/>
<path d="M825 140H815V150H825V140Z" fill="#B9185C"/>
<path d="M675 150H665V160H675V150Z" fill="#B9185C"/>
<path d="M705 150H695V160H705V150Z" fill="#B9185C"/>
<path d="M725 150H705V160H725V150Z" fill="white"/>
<path d="M745 150H725V160H745V150Z" fill="black"/>
<path d="M755 150H745V160H755V150Z" fill="#B9185C"/>
<path d="M775 150H765V160H775V150Z" fill="#B9185C"/>
<path d="M795 150H775V160H795V150Z" fill="white"/>
<path d="M815 150H795V160H815V150Z" fill="black"/>
<path d="M825 150H815V160H825V150Z" fill="#B9185C"/>
<path d="M755 160H695V170H755V160Z" fill="#B9185C"/>
<path d="M825 160H765V170H825V160Z" fill="#B9185C"/>
<path d="M276 0H275V1H276V0Z" fill="#E1D7D5"/>
<path d="M505 210H365V220H505V210Z" fill="#5A423F"/>
<path d="M505 220H365V230H505V220Z" fill="#5A423F"/>
<path d="M505 230H365V240H505V230Z" fill="#5A423F"/>
<path d="M505 240H365V250H505V240Z" fill="#5A423F"/>
<path d="M385 250H365V260H385V250Z" fill="#5A423F"/>
<path d="M505 250H395V260H505V250Z" fill="#5A423F"/>
<path d="M385 260H365V270H385V260Z" fill="#5A423F"/>
<path d="M505 260H395V270H505V260Z" fill="#5A423F"/>
<path d="M385 270H365V280H385V270Z" fill="#5A423F"/>
<path d="M505 270H395V280H505V270Z" fill="#5A423F"/>
<path d="M385 280H365V290H385V280Z" fill="#5A423F"/>
<path d="M505 280H395V290H505V280Z" fill="#5A423F"/>
<path d="M385 290H365V300H385V290Z" fill="#5A423F"/>
<path d="M505 290H395V300H505V290Z" fill="#5A423F"/>
<path d="M385 300H365V310H385V300Z" fill="#5A423F"/>
<path d="M505 300H395V310H505V300Z" fill="#5A423F"/>
<path d="M385 310H365V320H385V310Z" fill="#5A423F"/>
<path d="M505 310H395V320H505V310Z" fill="#5A423F"/>
<path d="M435 240H415V250H435V240Z" fill="#D8DADF"/>
<path d="M465 240H445V250H465V240Z" fill="#D8DADF"/>
<path d="M475 250H405V260H475V250Z" fill="#D8DADF"/>
<path d="M475 260H405V270H475V260Z" fill="#D8DADF"/>
<path d="M465 270H415V280H465V270Z" fill="#D8DADF"/>
<path d="M455 280H425V290H455V280Z" fill="#D8DADF"/>
<path d="M445 290H435V300H445V290Z" fill="#D8DADF"/>
<path d="M375 50H345V60H375V50Z" fill="#757576"/>
<path d="M345 60H335V70H345V60Z" fill="#757576"/>
<path d="M385 60H375V70H385V60Z" fill="#757576"/>
<path d="M345 70H335V80H345V70Z" fill="#757576"/>
<path d="M385 70H375V80H385V70Z" fill="#757576"/>
<path d="M395 80H315V90H395V80Z" fill="#757576"/>
<path d="M425 80H415V90H425V80Z" fill="#343235"/>
<path d="M455 80H445V90H455V80Z" fill="#343235"/>
<path d="M485 80H475V90H485V80Z" fill="#343235"/>
<path d="M515 80H505V90H515V80Z" fill="#343235"/>
<path d="M395 90H315V100H395V90Z" fill="#757576"/>
<path d="M405 90H395V100H405V90Z" fill="#343235"/>
<path d="M435 90H415V100H435V90Z" fill="#343235"/>
<path d="M465 90H445V100H465V90Z" fill="#343235"/>
<path d="M495 90H475V100H495V90Z" fill="#343235"/>
<path d="M525 90H505V100H525V90Z" fill="#343235"/>
<path d="M395 100H315V110H395V100Z" fill="#757576"/>
<path d="M415 100H395V110H415V100Z" fill="#343235"/>
<path d="M435 100H415V110H435V100Z" fill="#757576"/>
<path d="M445 100H435V110H445V100Z" fill="#343235"/>
<path d="M465 100H445V110H465V100Z" fill="#757576"/>
<path d="M475 100H465V110H475V100Z" fill="#343235"/>
<path d="M495 100H475V110H495V100Z" fill="#757576"/>
<path d="M505 100H495V110H505V100Z" fill="#343235"/>
<path d="M525 100H505V110H525V100Z" fill="#757576"/>
<path d="M545 100H525V110H545V100Z" fill="#343235"/>
<path d="M335 110H325V120H335V110Z" fill="#343235"/>
<path d="M395 110H335V120H395V110Z" fill="#757576"/>
<path d="M535 110H395V120H535V110Z" fill="#343235"/>
<path d="M545 110H535V120H545V110Z" fill="#757576"/>
<path d="M565 110H545V120H565V110Z" fill="#343235"/>
<path d="M395 120H315V130H395V120Z" fill="#757576"/>
<path d="M535 120H395V130H535V120Z" fill="#343235"/>
<path d="M545 120H535V130H545V120Z" fill="#757576"/>
<path d="M555 120H545V130H555V120Z" fill="#343235"/>
<path d="M335 130H325V140H335V130Z" fill="#343235"/>
<path d="M395 130H335V140H395V130Z" fill="#757576"/>
<path d="M545 130H395V140H545V130Z" fill="#343235"/>
<path d="M395 140H315V150H395V140Z" fill="#757576"/>
<path d="M535 140H395V150H535V140Z" fill="#343235"/>
<path d="M545 140H535V150H545V140Z" fill="#757576"/>
<path d="M565 140H545V150H565V140Z" fill="#343235"/>
<path d="M335 150H325V160H335V150Z" fill="#343235"/>
<path d="M395 150H335V160H395V150Z" fill="#757576"/>
<path d="M535 150H395V160H535V150Z" fill="#343235"/>
<path d="M545 150H535V160H545V150Z" fill="#757576"/>
<path d="M555 150H545V160H555V150Z" fill="#343235"/>
<path d="M395 160H315V170H395V160Z" fill="#757576"/>
<path d="M545 160H395V170H545V160Z" fill="#343235"/>
<path d="M395 170H315V180H395V170Z" fill="#757576"/>
<path d="M535 170H395V180H535V170Z" fill="#343235"/>
<path d="M545 170H535V180H545V170Z" fill="#757576"/>
<path d="M565 170H545V180H565V170Z" fill="#343235"/>
<path d="M345 180H315V190H345V180Z" fill="#757576"/>
<path d="M355 180H345V190H355V180Z" fill="white"/>
<path d="M365 180H355V190H365V180Z" fill="#343235"/>
<path d="M375 180H365V190H375V180Z" fill="white"/>
<path d="M385 180H375V190H385V180Z" fill="#343235"/>
<path d="M395 180H385V190H395V180Z" fill="#757576"/>
<path d="M535 180H395V190H535V180Z" fill="#343235"/>
<path d="M545 180H535V190H545V180Z" fill="#757576"/>
<path d="M555 180H545V190H555V180Z" fill="#343235"/>
<path d="M345 190H325V200H345V190Z" fill="#757576"/>
<path d="M355 190H345V200H355V190Z" fill="#343235"/>
<path d="M365 190H355V200H365V190Z" fill="white"/>
<path d="M375 190H365V200H375V190Z" fill="#343235"/>
<path d="M385 190H375V200H385V190Z" fill="white"/>
<path d="M395 190H385V200H395V190Z" fill="#757576"/>
<path d="M545 190H395V200H545V190Z" fill="#343235"/>
<path d="M415 200H335V210H415V200Z" fill="#757576"/>
<path d="M425 200H415V210H425V200Z" fill="#343235"/>
<path d="M445 200H425V210H445V200Z" fill="#757576"/>
<path d="M455 200H445V210H455V200Z" fill="#343235"/>
<path d="M475 200H455V210H475V200Z" fill="#757576"/>
<path d="M485 200H475V210H485V200Z" fill="#343235"/>
<path d="M505 200H485V210H505V200Z" fill="#757576"/>
<path d="M515 200H505V210H515V200Z" fill="#343235"/>
<path d="M535 200H515V210H535V200Z" fill="#757576"/>
<path d="M545 200H535V210H545V200Z" fill="#343235"/>
<path d="M395 210H345V220H395V210Z" fill="#757576"/>
<path d="M415 210H395V220H415V210Z" fill="#343235"/>
<path d="M445 210H425V220H445V210Z" fill="#343235"/>
<path d="M475 210H455V220H475V210Z" fill="#343235"/>
<path d="M505 210H485V220H505V210Z" fill="#343235"/>
<path d="M535 210H515V220H535V210Z" fill="#343235"/>
<path d="M395 220H355V230H395V220Z" fill="#757576"/>
<path d="M415 220H405V230H415V220Z" fill="#343235"/>
<path d="M445 220H435V230H445V220Z" fill="#343235"/>
<path d="M475 220H465V230H475V220Z" fill="#343235"/>
<path d="M505 220H495V230H505V220Z" fill="#343235"/>
<path d="M535 220H525V230H535V220Z" fill="#343235"/>
<path d="M435 110H375V120H435V110Z" fill="#FFC110"/>
<path d="M505 110H445V120H505V110Z" fill="#F98F30"/>
<path d="M385 120H375V130H385V120Z" fill="#FFC110"/>
<path d="M405 120H385V130H405V120Z" fill="white"/>
<path d="M425 120H405V130H425V120Z" fill="black"/>
<path d="M435 120H425V130H435V120Z" fill="#FFC110"/>
<path d="M455 120H445V130H455V120Z" fill="#F98F30"/>
<path d="M475 120H455V130H475V120Z" fill="white"/>
<path d="M495 120H475V130H495V120Z" fill="black"/>
<path d="M505 120H495V130H505V120Z" fill="#F98F30"/>
<path d="M375 130H345V140H375V130Z" fill="#F78A18"/>
<path d="M385 130H375V140H385V130Z" fill="#FFC110"/>
<path d="M405 130H385V140H405V130Z" fill="white"/>
<path d="M425 130H405V140H425V130Z" fill="black"/>
<path d="M435 130H425V140H435V130Z" fill="#FFC110"/>
<path d="M445 130H435V140H445V130Z" fill="#F78A18"/>
<path d="M455 130H445V140H455V130Z" fill="#F98F30"/>
<path d="M475 130H455V140H475V130Z" fill="white"/>
<path d="M495 130H475V140H495V130Z" fill="black"/>
<path d="M505 130H495V140H505V130Z" fill="#F98F30"/>
<path d="M355 140H345V150H355V140Z" fill="#FFC110"/>
<path d="M385 140H375V150H385V140Z" fill="#FFC110"/>
<path d="M405 140H385V150H405V140Z" fill="white"/>
<path d="M425 140H405V150H425V140Z" fill="black"/>
<path d="M435 140H425V150H435V140Z" fill="#FFC110"/>
<path d="M455 140H445V150H455V140Z" fill="#F98F30"/>
<path d="M475 140H455V150H475V140Z" fill="white"/>
<path d="M495 140H475V150H495V140Z" fill="black"/>
<path d="M505 140H495V150H505V140Z" fill="#F98F30"/>
<path d="M355 150H345V160H355V150Z" fill="#FFC110"/>
<path d="M385 150H375V160H385V150Z" fill="#FFC110"/>
<path d="M405 150H385V160H405V150Z" fill="white"/>
<path d="M425 150H405V160H425V150Z" fill="black"/>
<path d="M435 150H425V160H435V150Z" fill="#FFC110"/>
<path d="M455 150H445V160H455V150Z" fill="#F98F30"/>
<path d="M475 150H455V160H475V150Z" fill="white"/>
<path d="M495 150H475V160H495V150Z" fill="black"/>
<path d="M505 150H495V160H505V150Z" fill="#F98F30"/>
<path d="M435 160H375V170H435V160Z" fill="#FFC110"/>
<path d="M505 160H445V170H505V160Z" fill="#F98F30"/>
</svg>
