<svg width="593" height="309" viewBox="0 0 593 309" fill="none" xmlns="http://www.w3.org/2000/svg">
<path d="M1 0.56958H0V1.53198H1V0.56958Z" fill="#E1D7D5"/>
<path d="M230 202.661H90V212.284H230V202.661Z" fill="#807F7E"/>
<path d="M230 212.284H90V221.908H230V212.284Z" fill="#807F7E"/>
<path d="M230 221.908H90V231.531H230V221.908Z" fill="#807F7E"/>
<path d="M230 231.531H90V241.155H230V231.531Z" fill="#807F7E"/>
<path d="M110 241.155H90V250.778H110V241.155Z" fill="#807F7E"/>
<path d="M230 241.155H120V250.778H230V241.155Z" fill="#807F7E"/>
<path d="M110 250.778H90V260.401H110V250.778Z" fill="#807F7E"/>
<path d="M230 250.778H120V260.401H230V250.778Z" fill="#807F7E"/>
<path d="M110 260.401H90V270.025H110V260.401Z" fill="#807F7E"/>
<path d="M230 260.401H120V270.025H230V260.401Z" fill="#807F7E"/>
<path d="M110 270.025H90V279.648H110V270.025Z" fill="#807F7E"/>
<path d="M230 270.025H120V279.648H230V270.025Z" fill="#807F7E"/>
<path d="M110 279.648H90V289.271H110V279.648Z" fill="#807F7E"/>
<path d="M230 279.648H120V289.271H230V279.648Z" fill="#807F7E"/>
<path d="M110 289.271H90V298.895H110V289.271Z" fill="#807F7E"/>
<path d="M230 289.271H120V298.895H230V289.271Z" fill="#807F7E"/>
<path d="M110 298.895H90V308.518H110V298.895Z" fill="#807F7E"/>
<path d="M230 298.895H120V308.518H230V298.895Z" fill="#807F7E"/>
<path d="M150 221.908H140V231.531H150V221.908Z" fill="#C4DA53"/>
<path d="M170 221.908H160V231.531H170V221.908Z" fill="#C4DA53"/>
<path d="M150 241.155H130V250.778H150V241.155Z" fill="#C4DA53"/>
<path d="M180 241.155H160V250.778H180V241.155Z" fill="#C4DA53"/>
<path d="M150 260.401H130V270.025H150V260.401Z" fill="#C4DA53"/>
<path d="M180 260.401H160V270.025H180V260.401Z" fill="#C4DA53"/>
<path d="M150 279.648H130V289.271H150V279.648Z" fill="#C4DA53"/>
<path d="M170 279.648H160V289.271H170V279.648Z" fill="#C4DA53"/>
<path d="M150 289.271H140V298.895H150V289.271Z" fill="#C4DA53"/>
<path d="M140 29.4398H130V39.0631H140V29.4398Z" fill="#068940"/>
<path d="M170 29.4398H150V39.0631H170V29.4398Z" fill="#3F9323"/>
<path d="M190 29.4398H180V39.0631H190V29.4398Z" fill="#068940"/>
<path d="M120 39.0631H110V48.6866H120V39.0631Z" fill="#3F9323"/>
<path d="M150 39.0631H130V48.6866H150V39.0631Z" fill="#068940"/>
<path d="M170 39.0631H150V48.6866H170V39.0631Z" fill="#3F9323"/>
<path d="M190 39.0631H170V48.6866H190V39.0631Z" fill="#068940"/>
<path d="M210 39.0631H200V48.6866H210V39.0631Z" fill="#3F9323"/>
<path d="M140 48.6866H110V58.3099H140V48.6866Z" fill="#3F9323"/>
<path d="M150 48.6866H140V58.3099H150V48.6866Z" fill="#068940"/>
<path d="M170 48.6866H150V58.3099H170V48.6866Z" fill="#3F9323"/>
<path d="M180 48.6866H170V58.3099H180V48.6866Z" fill="#068940"/>
<path d="M210 48.6866H180V58.3099H210V48.6866Z" fill="#3F9323"/>
<path d="M190 58.3099H130V67.9333H190V58.3099Z" fill="#3F9323"/>
<path d="M130 67.9333H110V77.5568H130V67.9333Z" fill="#FFEF16"/>
<path d="M150 67.9333H130V77.5568H150V67.9333Z" fill="#FFC110"/>
<path d="M170 67.9333H150V77.5568H170V67.9333Z" fill="#FFEF16"/>
<path d="M190 67.9333H170V77.5568H190V67.9333Z" fill="#FFC110"/>
<path d="M210 67.9333H190V77.5568H210V67.9333Z" fill="#FFEF16"/>
<path d="M110 77.5568H90V87.1802H110V77.5568Z" fill="#FFEF16"/>
<path d="M130 77.5568H110V87.1802H130V77.5568Z" fill="#FFC110"/>
<path d="M150 77.5568H130V87.1802H150V77.5568Z" fill="#FFEF16"/>
<path d="M170 77.5568H150V87.1802H170V77.5568Z" fill="#FFC110"/>
<path d="M190 77.5568H170V87.1802H190V77.5568Z" fill="#FFEF16"/>
<path d="M210 77.5568H190V87.1802H210V77.5568Z" fill="#FFC110"/>
<path d="M230 77.5568H210V87.1802H230V77.5568Z" fill="#FFEF16"/>
<path d="M110 87.1802H90V96.8036H110V87.1802Z" fill="#FFEF16"/>
<path d="M130 87.1802H110V96.8036H130V87.1802Z" fill="#FFC110"/>
<path d="M150 87.1802H130V96.8036H150V87.1802Z" fill="#FFEF16"/>
<path d="M170 87.1802H150V96.8036H170V87.1802Z" fill="#FFC110"/>
<path d="M190 87.1802H170V96.8036H190V87.1802Z" fill="#FFEF16"/>
<path d="M210 87.1802H190V96.8036H210V87.1802Z" fill="#FFC110"/>
<path d="M230 87.1802H210V96.8036H230V87.1802Z" fill="#FFEF16"/>
<path d="M90 96.8036H80V106.427H90V96.8036Z" fill="#FFEF16"/>
<path d="M110 96.8036H90V106.427H110V96.8036Z" fill="#FFC110"/>
<path d="M130 96.8036H110V106.427H130V96.8036Z" fill="#FFEF16"/>
<path d="M150 96.8036H130V106.427H150V96.8036Z" fill="#FFC110"/>
<path d="M170 96.8036H150V106.427H170V96.8036Z" fill="#FFEF16"/>
<path d="M190 96.8036H170V106.427H190V96.8036Z" fill="#FFC110"/>
<path d="M210 96.8036H190V106.427H210V96.8036Z" fill="#FFEF16"/>
<path d="M230 96.8036H210V106.427H230V96.8036Z" fill="#FFC110"/>
<path d="M240 96.8036H230V106.427H240V96.8036Z" fill="#FFEF16"/>
<path d="M90 106.427H80V116.05H90V106.427Z" fill="#FFEF16"/>
<path d="M110 106.427H90V116.05H110V106.427Z" fill="#FFC110"/>
<path d="M130 106.427H110V116.05H130V106.427Z" fill="#FFEF16"/>
<path d="M150 106.427H130V116.05H150V106.427Z" fill="#FFC110"/>
<path d="M170 106.427H150V116.05H170V106.427Z" fill="#FFEF16"/>
<path d="M190 106.427H170V116.05H190V106.427Z" fill="#FFC110"/>
<path d="M210 106.427H190V116.05H210V106.427Z" fill="#FFEF16"/>
<path d="M230 106.427H210V116.05H230V106.427Z" fill="#FFC110"/>
<path d="M240 106.427H230V116.05H240V106.427Z" fill="#FFEF16"/>
<path d="M90 116.05H80V125.674H90V116.05Z" fill="#FFC110"/>
<path d="M110 116.05H90V125.674H110V116.05Z" fill="#FFEF16"/>
<path d="M130 116.05H110V125.674H130V116.05Z" fill="#FFC110"/>
<path d="M150 116.05H130V125.674H150V116.05Z" fill="#FFEF16"/>
<path d="M170 116.05H150V125.674H170V116.05Z" fill="#FFC110"/>
<path d="M190 116.05H170V125.674H190V116.05Z" fill="#FFEF16"/>
<path d="M210 116.05H190V125.674H210V116.05Z" fill="#FFC110"/>
<path d="M230 116.05H210V125.674H230V116.05Z" fill="#FFEF16"/>
<path d="M240 116.05H230V125.674H240V116.05Z" fill="#FFC110"/>
<path d="M90 125.674H80V135.297H90V125.674Z" fill="#FFC110"/>
<path d="M110 125.674H90V135.297H110V125.674Z" fill="#FFEF16"/>
<path d="M130 125.674H110V135.297H130V125.674Z" fill="#FFC110"/>
<path d="M150 125.674H130V135.297H150V125.674Z" fill="#FFEF16"/>
<path d="M170 125.674H150V135.297H170V125.674Z" fill="#FFC110"/>
<path d="M190 125.674H170V135.297H190V125.674Z" fill="#FFEF16"/>
<path d="M210 125.674H190V135.297H210V125.674Z" fill="#FFC110"/>
<path d="M230 125.674H210V135.297H230V125.674Z" fill="#FFEF16"/>
<path d="M240 125.674H230V135.297H240V125.674Z" fill="#FFC110"/>
<path d="M250 135.297H80V144.921H250V135.297Z" fill="#FFC110"/>
<path d="M240 144.921H80V154.544H240V144.921Z" fill="#FFC110"/>
<path d="M240 154.544H80V164.167H240V154.544Z" fill="#FFC110"/>
<path d="M250 164.167H70V173.791H250V164.167Z" fill="#FFC110"/>
<path d="M100 173.791H80V183.414H100V173.791Z" fill="#FFC110"/>
<path d="M130 173.791H100V183.414H130V173.791Z" fill="#F78A18"/>
<path d="M140 173.791H130V183.414H140V173.791Z" fill="#FFC110"/>
<path d="M180 173.791H140V183.414H180V173.791Z" fill="#F78A18"/>
<path d="M190 173.791H180V183.414H190V173.791Z" fill="#FFC110"/>
<path d="M220 173.791H190V183.414H220V173.791Z" fill="#F78A18"/>
<path d="M240 173.791H220V183.414H240V173.791Z" fill="#FFC110"/>
<path d="M100 183.414H80V193.037H100V183.414Z" fill="#FFC110"/>
<path d="M130 183.414H100V193.037H130V183.414Z" fill="#F78A18"/>
<path d="M140 183.414H130V193.037H140V183.414Z" fill="#FFC110"/>
<path d="M180 183.414H140V193.037H180V183.414Z" fill="#F78A18"/>
<path d="M190 183.414H180V193.037H190V183.414Z" fill="#FFC110"/>
<path d="M220 183.414H190V193.037H220V183.414Z" fill="#F78A18"/>
<path d="M240 183.414H220V193.037H240V183.414Z" fill="#FFC110"/>
<path d="M230 193.037H90V202.661H230V193.037Z" fill="#FFC110"/>
<path d="M160 106.427H100V116.05H160V106.427Z" fill="#FFEF16"/>
<path d="M230 106.427H170V116.05H230V106.427Z" fill="#FFEF16"/>
<path d="M110 116.05H100V125.674H110V116.05Z" fill="#FFEF16"/>
<path d="M130 116.05H110V125.674H130V116.05Z" fill="white"/>
<path d="M150 116.05H130V125.674H150V116.05Z" fill="black"/>
<path d="M160 116.05H150V125.674H160V116.05Z" fill="#FFEF16"/>
<path d="M180 116.05H170V125.674H180V116.05Z" fill="#FFEF16"/>
<path d="M200 116.05H180V125.674H200V116.05Z" fill="white"/>
<path d="M220 116.05H200V125.674H220V116.05Z" fill="black"/>
<path d="M230 116.05H220V125.674H230V116.05Z" fill="#FFEF16"/>
<path d="M110 125.674H70V135.297H110V125.674Z" fill="#FFEF16"/>
<path d="M130 125.674H110V135.297H130V125.674Z" fill="white"/>
<path d="M150 125.674H130V135.297H150V125.674Z" fill="black"/>
<path d="M180 125.674H150V135.297H180V125.674Z" fill="#FFEF16"/>
<path d="M200 125.674H180V135.297H200V125.674Z" fill="white"/>
<path d="M220 125.674H200V135.297H220V125.674Z" fill="black"/>
<path d="M230 125.674H220V135.297H230V125.674Z" fill="#FFEF16"/>
<path d="M80 135.297H70V144.921H80V135.297Z" fill="#FFEF16"/>
<path d="M110 135.297H100V144.921H110V135.297Z" fill="#FFEF16"/>
<path d="M130 135.297H110V144.921H130V135.297Z" fill="white"/>
<path d="M150 135.297H130V144.921H150V135.297Z" fill="black"/>
<path d="M160 135.297H150V144.921H160V135.297Z" fill="#FFEF16"/>
<path d="M180 135.297H170V144.921H180V135.297Z" fill="#FFEF16"/>
<path d="M200 135.297H180V144.921H200V135.297Z" fill="white"/>
<path d="M220 135.297H200V144.921H220V135.297Z" fill="black"/>
<path d="M230 135.297H220V144.921H230V135.297Z" fill="#FFEF16"/>
<path d="M80 144.921H70V154.544H80V144.921Z" fill="#FFEF16"/>
<path d="M110 144.921H100V154.544H110V144.921Z" fill="#FFEF16"/>
<path d="M130 144.921H110V154.544H130V144.921Z" fill="white"/>
<path d="M150 144.921H130V154.544H150V144.921Z" fill="black"/>
<path d="M160 144.921H150V154.544H160V144.921Z" fill="#FFEF16"/>
<path d="M180 144.921H170V154.544H180V144.921Z" fill="#FFEF16"/>
<path d="M200 144.921H180V154.544H200V144.921Z" fill="white"/>
<path d="M220 144.921H200V154.544H220V144.921Z" fill="black"/>
<path d="M230 144.921H220V154.544H230V144.921Z" fill="#FFEF16"/>
<path d="M160 154.544H100V164.167H160V154.544Z" fill="#FFEF16"/>
<path d="M230 154.544H170V164.167H230V154.544Z" fill="#FFEF16"/>
<path d="M304 0.56958H303V1.53198H304V0.56958Z" fill="#E1D7D5"/>
<path d="M533 202.661H393V212.284H533V202.661Z" fill="#5A423F"/>
<path d="M533 212.284H393V221.908H533V212.284Z" fill="#5A423F"/>
<path d="M533 221.908H393V231.531H533V221.908Z" fill="#5A423F"/>
<path d="M533 231.531H393V241.155H533V231.531Z" fill="#5A423F"/>
<path d="M413 241.155H393V250.778H413V241.155Z" fill="#5A423F"/>
<path d="M533 241.155H423V250.778H533V241.155Z" fill="#5A423F"/>
<path d="M413 250.778H393V260.401H413V250.778Z" fill="#5A423F"/>
<path d="M533 250.778H423V260.401H533V250.778Z" fill="#5A423F"/>
<path d="M413 260.401H393V270.025H413V260.401Z" fill="#5A423F"/>
<path d="M533 260.401H423V270.025H533V260.401Z" fill="#5A423F"/>
<path d="M413 270.025H393V279.648H413V270.025Z" fill="#5A423F"/>
<path d="M533 270.025H423V279.648H533V270.025Z" fill="#5A423F"/>
<path d="M413 279.648H393V289.271H413V279.648Z" fill="#5A423F"/>
<path d="M533 279.648H423V289.271H533V279.648Z" fill="#5A423F"/>
<path d="M413 289.271H393V298.895H413V289.271Z" fill="#5A423F"/>
<path d="M533 289.271H423V298.895H533V289.271Z" fill="#5A423F"/>
<path d="M413 298.895H393V308.518H413V298.895Z" fill="#5A423F"/>
<path d="M533 298.895H423V308.518H533V298.895Z" fill="#5A423F"/>
<path d="M463 231.531H443V241.155H463V231.531Z" fill="#D8DADF"/>
<path d="M493 231.531H473V241.155H493V231.531Z" fill="#D8DADF"/>
<path d="M503 241.155H433V250.778H503V241.155Z" fill="#D8DADF"/>
<path d="M503 250.778H433V260.401H503V250.778Z" fill="#D8DADF"/>
<path d="M493 260.401H443V270.025H493V260.401Z" fill="#D8DADF"/>
<path d="M483 270.025H453V279.648H483V270.025Z" fill="#D8DADF"/>
<path d="M473 279.648H463V289.271H473V279.648Z" fill="#D8DADF"/>
<path d="M403 48.6866H373V58.3099H403V48.6866Z" fill="#757576"/>
<path d="M373 58.3099H363V67.9333H373V58.3099Z" fill="#757576"/>
<path d="M413 58.3099H403V67.9333H413V58.3099Z" fill="#757576"/>
<path d="M373 67.9333H363V77.5568H373V67.9333Z" fill="#757576"/>
<path d="M413 67.9333H403V77.5568H413V67.9333Z" fill="#757576"/>
<path d="M423 77.5568H343V87.1802H423V77.5568Z" fill="#757576"/>
<path d="M453 77.5568H443V87.1802H453V77.5568Z" fill="#343235"/>
<path d="M483 77.5568H473V87.1802H483V77.5568Z" fill="#343235"/>
<path d="M513 77.5568H503V87.1802H513V77.5568Z" fill="#343235"/>
<path d="M543 77.5568H533V87.1802H543V77.5568Z" fill="#343235"/>
<path d="M423 87.1802H343V96.8036H423V87.1802Z" fill="#757576"/>
<path d="M433 87.1802H423V96.8036H433V87.1802Z" fill="#343235"/>
<path d="M463 87.1802H443V96.8036H463V87.1802Z" fill="#343235"/>
<path d="M493 87.1802H473V96.8036H493V87.1802Z" fill="#343235"/>
<path d="M523 87.1802H503V96.8036H523V87.1802Z" fill="#343235"/>
<path d="M553 87.1802H533V96.8036H553V87.1802Z" fill="#343235"/>
<path d="M423 96.8036H343V106.427H423V96.8036Z" fill="#757576"/>
<path d="M443 96.8036H423V106.427H443V96.8036Z" fill="#343235"/>
<path d="M463 96.8036H443V106.427H463V96.8036Z" fill="#757576"/>
<path d="M473 96.8036H463V106.427H473V96.8036Z" fill="#343235"/>
<path d="M493 96.8036H473V106.427H493V96.8036Z" fill="#757576"/>
<path d="M503 96.8036H493V106.427H503V96.8036Z" fill="#343235"/>
<path d="M523 96.8036H503V106.427H523V96.8036Z" fill="#757576"/>
<path d="M533 96.8036H523V106.427H533V96.8036Z" fill="#343235"/>
<path d="M553 96.8036H533V106.427H553V96.8036Z" fill="#757576"/>
<path d="M573 96.8036H553V106.427H573V96.8036Z" fill="#343235"/>
<path d="M363 106.427H353V116.05H363V106.427Z" fill="#343235"/>
<path d="M423 106.427H363V116.05H423V106.427Z" fill="#757576"/>
<path d="M563 106.427H423V116.05H563V106.427Z" fill="#343235"/>
<path d="M573 106.427H563V116.05H573V106.427Z" fill="#757576"/>
<path d="M593 106.427H573V116.05H593V106.427Z" fill="#343235"/>
<path d="M423 116.05H343V125.674H423V116.05Z" fill="#757576"/>
<path d="M563 116.05H423V125.674H563V116.05Z" fill="#343235"/>
<path d="M573 116.05H563V125.674H573V116.05Z" fill="#757576"/>
<path d="M583 116.05H573V125.674H583V116.05Z" fill="#343235"/>
<path d="M363 125.674H353V135.297H363V125.674Z" fill="#343235"/>
<path d="M423 125.674H363V135.297H423V125.674Z" fill="#757576"/>
<path d="M573 125.674H423V135.297H573V125.674Z" fill="#343235"/>
<path d="M423 135.297H343V144.921H423V135.297Z" fill="#757576"/>
<path d="M563 135.297H423V144.921H563V135.297Z" fill="#343235"/>
<path d="M573 135.297H563V144.921H573V135.297Z" fill="#757576"/>
<path d="M593 135.297H573V144.921H593V135.297Z" fill="#343235"/>
<path d="M363 144.921H353V154.544H363V144.921Z" fill="#343235"/>
<path d="M423 144.921H363V154.544H423V144.921Z" fill="#757576"/>
<path d="M563 144.921H423V154.544H563V144.921Z" fill="#343235"/>
<path d="M573 144.921H563V154.544H573V144.921Z" fill="#757576"/>
<path d="M583 144.921H573V154.544H583V144.921Z" fill="#343235"/>
<path d="M423 154.544H343V164.167H423V154.544Z" fill="#757576"/>
<path d="M573 154.544H423V164.167H573V154.544Z" fill="#343235"/>
<path d="M423 164.167H343V173.791H423V164.167Z" fill="#757576"/>
<path d="M563 164.167H423V173.791H563V164.167Z" fill="#343235"/>
<path d="M573 164.167H563V173.791H573V164.167Z" fill="#757576"/>
<path d="M593 164.167H573V173.791H593V164.167Z" fill="#343235"/>
<path d="M373 173.791H343V183.414H373V173.791Z" fill="#757576"/>
<path d="M383 173.791H373V183.414H383V173.791Z" fill="white"/>
<path d="M393 173.791H383V183.414H393V173.791Z" fill="#343235"/>
<path d="M403 173.791H393V183.414H403V173.791Z" fill="white"/>
<path d="M413 173.791H403V183.414H413V173.791Z" fill="#343235"/>
<path d="M423 173.791H413V183.414H423V173.791Z" fill="#757576"/>
<path d="M563 173.791H423V183.414H563V173.791Z" fill="#343235"/>
<path d="M573 173.791H563V183.414H573V173.791Z" fill="#757576"/>
<path d="M583 173.791H573V183.414H583V173.791Z" fill="#343235"/>
<path d="M373 183.414H353V193.037H373V183.414Z" fill="#757576"/>
<path d="M383 183.414H373V193.037H383V183.414Z" fill="#343235"/>
<path d="M393 183.414H383V193.037H393V183.414Z" fill="white"/>
<path d="M403 183.414H393V193.037H403V183.414Z" fill="#343235"/>
<path d="M413 183.414H403V193.037H413V183.414Z" fill="white"/>
<path d="M423 183.414H413V193.037H423V183.414Z" fill="#757576"/>
<path d="M573 183.414H423V193.037H573V183.414Z" fill="#343235"/>
<path d="M443 193.037H363V202.661H443V193.037Z" fill="#757576"/>
<path d="M453 193.037H443V202.661H453V193.037Z" fill="#343235"/>
<path d="M473 193.037H453V202.661H473V193.037Z" fill="#757576"/>
<path d="M483 193.037H473V202.661H483V193.037Z" fill="#343235"/>
<path d="M503 193.037H483V202.661H503V193.037Z" fill="#757576"/>
<path d="M513 193.037H503V202.661H513V193.037Z" fill="#343235"/>
<path d="M533 193.037H513V202.661H533V193.037Z" fill="#757576"/>
<path d="M543 193.037H533V202.661H543V193.037Z" fill="#343235"/>
<path d="M563 193.037H543V202.661H563V193.037Z" fill="#757576"/>
<path d="M573 193.037H563V202.661H573V193.037Z" fill="#343235"/>
<path d="M423 202.661H373V212.284H423V202.661Z" fill="#757576"/>
<path d="M443 202.661H423V212.284H443V202.661Z" fill="#343235"/>
<path d="M473 202.661H453V212.284H473V202.661Z" fill="#343235"/>
<path d="M503 202.661H483V212.284H503V202.661Z" fill="#343235"/>
<path d="M533 202.661H513V212.284H533V202.661Z" fill="#343235"/>
<path d="M563 202.661H543V212.284H563V202.661Z" fill="#343235"/>
<path d="M423 212.284H383V221.908H423V212.284Z" fill="#757576"/>
<path d="M443 212.284H433V221.908H443V212.284Z" fill="#343235"/>
<path d="M473 212.284H463V221.908H473V212.284Z" fill="#343235"/>
<path d="M503 212.284H493V221.908H503V212.284Z" fill="#343235"/>
<path d="M533 212.284H523V221.908H533V212.284Z" fill="#343235"/>
<path d="M563 212.284H553V221.908H563V212.284Z" fill="#343235"/>
<path d="M463 106.427H403V116.05H463V106.427Z" fill="#FFC110"/>
<path d="M533 106.427H473V116.05H533V106.427Z" fill="#F98F30"/>
<path d="M413 116.05H403V125.674H413V116.05Z" fill="#FFC110"/>
<path d="M433 116.05H413V125.674H433V116.05Z" fill="white"/>
<path d="M453 116.05H433V125.674H453V116.05Z" fill="black"/>
<path d="M463 116.05H453V125.674H463V116.05Z" fill="#FFC110"/>
<path d="M483 116.05H473V125.674H483V116.05Z" fill="#F98F30"/>
<path d="M503 116.05H483V125.674H503V116.05Z" fill="white"/>
<path d="M523 116.05H503V125.674H523V116.05Z" fill="black"/>
<path d="M533 116.05H523V125.674H533V116.05Z" fill="#F98F30"/>
<path d="M403 125.674H373V135.297H403V125.674Z" fill="#F78A18"/>
<path d="M413 125.674H403V135.297H413V125.674Z" fill="#FFC110"/>
<path d="M433 125.674H413V135.297H433V125.674Z" fill="white"/>
<path d="M453 125.674H433V135.297H453V125.674Z" fill="black"/>
<path d="M463 125.674H453V135.297H463V125.674Z" fill="#FFC110"/>
<path d="M473 125.674H463V135.297H473V125.674Z" fill="#F78A18"/>
<path d="M483 125.674H473V135.297H483V125.674Z" fill="#F98F30"/>
<path d="M503 125.674H483V135.297H503V125.674Z" fill="white"/>
<path d="M523 125.674H503V135.297H523V125.674Z" fill="black"/>
<path d="M533 125.674H523V135.297H533V125.674Z" fill="#F98F30"/>
<path d="M383 135.297H373V144.921H383V135.297Z" fill="#FFC110"/>
<path d="M413 135.297H403V144.921H413V135.297Z" fill="#FFC110"/>
<path d="M433 135.297H413V144.921H433V135.297Z" fill="white"/>
<path d="M453 135.297H433V144.921H453V135.297Z" fill="black"/>
<path d="M463 135.297H453V144.921H463V135.297Z" fill="#FFC110"/>
<path d="M483 135.297H473V144.921H483V135.297Z" fill="#F98F30"/>
<path d="M503 135.297H483V144.921H503V135.297Z" fill="white"/>
<path d="M523 135.297H503V144.921H523V135.297Z" fill="black"/>
<path d="M533 135.297H523V144.921H533V135.297Z" fill="#F98F30"/>
<path d="M383 144.921H373V154.544H383V144.921Z" fill="#FFC110"/>
<path d="M413 144.921H403V154.544H413V144.921Z" fill="#FFC110"/>
<path d="M433 144.921H413V154.544H433V144.921Z" fill="white"/>
<path d="M453 144.921H433V154.544H453V144.921Z" fill="black"/>
<path d="M463 144.921H453V154.544H463V144.921Z" fill="#FFC110"/>
<path d="M483 144.921H473V154.544H483V144.921Z" fill="#F98F30"/>
<path d="M503 144.921H483V154.544H503V144.921Z" fill="white"/>
<path d="M523 144.921H503V154.544H523V144.921Z" fill="black"/>
<path d="M533 144.921H523V154.544H533V144.921Z" fill="#F98F30"/>
<path d="M463 154.544H403V164.167H463V154.544Z" fill="#FFC110"/>
<path d="M533 154.544H473V164.167H533V154.544Z" fill="#F98F30"/>
</svg>
