<svg width="930" height="325" viewBox="0 0 930 325" fill="none" xmlns="http://www.w3.org/2000/svg">
<path d="M1 16.5696H0V17.532H1V16.5696Z" fill="#E1D7D5"/>
<path d="M230 218.661H90V228.284H230V218.661Z" fill="#807F7E"/>
<path d="M230 228.284H90V237.908H230V228.284Z" fill="#807F7E"/>
<path d="M230 237.908H90V247.531H230V237.908Z" fill="#807F7E"/>
<path d="M230 247.531H90V257.155H230V247.531Z" fill="#807F7E"/>
<path d="M110 257.155H90V266.778H110V257.155Z" fill="#807F7E"/>
<path d="M230 257.155H120V266.778H230V257.155Z" fill="#807F7E"/>
<path d="M110 266.778H90V276.401H110V266.778Z" fill="#807F7E"/>
<path d="M230 266.778H120V276.401H230V266.778Z" fill="#807F7E"/>
<path d="M110 276.401H90V286.025H110V276.401Z" fill="#807F7E"/>
<path d="M230 276.401H120V286.025H230V276.401Z" fill="#807F7E"/>
<path d="M110 286.025H90V295.648H110V286.025Z" fill="#807F7E"/>
<path d="M230 286.025H120V295.648H230V286.025Z" fill="#807F7E"/>
<path d="M110 295.648H90V305.271H110V295.648Z" fill="#807F7E"/>
<path d="M230 295.648H120V305.271H230V295.648Z" fill="#807F7E"/>
<path d="M110 305.271H90V314.895H110V305.271Z" fill="#807F7E"/>
<path d="M230 305.271H120V314.895H230V305.271Z" fill="#807F7E"/>
<path d="M110 314.895H90V324.518H110V314.895Z" fill="#807F7E"/>
<path d="M230 314.895H120V324.518H230V314.895Z" fill="#807F7E"/>
<path d="M150 237.908H140V247.531H150V237.908Z" fill="#C4DA53"/>
<path d="M170 237.908H160V247.531H170V237.908Z" fill="#C4DA53"/>
<path d="M150 257.155H130V266.778H150V257.155Z" fill="#C4DA53"/>
<path d="M180 257.155H160V266.778H180V257.155Z" fill="#C4DA53"/>
<path d="M150 276.401H130V286.025H150V276.401Z" fill="#C4DA53"/>
<path d="M180 276.401H160V286.025H180V276.401Z" fill="#C4DA53"/>
<path d="M150 295.648H130V305.271H150V295.648Z" fill="#C4DA53"/>
<path d="M170 295.648H160V305.271H170V295.648Z" fill="#C4DA53"/>
<path d="M150 305.271H140V314.895H150V305.271Z" fill="#C4DA53"/>
<path d="M140 45.4398H130V55.0631H140V45.4398Z" fill="#068940"/>
<path d="M170 45.4398H150V55.0631H170V45.4398Z" fill="#3F9323"/>
<path d="M190 45.4398H180V55.0631H190V45.4398Z" fill="#068940"/>
<path d="M120 55.0631H110V64.6866H120V55.0631Z" fill="#3F9323"/>
<path d="M150 55.0631H130V64.6866H150V55.0631Z" fill="#068940"/>
<path d="M170 55.0631H150V64.6866H170V55.0631Z" fill="#3F9323"/>
<path d="M190 55.0631H170V64.6866H190V55.0631Z" fill="#068940"/>
<path d="M210 55.0631H200V64.6866H210V55.0631Z" fill="#3F9323"/>
<path d="M140 64.6866H110V74.3099H140V64.6866Z" fill="#3F9323"/>
<path d="M150 64.6866H140V74.3099H150V64.6866Z" fill="#068940"/>
<path d="M170 64.6866H150V74.3099H170V64.6866Z" fill="#3F9323"/>
<path d="M180 64.6866H170V74.3099H180V64.6866Z" fill="#068940"/>
<path d="M210 64.6866H180V74.3099H210V64.6866Z" fill="#3F9323"/>
<path d="M190 74.3099H130V83.9333H190V74.3099Z" fill="#3F9323"/>
<path d="M130 83.9333H110V93.5568H130V83.9333Z" fill="#FFEF16"/>
<path d="M150 83.9333H130V93.5568H150V83.9333Z" fill="#FFC110"/>
<path d="M170 83.9333H150V93.5568H170V83.9333Z" fill="#FFEF16"/>
<path d="M190 83.9333H170V93.5568H190V83.9333Z" fill="#FFC110"/>
<path d="M210 83.9333H190V93.5568H210V83.9333Z" fill="#FFEF16"/>
<path d="M110 93.5568H90V103.18H110V93.5568Z" fill="#FFEF16"/>
<path d="M130 93.5568H110V103.18H130V93.5568Z" fill="#FFC110"/>
<path d="M150 93.5568H130V103.18H150V93.5568Z" fill="#FFEF16"/>
<path d="M170 93.5568H150V103.18H170V93.5568Z" fill="#FFC110"/>
<path d="M190 93.5568H170V103.18H190V93.5568Z" fill="#FFEF16"/>
<path d="M210 93.5568H190V103.18H210V93.5568Z" fill="#FFC110"/>
<path d="M230 93.5568H210V103.18H230V93.5568Z" fill="#FFEF16"/>
<path d="M110 103.18H90V112.804H110V103.18Z" fill="#FFEF16"/>
<path d="M130 103.18H110V112.804H130V103.18Z" fill="#FFC110"/>
<path d="M150 103.18H130V112.804H150V103.18Z" fill="#FFEF16"/>
<path d="M170 103.18H150V112.804H170V103.18Z" fill="#FFC110"/>
<path d="M190 103.18H170V112.804H190V103.18Z" fill="#FFEF16"/>
<path d="M210 103.18H190V112.804H210V103.18Z" fill="#FFC110"/>
<path d="M230 103.18H210V112.804H230V103.18Z" fill="#FFEF16"/>
<path d="M90 112.804H80V122.427H90V112.804Z" fill="#FFEF16"/>
<path d="M110 112.804H90V122.427H110V112.804Z" fill="#FFC110"/>
<path d="M130 112.804H110V122.427H130V112.804Z" fill="#FFEF16"/>
<path d="M150 112.804H130V122.427H150V112.804Z" fill="#FFC110"/>
<path d="M170 112.804H150V122.427H170V112.804Z" fill="#FFEF16"/>
<path d="M190 112.804H170V122.427H190V112.804Z" fill="#FFC110"/>
<path d="M210 112.804H190V122.427H210V112.804Z" fill="#FFEF16"/>
<path d="M230 112.804H210V122.427H230V112.804Z" fill="#FFC110"/>
<path d="M240 112.804H230V122.427H240V112.804Z" fill="#FFEF16"/>
<path d="M90 122.427H80V132.05H90V122.427Z" fill="#FFEF16"/>
<path d="M110 122.427H90V132.05H110V122.427Z" fill="#FFC110"/>
<path d="M130 122.427H110V132.05H130V122.427Z" fill="#FFEF16"/>
<path d="M150 122.427H130V132.05H150V122.427Z" fill="#FFC110"/>
<path d="M170 122.427H150V132.05H170V122.427Z" fill="#FFEF16"/>
<path d="M190 122.427H170V132.05H190V122.427Z" fill="#FFC110"/>
<path d="M210 122.427H190V132.05H210V122.427Z" fill="#FFEF16"/>
<path d="M230 122.427H210V132.05H230V122.427Z" fill="#FFC110"/>
<path d="M240 122.427H230V132.05H240V122.427Z" fill="#FFEF16"/>
<path d="M90 132.05H80V141.674H90V132.05Z" fill="#FFC110"/>
<path d="M110 132.05H90V141.674H110V132.05Z" fill="#FFEF16"/>
<path d="M130 132.05H110V141.674H130V132.05Z" fill="#FFC110"/>
<path d="M150 132.05H130V141.674H150V132.05Z" fill="#FFEF16"/>
<path d="M170 132.05H150V141.674H170V132.05Z" fill="#FFC110"/>
<path d="M190 132.05H170V141.674H190V132.05Z" fill="#FFEF16"/>
<path d="M210 132.05H190V141.674H210V132.05Z" fill="#FFC110"/>
<path d="M230 132.05H210V141.674H230V132.05Z" fill="#FFEF16"/>
<path d="M240 132.05H230V141.674H240V132.05Z" fill="#FFC110"/>
<path d="M90 141.674H80V151.297H90V141.674Z" fill="#FFC110"/>
<path d="M110 141.674H90V151.297H110V141.674Z" fill="#FFEF16"/>
<path d="M130 141.674H110V151.297H130V141.674Z" fill="#FFC110"/>
<path d="M150 141.674H130V151.297H150V141.674Z" fill="#FFEF16"/>
<path d="M170 141.674H150V151.297H170V141.674Z" fill="#FFC110"/>
<path d="M190 141.674H170V151.297H190V141.674Z" fill="#FFEF16"/>
<path d="M210 141.674H190V151.297H210V141.674Z" fill="#FFC110"/>
<path d="M230 141.674H210V151.297H230V141.674Z" fill="#FFEF16"/>
<path d="M240 141.674H230V151.297H240V141.674Z" fill="#FFC110"/>
<path d="M250 151.297H80V160.921H250V151.297Z" fill="#FFC110"/>
<path d="M240 160.921H80V170.544H240V160.921Z" fill="#FFC110"/>
<path d="M240 170.544H80V180.167H240V170.544Z" fill="#FFC110"/>
<path d="M250 180.167H70V189.791H250V180.167Z" fill="#FFC110"/>
<path d="M100 189.791H80V199.414H100V189.791Z" fill="#FFC110"/>
<path d="M130 189.791H100V199.414H130V189.791Z" fill="#F78A18"/>
<path d="M140 189.791H130V199.414H140V189.791Z" fill="#FFC110"/>
<path d="M180 189.791H140V199.414H180V189.791Z" fill="#F78A18"/>
<path d="M190 189.791H180V199.414H190V189.791Z" fill="#FFC110"/>
<path d="M220 189.791H190V199.414H220V189.791Z" fill="#F78A18"/>
<path d="M240 189.791H220V199.414H240V189.791Z" fill="#FFC110"/>
<path d="M100 199.414H80V209.037H100V199.414Z" fill="#FFC110"/>
<path d="M130 199.414H100V209.037H130V199.414Z" fill="#F78A18"/>
<path d="M140 199.414H130V209.037H140V199.414Z" fill="#FFC110"/>
<path d="M180 199.414H140V209.037H180V199.414Z" fill="#F78A18"/>
<path d="M190 199.414H180V209.037H190V199.414Z" fill="#FFC110"/>
<path d="M220 199.414H190V209.037H220V199.414Z" fill="#F78A18"/>
<path d="M240 199.414H220V209.037H240V199.414Z" fill="#FFC110"/>
<path d="M230 209.037H90V218.661H230V209.037Z" fill="#FFC110"/>
<path d="M160 122.427H100V132.05H160V122.427Z" fill="#FFEF16"/>
<path d="M230 122.427H170V132.05H230V122.427Z" fill="#FFEF16"/>
<path d="M110 132.05H100V141.674H110V132.05Z" fill="#FFEF16"/>
<path d="M130 132.05H110V141.674H130V132.05Z" fill="white"/>
<path d="M150 132.05H130V141.674H150V132.05Z" fill="black"/>
<path d="M160 132.05H150V141.674H160V132.05Z" fill="#FFEF16"/>
<path d="M180 132.05H170V141.674H180V132.05Z" fill="#FFEF16"/>
<path d="M200 132.05H180V141.674H200V132.05Z" fill="white"/>
<path d="M220 132.05H200V141.674H220V132.05Z" fill="black"/>
<path d="M230 132.05H220V141.674H230V132.05Z" fill="#FFEF16"/>
<path d="M110 141.674H70V151.297H110V141.674Z" fill="#FFEF16"/>
<path d="M130 141.674H110V151.297H130V141.674Z" fill="white"/>
<path d="M150 141.674H130V151.297H150V141.674Z" fill="black"/>
<path d="M180 141.674H150V151.297H180V141.674Z" fill="#FFEF16"/>
<path d="M200 141.674H180V151.297H200V141.674Z" fill="white"/>
<path d="M220 141.674H200V151.297H220V141.674Z" fill="black"/>
<path d="M230 141.674H220V151.297H230V141.674Z" fill="#FFEF16"/>
<path d="M80 151.297H70V160.921H80V151.297Z" fill="#FFEF16"/>
<path d="M110 151.297H100V160.921H110V151.297Z" fill="#FFEF16"/>
<path d="M130 151.297H110V160.921H130V151.297Z" fill="white"/>
<path d="M150 151.297H130V160.921H150V151.297Z" fill="black"/>
<path d="M160 151.297H150V160.921H160V151.297Z" fill="#FFEF16"/>
<path d="M180 151.297H170V160.921H180V151.297Z" fill="#FFEF16"/>
<path d="M200 151.297H180V160.921H200V151.297Z" fill="white"/>
<path d="M220 151.297H200V160.921H220V151.297Z" fill="black"/>
<path d="M230 151.297H220V160.921H230V151.297Z" fill="#FFEF16"/>
<path d="M80 160.921H70V170.544H80V160.921Z" fill="#FFEF16"/>
<path d="M110 160.921H100V170.544H110V160.921Z" fill="#FFEF16"/>
<path d="M130 160.921H110V170.544H130V160.921Z" fill="white"/>
<path d="M150 160.921H130V170.544H150V160.921Z" fill="black"/>
<path d="M160 160.921H150V170.544H160V160.921Z" fill="#FFEF16"/>
<path d="M180 160.921H170V170.544H180V160.921Z" fill="#FFEF16"/>
<path d="M200 160.921H180V170.544H200V160.921Z" fill="white"/>
<path d="M220 160.921H200V170.544H220V160.921Z" fill="black"/>
<path d="M230 160.921H220V170.544H230V160.921Z" fill="#FFEF16"/>
<path d="M160 170.544H100V180.167H160V170.544Z" fill="#FFEF16"/>
<path d="M230 170.544H170V180.167H230V170.544Z" fill="#FFEF16"/>
<path d="M289 16.5696H288V17.532H289V16.5696Z" fill="#E1D7D5"/>
<path d="M518 218.661H378V228.284H518V218.661Z" fill="#5A423F"/>
<path d="M518 228.284H378V237.908H518V228.284Z" fill="#5A423F"/>
<path d="M518 237.908H378V247.531H518V237.908Z" fill="#5A423F"/>
<path d="M518 247.531H378V257.155H518V247.531Z" fill="#5A423F"/>
<path d="M398 257.155H378V266.778H398V257.155Z" fill="#5A423F"/>
<path d="M518 257.155H408V266.778H518V257.155Z" fill="#5A423F"/>
<path d="M398 266.778H378V276.401H398V266.778Z" fill="#5A423F"/>
<path d="M518 266.778H408V276.401H518V266.778Z" fill="#5A423F"/>
<path d="M398 276.401H378V286.025H398V276.401Z" fill="#5A423F"/>
<path d="M518 276.401H408V286.025H518V276.401Z" fill="#5A423F"/>
<path d="M398 286.025H378V295.648H398V286.025Z" fill="#5A423F"/>
<path d="M518 286.025H408V295.648H518V286.025Z" fill="#5A423F"/>
<path d="M398 295.648H378V305.271H398V295.648Z" fill="#5A423F"/>
<path d="M518 295.648H408V305.271H518V295.648Z" fill="#5A423F"/>
<path d="M398 305.271H378V314.895H398V305.271Z" fill="#5A423F"/>
<path d="M518 305.271H408V314.895H518V305.271Z" fill="#5A423F"/>
<path d="M398 314.895H378V324.518H398V314.895Z" fill="#5A423F"/>
<path d="M518 314.895H408V324.518H518V314.895Z" fill="#5A423F"/>
<path d="M448 247.531H428V257.155H448V247.531Z" fill="#D8DADF"/>
<path d="M478 247.531H458V257.155H478V247.531Z" fill="#D8DADF"/>
<path d="M488 257.155H418V266.778H488V257.155Z" fill="#D8DADF"/>
<path d="M488 266.778H418V276.401H488V266.778Z" fill="#D8DADF"/>
<path d="M478 276.401H428V286.025H478V276.401Z" fill="#D8DADF"/>
<path d="M468 286.025H438V295.648H468V286.025Z" fill="#D8DADF"/>
<path d="M458 295.648H448V305.271H458V295.648Z" fill="#D8DADF"/>
<path d="M388 64.6866H358V74.3099H388V64.6866Z" fill="#757576"/>
<path d="M358 74.3099H348V83.9333H358V74.3099Z" fill="#757576"/>
<path d="M398 74.3099H388V83.9333H398V74.3099Z" fill="#757576"/>
<path d="M358 83.9333H348V93.5568H358V83.9333Z" fill="#757576"/>
<path d="M398 83.9333H388V93.5568H398V83.9333Z" fill="#757576"/>
<path d="M408 93.5568H328V103.18H408V93.5568Z" fill="#757576"/>
<path d="M438 93.5568H428V103.18H438V93.5568Z" fill="#343235"/>
<path d="M468 93.5568H458V103.18H468V93.5568Z" fill="#343235"/>
<path d="M498 93.5568H488V103.18H498V93.5568Z" fill="#343235"/>
<path d="M528 93.5568H518V103.18H528V93.5568Z" fill="#343235"/>
<path d="M408 103.18H328V112.804H408V103.18Z" fill="#757576"/>
<path d="M418 103.18H408V112.804H418V103.18Z" fill="#343235"/>
<path d="M448 103.18H428V112.804H448V103.18Z" fill="#343235"/>
<path d="M478 103.18H458V112.804H478V103.18Z" fill="#343235"/>
<path d="M508 103.18H488V112.804H508V103.18Z" fill="#343235"/>
<path d="M538 103.18H518V112.804H538V103.18Z" fill="#343235"/>
<path d="M408 112.804H328V122.427H408V112.804Z" fill="#757576"/>
<path d="M428 112.804H408V122.427H428V112.804Z" fill="#343235"/>
<path d="M448 112.804H428V122.427H448V112.804Z" fill="#757576"/>
<path d="M458 112.804H448V122.427H458V112.804Z" fill="#343235"/>
<path d="M478 112.804H458V122.427H478V112.804Z" fill="#757576"/>
<path d="M488 112.804H478V122.427H488V112.804Z" fill="#343235"/>
<path d="M508 112.804H488V122.427H508V112.804Z" fill="#757576"/>
<path d="M518 112.804H508V122.427H518V112.804Z" fill="#343235"/>
<path d="M538 112.804H518V122.427H538V112.804Z" fill="#757576"/>
<path d="M558 112.804H538V122.427H558V112.804Z" fill="#343235"/>
<path d="M348 122.427H338V132.05H348V122.427Z" fill="#343235"/>
<path d="M408 122.427H348V132.05H408V122.427Z" fill="#757576"/>
<path d="M548 122.427H408V132.05H548V122.427Z" fill="#343235"/>
<path d="M558 122.427H548V132.05H558V122.427Z" fill="#757576"/>
<path d="M578 122.427H558V132.05H578V122.427Z" fill="#343235"/>
<path d="M408 132.05H328V141.674H408V132.05Z" fill="#757576"/>
<path d="M548 132.05H408V141.674H548V132.05Z" fill="#343235"/>
<path d="M558 132.05H548V141.674H558V132.05Z" fill="#757576"/>
<path d="M568 132.05H558V141.674H568V132.05Z" fill="#343235"/>
<path d="M348 141.674H338V151.297H348V141.674Z" fill="#343235"/>
<path d="M408 141.674H348V151.297H408V141.674Z" fill="#757576"/>
<path d="M558 141.674H408V151.297H558V141.674Z" fill="#343235"/>
<path d="M408 151.297H328V160.921H408V151.297Z" fill="#757576"/>
<path d="M548 151.297H408V160.921H548V151.297Z" fill="#343235"/>
<path d="M558 151.297H548V160.921H558V151.297Z" fill="#757576"/>
<path d="M578 151.297H558V160.921H578V151.297Z" fill="#343235"/>
<path d="M348 160.921H338V170.544H348V160.921Z" fill="#343235"/>
<path d="M408 160.921H348V170.544H408V160.921Z" fill="#757576"/>
<path d="M548 160.921H408V170.544H548V160.921Z" fill="#343235"/>
<path d="M558 160.921H548V170.544H558V160.921Z" fill="#757576"/>
<path d="M568 160.921H558V170.544H568V160.921Z" fill="#343235"/>
<path d="M408 170.544H328V180.167H408V170.544Z" fill="#757576"/>
<path d="M558 170.544H408V180.167H558V170.544Z" fill="#343235"/>
<path d="M408 180.167H328V189.791H408V180.167Z" fill="#757576"/>
<path d="M548 180.167H408V189.791H548V180.167Z" fill="#343235"/>
<path d="M558 180.167H548V189.791H558V180.167Z" fill="#757576"/>
<path d="M578 180.167H558V189.791H578V180.167Z" fill="#343235"/>
<path d="M358 189.791H328V199.414H358V189.791Z" fill="#757576"/>
<path d="M368 189.791H358V199.414H368V189.791Z" fill="white"/>
<path d="M378 189.791H368V199.414H378V189.791Z" fill="#343235"/>
<path d="M388 189.791H378V199.414H388V189.791Z" fill="white"/>
<path d="M398 189.791H388V199.414H398V189.791Z" fill="#343235"/>
<path d="M408 189.791H398V199.414H408V189.791Z" fill="#757576"/>
<path d="M548 189.791H408V199.414H548V189.791Z" fill="#343235"/>
<path d="M558 189.791H548V199.414H558V189.791Z" fill="#757576"/>
<path d="M568 189.791H558V199.414H568V189.791Z" fill="#343235"/>
<path d="M358 199.414H338V209.037H358V199.414Z" fill="#757576"/>
<path d="M368 199.414H358V209.037H368V199.414Z" fill="#343235"/>
<path d="M378 199.414H368V209.037H378V199.414Z" fill="white"/>
<path d="M388 199.414H378V209.037H388V199.414Z" fill="#343235"/>
<path d="M398 199.414H388V209.037H398V199.414Z" fill="white"/>
<path d="M408 199.414H398V209.037H408V199.414Z" fill="#757576"/>
<path d="M558 199.414H408V209.037H558V199.414Z" fill="#343235"/>
<path d="M428 209.037H348V218.661H428V209.037Z" fill="#757576"/>
<path d="M438 209.037H428V218.661H438V209.037Z" fill="#343235"/>
<path d="M458 209.037H438V218.661H458V209.037Z" fill="#757576"/>
<path d="M468 209.037H458V218.661H468V209.037Z" fill="#343235"/>
<path d="M488 209.037H468V218.661H488V209.037Z" fill="#757576"/>
<path d="M498 209.037H488V218.661H498V209.037Z" fill="#343235"/>
<path d="M518 209.037H498V218.661H518V209.037Z" fill="#757576"/>
<path d="M528 209.037H518V218.661H528V209.037Z" fill="#343235"/>
<path d="M548 209.037H528V218.661H548V209.037Z" fill="#757576"/>
<path d="M558 209.037H548V218.661H558V209.037Z" fill="#343235"/>
<path d="M408 218.661H358V228.284H408V218.661Z" fill="#757576"/>
<path d="M428 218.661H408V228.284H428V218.661Z" fill="#343235"/>
<path d="M458 218.661H438V228.284H458V218.661Z" fill="#343235"/>
<path d="M488 218.661H468V228.284H488V218.661Z" fill="#343235"/>
<path d="M518 218.661H498V228.284H518V218.661Z" fill="#343235"/>
<path d="M548 218.661H528V228.284H548V218.661Z" fill="#343235"/>
<path d="M408 228.284H368V237.908H408V228.284Z" fill="#757576"/>
<path d="M428 228.284H418V237.908H428V228.284Z" fill="#343235"/>
<path d="M458 228.284H448V237.908H458V228.284Z" fill="#343235"/>
<path d="M488 228.284H478V237.908H488V228.284Z" fill="#343235"/>
<path d="M518 228.284H508V237.908H518V228.284Z" fill="#343235"/>
<path d="M548 228.284H538V237.908H548V228.284Z" fill="#343235"/>
<path d="M448 122.427H388V132.05H448V122.427Z" fill="#FFC110"/>
<path d="M518 122.427H458V132.05H518V122.427Z" fill="#F98F30"/>
<path d="M398 132.05H388V141.674H398V132.05Z" fill="#FFC110"/>
<path d="M418 132.05H398V141.674H418V132.05Z" fill="white"/>
<path d="M438 132.05H418V141.674H438V132.05Z" fill="black"/>
<path d="M448 132.05H438V141.674H448V132.05Z" fill="#FFC110"/>
<path d="M468 132.05H458V141.674H468V132.05Z" fill="#F98F30"/>
<path d="M488 132.05H468V141.674H488V132.05Z" fill="white"/>
<path d="M508 132.05H488V141.674H508V132.05Z" fill="black"/>
<path d="M518 132.05H508V141.674H518V132.05Z" fill="#F98F30"/>
<path d="M388 141.674H358V151.297H388V141.674Z" fill="#F78A18"/>
<path d="M398 141.674H388V151.297H398V141.674Z" fill="#FFC110"/>
<path d="M418 141.674H398V151.297H418V141.674Z" fill="white"/>
<path d="M438 141.674H418V151.297H438V141.674Z" fill="black"/>
<path d="M448 141.674H438V151.297H448V141.674Z" fill="#FFC110"/>
<path d="M458 141.674H448V151.297H458V141.674Z" fill="#F78A18"/>
<path d="M468 141.674H458V151.297H468V141.674Z" fill="#F98F30"/>
<path d="M488 141.674H468V151.297H488V141.674Z" fill="white"/>
<path d="M508 141.674H488V151.297H508V141.674Z" fill="black"/>
<path d="M518 141.674H508V151.297H518V141.674Z" fill="#F98F30"/>
<path d="M368 151.297H358V160.921H368V151.297Z" fill="#FFC110"/>
<path d="M398 151.297H388V160.921H398V151.297Z" fill="#FFC110"/>
<path d="M418 151.297H398V160.921H418V151.297Z" fill="white"/>
<path d="M438 151.297H418V160.921H438V151.297Z" fill="black"/>
<path d="M448 151.297H438V160.921H448V151.297Z" fill="#FFC110"/>
<path d="M468 151.297H458V160.921H468V151.297Z" fill="#F98F30"/>
<path d="M488 151.297H468V160.921H488V151.297Z" fill="white"/>
<path d="M508 151.297H488V160.921H508V151.297Z" fill="black"/>
<path d="M518 151.297H508V160.921H518V151.297Z" fill="#F98F30"/>
<path d="M368 160.921H358V170.544H368V160.921Z" fill="#FFC110"/>
<path d="M398 160.921H388V170.544H398V160.921Z" fill="#FFC110"/>
<path d="M418 160.921H398V170.544H418V160.921Z" fill="white"/>
<path d="M438 160.921H418V170.544H438V160.921Z" fill="black"/>
<path d="M448 160.921H438V170.544H448V160.921Z" fill="#FFC110"/>
<path d="M468 160.921H458V170.544H468V160.921Z" fill="#F98F30"/>
<path d="M488 160.921H468V170.544H488V160.921Z" fill="white"/>
<path d="M508 160.921H488V170.544H508V160.921Z" fill="black"/>
<path d="M518 160.921H508V170.544H518V160.921Z" fill="#F98F30"/>
<path d="M448 170.544H388V180.167H448V170.544Z" fill="#FFC110"/>
<path d="M518 170.544H458V180.167H518V170.544Z" fill="#F98F30"/>
<path d="M611 0H610V1H611V0Z" fill="#D5D7E1"/>
<path d="M840 210H700V220H840V210Z" fill="#B87B11"/>
<path d="M840 220H700V230H840V220Z" fill="#B87B11"/>
<path d="M840 230H700V240H840V230Z" fill="#B87B11"/>
<path d="M840 240H700V250H840V240Z" fill="#B87B11"/>
<path d="M720 250H700V260H720V250Z" fill="#B87B11"/>
<path d="M840 250H730V260H840V250Z" fill="#B87B11"/>
<path d="M720 260H700V270H720V260Z" fill="#B87B11"/>
<path d="M840 260H730V270H840V260Z" fill="#B87B11"/>
<path d="M720 270H700V280H720V270Z" fill="#B87B11"/>
<path d="M840 270H730V280H840V270Z" fill="#B87B11"/>
<path d="M720 280H700V290H720V280Z" fill="#B87B11"/>
<path d="M840 280H730V290H840V280Z" fill="#B87B11"/>
<path d="M720 290H700V300H720V290Z" fill="#B87B11"/>
<path d="M840 290H730V300H840V290Z" fill="#B87B11"/>
<path d="M720 300H700V310H720V300Z" fill="#B87B11"/>
<path d="M840 300H730V310H840V300Z" fill="#B87B11"/>
<path d="M720 310H700V320H720V310Z" fill="#B87B11"/>
<path d="M840 310H730V320H840V310Z" fill="#B87B11"/>
<path d="M760 230H750V240H760V230Z" fill="#4B65F7"/>
<path d="M790 230H780V240H790V230Z" fill="#4B65F7"/>
<path d="M760 240H740V250H760V240Z" fill="#4B65F7"/>
<path d="M780 240H770V250H780V240Z" fill="#4B65F7"/>
<path d="M800 240H790V250H800V240Z" fill="#4B65F7"/>
<path d="M760 250H740V260H760V250Z" fill="#4B65F7"/>
<path d="M790 250H780V260H790V250Z" fill="#4B65F7"/>
<path d="M760 270H740V280H760V270Z" fill="#4B65F7"/>
<path d="M780 270H770V280H780V270Z" fill="#4B65F7"/>
<path d="M760 280H740V290H760V280Z" fill="#4B65F7"/>
<path d="M790 280H770V290H790V280Z" fill="#4B65F7"/>
<path d="M750 290H740V300H750V290Z" fill="#4B65F7"/>
<path d="M800 290H770V300H800V290Z" fill="#4B65F7"/>
<path d="M780 60H690V70H780V60Z" fill="#F3322C"/>
<path d="M850 60H780V70H850V60Z" fill="#34AC80"/>
<path d="M790 70H670V80H790V70Z" fill="#F3322C"/>
<path d="M870 70H790V80H870V70Z" fill="#34AC80"/>
<path d="M720 80H660V90H720V80Z" fill="#F3322C"/>
<path d="M730 80H720V90H730V80Z" fill="white"/>
<path d="M800 80H730V90H800V80Z" fill="#F3322C"/>
<path d="M880 80H800V90H880V80Z" fill="#34AC80"/>
<path d="M680 90H650V100H680V90Z" fill="#F3322C"/>
<path d="M700 90H680V100H700V90Z" fill="white"/>
<path d="M800 90H700V100H800V90Z" fill="#F3322C"/>
<path d="M890 90H800V100H890V90Z" fill="#34AC80"/>
<path d="M680 100H650V110H680V100Z" fill="#F3322C"/>
<path d="M700 100H680V110H700V100Z" fill="white"/>
<path d="M810 100H700V110H810V100Z" fill="#F3322C"/>
<path d="M890 100H810V110H890V100Z" fill="#34AC80"/>
<path d="M810 110H640V120H810V110Z" fill="#F3322C"/>
<path d="M900 110H810V120H900V110Z" fill="#34AC80"/>
<path d="M810 120H640V130H810V120Z" fill="#F3322C"/>
<path d="M900 120H810V130H900V120Z" fill="#34AC80"/>
<path d="M810 130H640V140H810V130Z" fill="#F3322C"/>
<path d="M900 130H810V140H900V130Z" fill="#34AC80"/>
<path d="M810 140H640V150H810V140Z" fill="#F3322C"/>
<path d="M900 140H810V150H900V140Z" fill="#34AC80"/>
<path d="M810 150H640V160H810V150Z" fill="#F3322C"/>
<path d="M900 150H810V160H900V150Z" fill="#34AC80"/>
<path d="M810 160H650V170H810V160Z" fill="#F3322C"/>
<path d="M870 160H810V170H870V160Z" fill="#34AC80"/>
<path d="M880 160H870V170H880V160Z" fill="#068940"/>
<path d="M890 160H880V170H890V160Z" fill="#34AC80"/>
<path d="M800 170H650V180H800V170Z" fill="#F3322C"/>
<path d="M870 170H800V180H870V170Z" fill="#34AC80"/>
<path d="M880 170H870V180H880V170Z" fill="#068940"/>
<path d="M890 170H880V180H890V170Z" fill="#34AC80"/>
<path d="M760 180H660V190H760V180Z" fill="#F3322C"/>
<path d="M790 180H760V190H790V180Z" fill="black"/>
<path d="M800 180H790V190H800V180Z" fill="#F3322C"/>
<path d="M860 180H800V190H860V180Z" fill="#34AC80"/>
<path d="M870 180H860V190H870V180Z" fill="#068940"/>
<path d="M880 180H870V190H880V180Z" fill="#34AC80"/>
<path d="M790 190H670V200H790V190Z" fill="#F3322C"/>
<path d="M870 190H790V200H870V190Z" fill="#34AC80"/>
<path d="M780 200H690V210H780V200Z" fill="#F3322C"/>
<path d="M850 200H780V210H850V200Z" fill="#34AC80"/>
<path d="M770 110H710V120H770V110Z" fill="#B9185C"/>
<path d="M840 110H780V120H840V110Z" fill="#B9185C"/>
<path d="M720 120H710V130H720V120Z" fill="#B9185C"/>
<path d="M740 120H720V130H740V120Z" fill="white"/>
<path d="M760 120H740V130H760V120Z" fill="black"/>
<path d="M770 120H760V130H770V120Z" fill="#B9185C"/>
<path d="M790 120H780V130H790V120Z" fill="#B9185C"/>
<path d="M810 120H790V130H810V120Z" fill="white"/>
<path d="M830 120H810V130H830V120Z" fill="black"/>
<path d="M840 120H830V130H840V120Z" fill="#B9185C"/>
<path d="M720 130H680V140H720V130Z" fill="#B9185C"/>
<path d="M740 130H720V140H740V130Z" fill="white"/>
<path d="M760 130H740V140H760V130Z" fill="black"/>
<path d="M790 130H760V140H790V130Z" fill="#B9185C"/>
<path d="M810 130H790V140H810V130Z" fill="white"/>
<path d="M830 130H810V140H830V130Z" fill="black"/>
<path d="M840 130H830V140H840V130Z" fill="#B9185C"/>
<path d="M690 140H680V150H690V140Z" fill="#B9185C"/>
<path d="M720 140H710V150H720V140Z" fill="#B9185C"/>
<path d="M740 140H720V150H740V140Z" fill="white"/>
<path d="M760 140H740V150H760V140Z" fill="black"/>
<path d="M770 140H760V150H770V140Z" fill="#B9185C"/>
<path d="M790 140H780V150H790V140Z" fill="#B9185C"/>
<path d="M810 140H790V150H810V140Z" fill="white"/>
<path d="M830 140H810V150H830V140Z" fill="black"/>
<path d="M840 140H830V150H840V140Z" fill="#B9185C"/>
<path d="M690 150H680V160H690V150Z" fill="#B9185C"/>
<path d="M720 150H710V160H720V150Z" fill="#B9185C"/>
<path d="M740 150H720V160H740V150Z" fill="white"/>
<path d="M760 150H740V160H760V150Z" fill="black"/>
<path d="M770 150H760V160H770V150Z" fill="#B9185C"/>
<path d="M790 150H780V160H790V150Z" fill="#B9185C"/>
<path d="M810 150H790V160H810V150Z" fill="white"/>
<path d="M830 150H810V160H830V150Z" fill="black"/>
<path d="M840 150H830V160H840V150Z" fill="#B9185C"/>
<path d="M770 160H710V170H770V160Z" fill="#B9185C"/>
<path d="M840 160H780V170H840V160Z" fill="#B9185C"/>
</svg>
