<svg width="333" height="319" viewBox="0 0 333 319" fill="none" xmlns="http://www.w3.org/2000/svg">
<path d="M43.2071 15.9253L40.5038 38.4531H38.0579L36.8672 26.6421L36.7063 20.9136H36.835L36.4488 26.6099L34.904 38.4531H32.1363L30.0445 15.9253H32.9409L33.6811 26.6099L33.9064 33.2395H33.7777L34.2282 26.6099L35.2902 16.0219H38.4763L39.3452 26.6099L39.5061 33.9154H39.3774L39.7314 26.6099L40.6647 15.9253H43.2071ZM55.8486 33.2395C55.5268 35.1061 54.8617 36.49 53.8533 37.3911C52.8663 38.2922 51.7292 38.7427 50.4419 38.7427C49.4121 38.7427 48.4681 38.4531 47.6099 37.8738C46.7517 37.2945 46.0544 36.3827 45.518 35.1383C45.0031 33.8724 44.7456 32.2848 44.7456 30.3753C44.7456 28.4658 45.0031 26.8888 45.518 25.6444C46.0544 24.4 46.7517 23.4882 47.6099 22.9089C48.4895 22.3296 49.455 22.04 50.5063 22.04C52.2227 22.04 53.5315 22.7158 54.4326 24.0675C55.3551 25.4192 55.8164 27.3716 55.8164 29.9247V31.2442H47.8673C47.9317 32.8962 48.1677 34.1084 48.5753 34.8808C49.0044 35.6532 49.6266 36.0394 50.4419 36.0394C51.8794 36.0394 52.7591 35.1061 53.0809 33.2395H55.8486ZM50.5063 24.7433C49.0259 24.7433 48.1677 26.1057 47.9317 28.8305H52.9522C52.8234 26.1057 52.0081 24.7433 50.5063 24.7433ZM65.4327 15.6035V38.4531H62.4076V15.6035H65.4327ZM83.0303 32.9499C82.9659 34.3015 82.6656 35.4065 82.1292 36.2647C81.5928 37.1229 80.9277 37.7558 80.1339 38.1635C79.3615 38.5496 78.5462 38.7427 77.688 38.7427C76.6581 38.7427 75.7141 38.4531 74.8559 37.8738C73.9977 37.2945 73.3004 36.3827 72.7641 35.1383C72.2491 33.8724 71.9917 32.2848 71.9917 30.3753C71.9917 28.4658 72.2491 26.8888 72.7641 25.6444C73.3004 24.4 73.9977 23.4882 74.8559 22.9089C75.7141 22.3296 76.6581 22.04 77.688 22.04C78.6106 22.04 79.4795 22.2545 80.2948 22.6836C81.1101 23.1127 81.7644 23.7671 82.2579 24.6468C82.7728 25.505 83.0303 26.5563 83.0303 27.8007H79.9729C79.9944 26.921 79.8013 26.213 79.3937 25.6766C79.0075 25.1402 78.4711 24.8721 77.7845 24.8721C76.9478 24.8721 76.2934 25.3548 75.8214 26.3203C75.3494 27.2857 75.1134 28.6374 75.1134 30.3753C75.1134 32.1346 75.3494 33.497 75.8214 34.4625C76.2934 35.4279 76.9478 35.9107 77.7845 35.9107C78.4711 35.9107 79.0075 35.6532 79.3937 35.1383C79.8013 34.6019 79.9944 33.8724 79.9729 32.9499H83.0303ZM91.2949 38.7749C89.5141 38.7749 88.1518 38.0562 87.2077 36.6187C86.2637 35.1597 85.7917 33.0786 85.7917 30.3753C85.7917 27.6934 86.2637 25.6337 87.2077 24.1962C88.1518 22.7587 89.5141 22.04 91.2949 22.04C93.0757 22.04 94.4381 22.7587 95.3821 24.1962C96.3476 25.6337 96.8303 27.6934 96.8303 30.3753C96.8303 33.0786 96.3476 35.1597 95.3821 36.6187C94.4381 38.0562 93.0757 38.7749 91.2949 38.7749ZM91.2949 35.9429C92.1102 35.9429 92.7109 35.4923 93.0971 34.5912C93.4833 33.6901 93.6764 32.2848 93.6764 30.3753C93.6764 28.4872 93.4833 27.1034 93.0971 26.2237C92.7109 25.3226 92.1102 24.8721 91.2949 24.8721C90.4796 24.8721 89.8789 25.3226 89.4927 26.2237C89.1065 27.1034 88.9134 28.4872 88.9134 30.3753C88.9134 32.2848 89.1065 33.6901 89.4927 34.5912C89.8789 35.4923 90.4796 35.9429 91.2949 35.9429ZM108.603 22.04C109.268 22.04 109.783 22.2224 110.148 22.5871C110.512 22.9304 110.77 23.4989 110.92 24.2928C111.07 25.0652 111.145 26.1379 111.145 27.511V38.4531H108.442V26.8674C108.442 26.1164 108.388 25.5693 108.281 25.2261C108.195 24.8828 108.045 24.7111 107.83 24.7111C107.401 24.7111 107.058 25.0759 106.801 25.8054C106.565 26.5348 106.447 27.5647 106.447 28.8949V38.4531H103.743V26.8674C103.743 25.4299 103.507 24.7111 103.035 24.7111C102.649 24.7111 102.338 25.0866 102.102 25.8375C101.866 26.5885 101.748 27.6076 101.748 28.8949V38.4531H99.0446V26.8996L98.8837 22.3618H101.169L101.426 24.4215H101.297C101.834 22.8338 102.681 22.04 103.84 22.04C104.977 22.04 105.728 22.7158 106.093 24.0675C106.715 22.7158 107.552 22.04 108.603 22.04ZM124.205 33.2395C123.883 35.1061 123.218 36.49 122.21 37.3911C121.223 38.2922 120.086 38.7427 118.798 38.7427C117.769 38.7427 116.825 38.4531 115.966 37.8738C115.108 37.2945 114.411 36.3827 113.874 35.1383C113.36 33.8724 113.102 32.2848 113.102 30.3753C113.102 28.4658 113.36 26.8888 113.874 25.6444C114.411 24.4 115.108 23.4882 115.966 22.9089C116.846 22.3296 117.811 22.04 118.863 22.04C120.579 22.04 121.888 22.7158 122.789 24.0675C123.712 25.4192 124.173 27.3716 124.173 29.9247V31.2442H116.224C116.288 32.8962 116.524 34.1084 116.932 34.8808C117.361 35.6532 117.983 36.0394 118.798 36.0394C120.236 36.0394 121.116 35.1061 121.437 33.2395H124.205ZM118.863 24.7433C117.382 24.7433 116.524 26.1057 116.288 28.8305H121.309C121.18 26.1057 120.365 24.7433 118.863 24.7433ZM151.58 35.8785V38.614H148.169C146.903 38.614 145.937 38.2815 145.272 37.6163C144.628 36.9298 144.307 35.9321 144.307 34.6234V24.9364H140.831V22.3618H144.307V17.5988H147.332V22.3618H151.033V24.9364H147.332V33.2073C147.332 33.9583 147.375 34.5268 147.461 34.913C147.546 35.2777 147.697 35.5352 147.911 35.6854C148.147 35.8141 148.48 35.8785 148.909 35.8785H151.58ZM159.651 38.7749C157.871 38.7749 156.508 38.0562 155.564 36.6187C154.62 35.1597 154.148 33.0786 154.148 30.3753C154.148 27.6934 154.62 25.6337 155.564 24.1962C156.508 22.7587 157.871 22.04 159.651 22.04C161.432 22.04 162.795 22.7587 163.739 24.1962C164.704 25.6337 165.187 27.6934 165.187 30.3753C165.187 33.0786 164.704 35.1597 163.739 36.6187C162.795 38.0562 161.432 38.7749 159.651 38.7749ZM159.651 35.9429C160.467 35.9429 161.067 35.4923 161.454 34.5912C161.84 33.6901 162.033 32.2848 162.033 30.3753C162.033 28.4872 161.84 27.1034 161.454 26.2237C161.067 25.3226 160.467 24.8721 159.651 24.8721C158.836 24.8721 158.235 25.3226 157.849 26.2237C157.463 27.1034 157.27 28.4872 157.27 30.3753C157.27 32.2848 157.463 33.6901 157.849 34.5912C158.235 35.4923 158.836 35.9429 159.651 35.9429ZM181.04 30.8258H184.065V32.0488C184.065 34.7092 184.988 36.0394 186.833 36.0394C187.756 36.0394 188.496 35.7605 189.054 35.2027C189.612 34.6448 189.89 33.8939 189.89 32.9499C189.89 32.199 189.719 31.5338 189.376 30.9546C189.054 30.3753 188.646 29.8711 188.153 29.442C187.659 29.0129 186.983 28.4872 186.125 27.865C185.138 27.1785 184.344 26.567 183.744 26.0306C183.143 25.4728 182.628 24.797 182.199 24.0031C181.77 23.2093 181.555 22.2867 181.555 21.2354C181.555 20.1841 181.77 19.2294 182.199 18.3712C182.628 17.513 183.239 16.8371 184.033 16.3437C184.827 15.8502 185.76 15.6035 186.833 15.6035C187.927 15.6035 188.882 15.8717 189.697 16.408C190.534 16.923 191.167 17.631 191.596 18.5321C192.047 19.4118 192.272 20.388 192.272 21.4607V22.5871H189.247V21.5573C189.247 20.5703 189.043 19.7979 188.635 19.2401C188.228 18.6823 187.67 18.4034 186.962 18.4034C186.232 18.4034 185.675 18.6716 185.288 19.2079C184.924 19.7443 184.741 20.4201 184.741 21.2354C184.741 21.8147 184.891 22.3511 185.192 22.8446C185.492 23.338 185.857 23.7778 186.286 24.164C186.715 24.5502 187.337 25.0544 188.153 25.6766C189.182 26.449 190.019 27.1356 190.663 27.7363C191.306 28.337 191.854 29.0665 192.304 29.9247C192.755 30.7615 192.98 31.7269 192.98 32.8211C192.98 34.0655 192.712 35.1383 192.175 36.0394C191.639 36.9405 190.899 37.6271 189.955 38.0991C189.032 38.5496 187.992 38.7749 186.833 38.7749C185.009 38.7749 183.583 38.1849 182.553 37.0049C181.544 35.8249 181.04 34.1728 181.04 32.0488V30.8258ZM202.532 21.9756C203.733 21.9756 204.656 22.4584 205.3 23.4238C205.965 24.3679 206.297 25.7195 206.297 27.4788V38.4531H203.272V28.7661C203.272 27.3501 203.133 26.3739 202.854 25.8375C202.596 25.2797 202.124 25.0008 201.438 25.0008C200.622 25.0008 199.947 25.4621 199.41 26.3846C198.895 27.2857 198.584 28.5301 198.477 30.1178V38.4531H195.452V15.4426H198.477V25.0008H198.348C198.713 24.0568 199.249 23.3166 199.957 22.7802C200.665 22.2438 201.524 21.9756 202.532 21.9756ZM217.426 38.4531L217.136 36.0072C216.643 36.8654 216.064 37.5413 215.399 38.0347C214.755 38.5282 214.058 38.7749 213.307 38.7749C211.977 38.7749 210.936 38.3887 210.185 37.6163C209.434 36.8225 209.059 35.739 209.059 34.3659C209.059 33.1644 209.509 32.1239 210.41 31.2442C211.311 30.3645 212.567 29.5707 214.176 28.8627L216.943 27.6398V27.3179C216.943 26.5026 216.75 25.859 216.364 25.387C215.999 24.8935 215.409 24.6468 214.594 24.6468C213.908 24.6468 213.35 24.8935 212.921 25.387C212.491 25.8804 212.277 26.5241 212.277 27.3179V27.9616H209.38V27.3179C209.38 26.2666 209.627 25.3441 210.121 24.5502C210.614 23.7349 211.258 23.1235 212.052 22.7158C212.845 22.2867 213.693 22.0722 214.594 22.0722C216.16 22.0722 217.415 22.5442 218.359 23.4882C219.303 24.4108 219.775 25.6873 219.775 27.3179V34.0441L220.194 38.4531H217.426ZM213.403 35.9429C214.026 35.9429 214.637 35.6532 215.238 35.0739C215.86 34.4946 216.428 33.6793 216.943 32.6281V30.2465L214.819 31.2764C213.961 31.684 213.296 32.156 212.824 32.6924C212.352 33.2073 212.116 33.7652 212.116 34.3659C212.116 34.8594 212.223 35.2456 212.438 35.5245C212.674 35.8034 212.996 35.9429 213.403 35.9429ZM232.803 22.1687V24.9686H230.55C229.585 24.9686 228.791 25.151 228.169 25.5157C227.568 25.8804 227.107 26.5241 226.785 27.4467C226.463 28.3478 226.302 29.6136 226.302 31.2442V38.4531H223.277V22.3618H226.206L226.302 25.4835H226.174C226.56 24.4108 227.118 23.5848 227.847 23.0055C228.598 22.4047 229.499 22.1151 230.55 22.1365L232.803 22.1687ZM240.102 31.4695L239.169 32.4993H239.201V38.4531H236.176V15.4426H239.201V28.5087L239.974 27.3501L244.254 22.3618H247.923L242.033 29.2167L248.598 38.4531H245.026L240.102 31.4695ZM268.249 15.9253C270.588 15.9253 272.315 16.8479 273.431 18.693C274.568 20.5167 275.136 23.3273 275.136 27.1248C275.136 30.9653 274.568 33.8188 273.431 35.6854C272.315 37.5305 270.588 38.4531 268.249 38.4531H263.583V15.9253H268.249ZM267.734 35.9429C269.279 35.9429 270.384 35.2563 271.049 33.8832C271.736 32.51 272.079 30.2573 272.079 27.1248C272.079 24.164 271.725 21.9971 271.017 20.624C270.331 19.2508 269.236 18.5643 267.734 18.5643H266.608V35.9429H267.734ZM284.882 31.5338H280.505L279.024 38.4531H276.031L280.987 15.9253H284.399L289.355 38.4531H286.362L284.882 31.5338ZM284.27 28.7983L283.079 23.1986L282.629 19.9159H282.757L282.307 23.2307L281.116 28.7983H284.27ZM296.397 38.7427C294.315 38.7427 292.749 37.7665 291.698 35.8141C290.668 33.8617 290.153 30.9653 290.153 27.1248C290.153 19.4225 292.234 15.5713 296.397 15.5713C300.559 15.5713 302.64 19.4225 302.64 27.1248C302.64 30.9653 302.114 33.8617 301.063 35.8141C300.033 37.7665 298.478 38.7427 296.397 38.7427ZM296.397 35.8785C297.469 35.8785 298.263 35.1705 298.778 33.7544C299.314 32.3384 299.583 30.1285 299.583 27.1248C299.583 24.164 299.314 21.9756 298.778 20.5596C298.263 19.1436 297.469 18.4355 296.397 18.4355C295.324 18.4355 294.53 19.1436 294.015 20.5596C293.522 21.9542 293.275 24.1426 293.275 27.1248C293.275 30.15 293.522 32.3706 294.015 33.7866C294.53 35.1812 295.324 35.8785 296.397 35.8785Z" fill="#343235"/>
<mask id="path-2-inside-1" fill="white">
<path fill-rule="evenodd" clip-rule="evenodd" d="M10.7275 0.748413C4.80287 0.748413 0 5.5513 0 11.4759V40.5296C0 46.4543 4.80287 51.2571 10.7275 51.2571H153.449L166.589 64.397L179.729 51.2571H322.272C328.197 51.2571 333 46.4543 333 40.5296V11.4759C333 5.55129 328.197 0.748413 322.272 0.748413H10.7275Z"/>
</mask>
<path d="M153.449 51.2571L154.863 49.8429L154.277 49.2571H153.449V51.2571ZM166.589 64.397L165.174 65.8112L166.589 67.2254L168.003 65.8112L166.589 64.397ZM179.729 51.2571V49.2571H178.9L178.314 49.8429L179.729 51.2571ZM2 11.4759C2 6.65586 5.90744 2.74841 10.7275 2.74841V-1.25159C3.6983 -1.25159 -2 4.44673 -2 11.4759H2ZM2 40.5296V11.4759H-2V40.5296H2ZM10.7275 49.2571C5.90744 49.2571 2 45.3497 2 40.5296H-2C-2 47.5588 3.6983 53.2571 10.7275 53.2571V49.2571ZM153.449 49.2571H10.7275V53.2571H153.449V49.2571ZM168.003 62.9828L154.863 49.8429L152.035 52.6714L165.174 65.8112L168.003 62.9828ZM178.314 49.8429L165.174 62.9828L168.003 65.8112L181.143 52.6714L178.314 49.8429ZM322.272 49.2571H179.729V53.2571H322.272V49.2571ZM331 40.5296C331 45.3497 327.093 49.2571 322.272 49.2571V53.2571C329.302 53.2571 335 47.5588 335 40.5296H331ZM331 11.4759V40.5296H335V11.4759H331ZM322.272 2.74841C327.093 2.74841 331 6.65585 331 11.4759H335C335 4.44672 329.302 -1.25159 322.272 -1.25159V2.74841ZM10.7275 2.74841H322.272V-1.25159H10.7275V2.74841Z" fill="black" mask="url(#path-2-inside-1)"/>
<path fill-rule="evenodd" clip-rule="evenodd" d="M182.438 231.344L182.438 319H190.406H198.375H206.344H214.313H222.281L222.281 231.344H214.313H206.344H198.375H190.406H182.438ZM110.719 231.344L110.719 319H118.688H126.656L126.656 263.219H134.625V319H142.594H150.563L150.563 231.344H142.594H134.625H126.656H118.688H118.688H110.719Z" fill="#FE500C"/>
<path fill-rule="evenodd" clip-rule="evenodd" d="M158.531 231.344L158.531 231.344L150.562 231.344L150.563 239.313L158.531 239.313L158.531 319H166.5H174.469L174.469 239.313L182.438 239.313V231.344L174.469 231.344H166.5L158.531 231.344Z" fill="#AB36BE"/>
<path fill-rule="evenodd" clip-rule="evenodd" d="M150.562 239.313L150.563 319H158.531L158.531 239.313L150.562 239.313ZM174.469 239.313L174.469 319H182.438L182.438 239.313L174.469 239.313Z" fill="#E5E5DE"/>
<path fill-rule="evenodd" clip-rule="evenodd" d="M238.219 207.438L230.25 207.438L222.281 207.438H214.313H206.344H198.375H190.406H182.438L174.469 207.438L174.469 215.406L166.5 215.406V223.375L158.531 223.375L158.531 231.344H166.5H174.469H182.438H190.406H198.375H206.344H214.313H222.281H230.25V223.375H238.219V207.438Z" fill="#7CC4F2"/>
<path fill-rule="evenodd" clip-rule="evenodd" d="M166.5 223.375L166.5 215.406H174.469V207.438H182.438H190.406H198.375H206.344H214.313H222.281H230.25H238.219H246.188V191.5H254.156V175.563H262.125V159.625L254.156 159.625V151.656H246.188V143.688H238.219V135.719L230.25 135.719V127.75H222.281H214.313H206.344H198.375H190.406H182.438H174.469H166.5L158.531 127.75H150.563L142.594 127.75L142.594 135.719H134.625L126.656 135.719L126.656 143.688H118.688H110.719L110.719 223.375H118.688L118.688 231.344H126.656H134.625H142.594H150.563H158.531L158.531 223.375H166.5Z" fill="#2B83F6"/>
<path fill-rule="evenodd" clip-rule="evenodd" d="M62.9062 119.781V127.75L70.875 127.75V151.656H78.8438L78.8438 167.594H86.8125V191.5H78.8438L78.8438 215.406H70.875L70.875 223.375H78.8438H86.8125V207.438H94.7813L94.7813 199.469H102.75L102.75 191.5H110.719L110.719 159.625L102.75 159.625V151.656H94.7813L94.7813 143.688H86.8125L86.8125 135.719H78.8438L78.8438 127.75L70.875 127.75L70.875 119.781L62.9062 119.781Z" fill="#395ED1"/>
<path fill-rule="evenodd" clip-rule="evenodd" d="M142.594 87.9063L142.594 95.875L150.563 95.875L150.563 103.844H158.531L158.531 127.75H166.5H174.469H182.438H190.406H198.375H206.344V119.781H198.375V103.844H190.406V95.875H182.438L174.469 95.875L174.469 87.9062H166.5H158.531H150.563L142.594 87.9063Z" fill="#395ED1"/>
<path fill-rule="evenodd" clip-rule="evenodd" d="M134.625 207.438L134.625 215.406L126.656 215.406L126.656 223.375H134.625V215.406L142.594 215.406V223.375H150.563V215.406L158.531 215.406V207.438L150.563 207.438V215.406L142.594 215.406V207.438L134.625 207.438Z" fill="#395ED1"/>
<rect x="238.219" y="191.5" width="15.9375" height="7.96875" transform="rotate(-90 238.219 191.5)" fill="#395ED1"/>
<path fill-rule="evenodd" clip-rule="evenodd" d="M150.563 151.656H158.531H166.5V167.594L174.469 167.594V151.656H182.438H190.406H198.375H206.344H214.313H222.281V199.469H214.313H206.344H198.375H190.406H182.438H174.469V175.563H166.5V199.469H158.531H150.563H142.594H134.625H126.656H118.688L118.688 175.563H110.719H102.75L102.75 191.5H94.7813L94.7812 167.594H102.75L110.719 167.594H118.688L118.688 151.656H126.656H134.625H142.594H150.563ZM150.563 159.625L158.531 159.625V191.5H150.563H142.594H134.625H126.656V159.625H134.625H142.594H150.563ZM214.313 191.5H206.344H198.375H190.406H182.438V159.625H190.406H198.375H206.344L214.313 159.625V191.5Z" fill="black"/>
<rect x="150.562" y="175.563" width="15.9375" height="7.96875" transform="rotate(-90 150.562 175.563)" fill="white"/>
<rect x="206.344" y="175.563" width="15.9375" height="7.96875" transform="rotate(-90 206.344 175.563)" fill="white"/>
<path fill-rule="evenodd" clip-rule="evenodd" d="M126.656 159.625L126.656 191.5H134.625H142.594L142.594 159.625H134.625H126.656Z" fill="black"/>
<path fill-rule="evenodd" clip-rule="evenodd" d="M182.438 159.625L182.438 191.5H190.406H198.375L198.375 159.625H190.406H182.438Z" fill="black"/>
<path fill-rule="evenodd" clip-rule="evenodd" d="M142.594 159.625L142.594 191.5H150.563H158.531V175.563H150.563V159.625H142.594Z" fill="black"/>
<path fill-rule="evenodd" clip-rule="evenodd" d="M198.375 159.625L198.375 191.5H206.344H214.313V175.563H206.344L206.344 159.625H198.375Z" fill="black"/>
<path fill-rule="evenodd" clip-rule="evenodd" d="M190.406 207.438L190.406 215.406L182.438 215.406L182.438 223.375H190.406V215.406L198.375 215.406V223.375H206.344V215.406L214.313 215.406V223.375H222.281V215.406L230.25 215.406V207.438L222.281 207.438V215.406L214.313 215.406V207.438L206.344 207.438L206.344 215.406L198.375 215.406V207.438L190.406 207.438Z" fill="white"/>
<rect x="110.719" y="223.375" width="7.96875" height="7.96875" fill="#2B83F6"/>
</svg>
