<svg width="61" height="43" viewBox="0 0 61 43" fill="none" xmlns="http://www.w3.org/2000/svg">
<rect x="26.84" y="0.122498" width="2.44" height="2.35239" fill="#395ED1"/>
<rect x="24.4" y="0.122498" width="2.44" height="2.35239" fill="#395ED1"/>
<rect x="12.2" y="21.294" width="2.44" height="2.35239" fill="#395ED1"/>
<rect x="12.2" y="25.9987" width="2.44" height="2.35239" fill="#395ED1"/>
<rect x="12.2" y="28.3511" width="2.44" height="2.35239" fill="#395ED1"/>
<rect x="7.32001" y="28.3511" width="2.44" height="2.35239" fill="#395ED1"/>
<rect x="4.88" y="30.7035" width="2.44" height="2.35239" fill="#395ED1"/>
<rect x="7.32001" y="30.7035" width="2.44" height="2.35239" fill="#395ED1"/>
<rect x="9.76001" y="30.7035" width="2.44" height="2.35239" fill="#395ED1"/>
<rect x="7.32001" y="33.0559" width="2.44" height="2.35239" fill="#395ED1"/>
<rect x="4.88" y="33.0559" width="2.44" height="2.35239" fill="#395ED1"/>
<rect x="4.88" y="35.4083" width="2.44" height="2.35239" fill="#395ED1"/>
<rect x="2.44" y="37.7607" width="2.44" height="2.35239" fill="#395ED1"/>
<rect x="7.32001" y="25.9987" width="2.44" height="2.35239" fill="#395ED1"/>
<rect x="7.32001" y="23.6464" width="2.44" height="2.35238" fill="#395ED1"/>
<rect x="4.88" y="21.294" width="2.44" height="2.35239" fill="#395ED1"/>
<rect x="7.32001" y="21.294" width="2.44" height="2.35239" fill="#395ED1"/>
<rect x="9.76001" y="21.294" width="2.44" height="2.35239" fill="#395ED1"/>
<rect x="9.76001" y="18.9416" width="2.44" height="2.35239" fill="#395ED1"/>
<rect x="7.32001" y="16.5892" width="2.44" height="2.35239" fill="#395ED1"/>
<rect x="4.88" y="14.2368" width="2.44" height="2.35239" fill="#395ED1"/>
<rect x="7.32001" y="18.9416" width="2.44" height="2.35239" fill="#395ED1"/>
<rect x="4.88" y="18.9416" width="2.44" height="2.35239" fill="#395ED1"/>
<rect x="2.44" y="16.5892" width="2.44" height="2.35239" fill="#395ED1"/>
<rect x="4.88" y="16.5892" width="2.44" height="2.35239" fill="#395ED1"/>
<rect x="2.44" y="14.2368" width="2.44" height="2.35239" fill="#395ED1"/>
<rect x="2.44" y="11.8844" width="2.44" height="2.35239" fill="#395ED1"/>
<rect y="9.53204" width="2.44" height="2.35239" fill="#395ED1"/>
<rect x="19.52" y="37.7607" width="2.44" height="2.35239" fill="#395ED1"/>
<rect x="21.96" y="35.4083" width="2.44" height="2.35239" fill="#395ED1"/>
<rect x="24.4" y="37.7607" width="2.44" height="2.35239" fill="#395ED1"/>
<rect x="26.84" y="35.4083" width="2.44" height="2.35239" fill="#395ED1"/>
<rect x="29.28" y="2.47488" width="2.44" height="2.35239" fill="#395ED1"/>
<rect x="26.84" y="2.47488" width="2.44" height="2.35239" fill="#395ED1"/>
<rect x="29.28" y="4.82727" width="2.44" height="2.35239" fill="#395ED1"/>
<rect x="29.28" y="7.17966" width="2.44" height="2.35239" fill="#395ED1"/>
<rect x="29.28" y="9.53204" width="2.44" height="2.35239" fill="#395ED1"/>
<rect x="26.84" y="11.8844" width="17.08" height="2.35239" fill="#2B83F6"/>
<rect x="24.4" y="14.2368" width="24.4" height="2.35239" fill="#2B83F6"/>
<rect x="46.36" y="11.8844" width="4.88" height="2.35239" fill="#2B83F6"/>
<rect x="48.8" y="14.2368" width="4.88" height="18.8191" fill="#2B83F6"/>
<rect x="53.68" y="16.5892" width="2.44" height="16.4667" fill="#2B83F6"/>
<rect x="56.12" y="18.9416" width="2.43999" height="7.05716" fill="#2B83F6"/>
<rect x="58.56" y="21.294" width="2.44" height="2.35239" fill="#2B83F6"/>
<rect x="58.56" y="23.6464" width="2.44" height="2.35238" fill="#2B83F6"/>
<rect x="51.24" y="18.9416" width="2.44" height="2.35239" fill="#2B83F6"/>
<rect x="51.24" y="21.294" width="2.44" height="11.7619" fill="#2B83F6"/>
<rect x="56.12" y="25.9987" width="2.43999" height="2.35239" fill="#2B83F6"/>
<rect x="56.12" y="28.3511" width="2.43999" height="2.35239" fill="#2B83F6"/>
<rect x="53.68" y="30.7035" width="2.44" height="2.35239" fill="#2B83F6"/>
<rect x="53.68" y="33.0559" width="2.44" height="2.35239" fill="#2B83F6"/>
<rect x="21.96" y="14.2368" width="2.44" height="2.35239" fill="#2B83F6"/>
<rect x="19.52" y="16.5892" width="34.16" height="2.35239" fill="#2B83F6"/>
<rect x="19.52" y="33.0559" width="34.16" height="2.35239" fill="#2B83F6"/>
<rect x="24.4" y="11.8844" width="2.44" height="2.35239" fill="#2B83F6"/>
<rect x="43.92" y="11.8844" width="2.44" height="2.35239" fill="#2B83F6"/>
<rect x="19.52" y="14.2368" width="2.44" height="2.35239" fill="#2B83F6"/>
<rect x="31.72" y="18.9416" width="2.44" height="4.70477" fill="#2B83F6"/>
<rect x="31.72" y="25.9987" width="2.44" height="7.05716" fill="#2B83F6"/>
<rect x="19.52" y="35.4083" width="2.44" height="2.35239" fill="#2B83F6"/>
<rect x="24.4" y="35.4083" width="2.44" height="2.35239" fill="#2B83F6"/>
<rect x="21.96" y="37.7607" width="2.44" height="2.35239" fill="#2B83F6"/>
<rect x="17.08" y="16.5892" width="2.44" height="2.35239" fill="#2B83F6"/>
<rect x="14.64" y="33.0559" width="4.88" height="7.05716" fill="#2B83F6"/>
<rect x="26.84" y="37.7607" width="2.44" height="2.35239" fill="#2B83F6"/>
<rect x="29.28" y="37.7607" width="2.44" height="2.35239" fill="#2B83F6"/>
<rect x="29.28" y="35.4083" width="2.44" height="2.35239" fill="#2B83F6"/>
<rect x="31.72" y="35.4083" width="2.44" height="2.35239" fill="#2B83F6"/>
<rect x="29.28" y="40.1131" width="21.96" height="2.35239" fill="#7CC4F2"/>
<rect x="31.72" y="37.7607" width="2.44" height="2.35239" fill="#7CC4F2"/>
<rect x="34.16" y="37.7607" width="2.43999" height="2.35239" fill="#7CC4F2"/>
<rect x="39.04" y="37.7607" width="2.44" height="2.35239" fill="#7CC4F2"/>
<rect x="43.92" y="37.7607" width="2.44" height="2.35239" fill="#7CC4F2"/>
<rect x="48.8" y="37.7607" width="2.44" height="2.35239" fill="#7CC4F2"/>
<rect x="51.24" y="37.7607" width="2.44" height="2.35239" fill="#7CC4F2"/>
<rect x="51.24" y="35.4083" width="2.44" height="2.35239" fill="#7CC4F2"/>
<rect x="34.16" y="35.4083" width="2.43999" height="2.35239" fill="#7CC4F2"/>
<rect x="36.6" y="35.4083" width="2.44001" height="2.35239" fill="#7CC4F2"/>
<rect x="41.48" y="35.4083" width="2.44" height="2.35239" fill="#7CC4F2"/>
<rect x="46.36" y="35.4083" width="2.44" height="2.35239" fill="#7CC4F2"/>
<rect x="39.04" y="35.4083" width="2.44" height="2.35239" fill="white"/>
<rect x="43.92" y="35.4083" width="2.44" height="2.35239" fill="white"/>
<rect x="48.8" y="35.4083" width="2.44" height="2.35239" fill="white"/>
<rect x="36.6" y="37.7607" width="2.44001" height="2.35239" fill="white"/>
<rect x="41.48" y="37.7607" width="2.44" height="2.35239" fill="white"/>
<rect x="46.36" y="37.7607" width="2.44" height="2.35239" fill="white"/>
<rect x="14.64" y="35.4083" width="2.44" height="2.35239" fill="#2B83F6"/>
<rect x="14.64" y="40.1131" width="14.64" height="2.35239" fill="#2B83F6"/>
<rect x="14.64" y="16.5892" width="2.44" height="18.8191" fill="#2B83F6"/>
<rect x="17.08" y="18.9416" width="2.44" height="2.35239" fill="black"/>
<rect x="34.16" y="18.9416" width="2.43999" height="2.35239" fill="black"/>
<rect x="17.08" y="21.294" width="2.44" height="2.35239" fill="black"/>
<rect x="34.16" y="21.294" width="2.43999" height="2.35239" fill="black"/>
<rect x="19.52" y="18.9416" width="2.44" height="2.35239" fill="black"/>
<rect x="36.6" y="18.9416" width="2.44001" height="2.35239" fill="black"/>
<rect x="19.52" y="21.294" width="2.44" height="2.35239" fill="black"/>
<rect x="36.6" y="21.294" width="2.44001" height="2.35239" fill="black"/>
<rect x="26.84" y="28.3511" width="2.44" height="2.35239" fill="black"/>
<rect x="43.92" y="28.3511" width="2.44" height="2.35239" fill="black"/>
<rect x="17.08" y="18.9416" width="14.64" height="14.1143" fill="#FF638D"/>
<rect x="34.16" y="18.9416" width="14.64" height="14.1143" fill="#FF638D"/>
<rect x="21.96" y="21.294" width="2.44" height="2.35239" fill="white"/>
<rect x="19.52" y="21.294" width="4.88" height="9.40955" fill="white"/>
<rect x="24.4" y="21.294" width="4.88" height="9.40955" fill="black"/>
<rect x="19.52" y="23.6464" width="2.44" height="2.35238" fill="white"/>
<rect x="19.52" y="25.9987" width="2.44" height="2.35239" fill="white"/>
<rect x="19.52" y="28.3511" width="2.44" height="2.35239" fill="white"/>
<rect x="21.96" y="28.3511" width="2.44" height="2.35239" fill="white"/>
<rect x="21.96" y="25.9987" width="2.44" height="2.35239" fill="white"/>
<rect x="21.96" y="23.6464" width="2.44" height="2.35238" fill="white"/>
<rect x="39.04" y="21.294" width="2.44" height="2.35239" fill="white"/>
<rect x="41.48" y="21.294" width="2.44" height="2.35239" fill="white"/>
<rect x="43.92" y="21.294" width="2.44" height="2.35239" fill="white"/>
<rect x="43.92" y="23.6464" width="2.44" height="2.35238" fill="white"/>
<rect x="31.72" y="23.6464" width="2.44" height="2.35238" fill="#FF638D"/>
<rect x="31.72" y="25.9987" width="2.44" height="2.35239" fill="#FF638D"/>
<rect x="14.64" y="23.6464" width="2.44" height="2.35238" fill="#FF638D"/>
<rect x="14.64" y="25.9987" width="2.44" height="2.35239" fill="#FF638D"/>
<rect x="12.2" y="23.6464" width="2.44" height="2.35238" fill="#FF638D"/>
<rect x="12.2" y="25.9987" width="2.44" height="2.35239" fill="#FF638D"/>
<rect x="9.76001" y="23.6464" width="2.44" height="2.35238" fill="#FF638D"/>
<rect x="9.76001" y="25.9987" width="2.44" height="2.35239" fill="#FF638D"/>
<rect x="9.76001" y="28.3511" width="2.44" height="2.35239" fill="#FF638D"/>
<rect x="43.92" y="25.9987" width="2.44" height="2.35239" fill="white"/>
<rect x="31.72" y="2.47488" width="2.44" height="2.35239" fill="#395ED1"/>
<rect x="31.72" y="4.82727" width="2.44" height="2.35239" fill="#395ED1"/>
<rect x="31.72" y="7.17966" width="2.44" height="2.35239" fill="#395ED1"/>
<rect x="31.72" y="9.53204" width="2.44" height="2.35239" fill="#395ED1"/>
<rect x="34.16" y="2.47488" width="2.43999" height="2.35239" fill="#395ED1"/>
<rect x="34.16" y="4.82727" width="2.43999" height="2.35239" fill="#395ED1"/>
<rect x="34.16" y="7.17966" width="2.43999" height="2.35239" fill="#395ED1"/>
<rect x="34.16" y="9.53204" width="2.43999" height="2.35239" fill="#395ED1"/>
<rect x="36.6" y="2.47488" width="2.44001" height="2.35239" fill="#395ED1"/>
<rect x="36.6" y="4.82727" width="2.44001" height="2.35239" fill="#395ED1"/>
<rect x="36.6" y="7.17966" width="2.44001" height="2.35239" fill="#395ED1"/>
<rect x="36.6" y="9.53204" width="2.44001" height="2.35239" fill="#395ED1"/>
<rect x="39.04" y="4.82727" width="2.44" height="2.35239" fill="#395ED1"/>
<rect x="53.68" y="25.9987" width="2.44" height="2.35239" fill="#395ED1"/>
<rect x="39.04" y="7.17966" width="2.44" height="2.35239" fill="#395ED1"/>
<rect x="53.68" y="28.3511" width="2.44" height="2.35239" fill="#395ED1"/>
<rect x="39.04" y="9.53204" width="2.44" height="2.35239" fill="#395ED1"/>
<rect x="41.48" y="9.53204" width="2.44" height="2.35239" fill="#395ED1"/>
<rect x="29.28" y="0.122498" width="2.44" height="2.35239" fill="#395ED1"/>
<rect x="31.72" y="0.122498" width="2.44" height="2.35239" fill="#395ED1"/>
<rect x="36.6" y="21.294" width="4.88001" height="9.40955" fill="white"/>
<rect x="41.48" y="21.294" width="4.88" height="9.40955" fill="black"/>
</svg>
