<svg width="1440" height="560" viewBox="0 0 1440 560" fill="none" xmlns="http://www.w3.org/2000/svg">
<path fill-rule="evenodd" clip-rule="evenodd" d="M640 0H720H800V80H720H640V0ZM800 80H880V160V240H800H720H640V160H720H800V80ZM0 160H80V80V0H160H240V80H160V160V240H80H0V160ZM160 240H240V320V400V480V560H160H80H0V480V400V320H80H160V240ZM80 400H160V480H80V400ZM960 160V240H1040V160V80H1120V0H1040H960V80V160ZM720 320H800H880V400V480V560H800H720H640V480V400V320H720ZM800 400H720L720 480H800V400ZM400 480H320V560H400H480H560V480V400H480V320H400H320V400H400L480 400V480H400ZM400 0H320V80V160V240H400V160H480V240H560V160V80V0H480V80H400V0ZM1200 0H1280V80H1360V160H1280V240H1200V160V80V0ZM1360 160V240H1440V160H1360ZM1360 80V0H1440V80H1360Z" fill="#2B83F6"/>
<rect x="925.413" y="339.451" width="11.4826" height="11.0501" fill="#395ED1"/>
<rect x="925.413" y="361.552" width="11.4826" height="11.0501" fill="#395ED1"/>
<rect x="925.413" y="372.602" width="11.4826" height="11.0501" fill="#395ED1"/>
<rect x="902.448" y="372.602" width="11.4826" height="11.0501" fill="#395ED1"/>
<rect x="890.965" y="383.652" width="11.4826" height="11.0501" fill="#395ED1"/>
<rect x="902.448" y="383.652" width="11.4826" height="11.0501" fill="#395ED1"/>
<rect x="913.93" y="383.652" width="11.4826" height="11.0501" fill="#395ED1"/>
<rect x="902.448" y="394.702" width="11.4826" height="11.0502" fill="#395ED1"/>
<rect x="890.965" y="394.702" width="11.4826" height="11.0502" fill="#395ED1"/>
<rect x="890.965" y="405.752" width="11.4826" height="11.0501" fill="#395ED1"/>
<rect x="879.483" y="416.802" width="11.4826" height="11.0502" fill="#395ED1"/>
<rect x="902.448" y="361.552" width="11.4826" height="11.0501" fill="#395ED1"/>
<rect x="902.448" y="350.501" width="11.4826" height="11.0502" fill="#395ED1"/>
<rect x="890.965" y="339.451" width="11.4826" height="11.0501" fill="#395ED1"/>
<rect x="902.448" y="339.451" width="11.4826" height="11.0501" fill="#395ED1"/>
<rect x="913.93" y="339.451" width="11.4826" height="11.0501" fill="#395ED1"/>
<rect x="913.93" y="328.401" width="11.4826" height="11.0502" fill="#395ED1"/>
<rect x="902.448" y="317.351" width="11.4826" height="11.0502" fill="#395ED1"/>
<rect x="890.965" y="306.301" width="11.4826" height="11.0502" fill="#395ED1"/>
<rect x="902.448" y="328.401" width="11.4826" height="11.0502" fill="#395ED1"/>
<rect x="890.965" y="328.401" width="11.4826" height="11.0502" fill="#395ED1"/>
<rect x="879.483" y="317.351" width="11.4826" height="11.0502" fill="#395ED1"/>
<rect x="890.965" y="317.351" width="11.4826" height="11.0502" fill="#395ED1"/>
<rect x="879.483" y="306.301" width="11.4826" height="11.0502" fill="#395ED1"/>
<rect x="879.483" y="295.251" width="11.4826" height="11.0501" fill="#395ED1"/>
<rect x="868" y="284.201" width="11.4826" height="11.0502" fill="#395ED1"/>
<rect x="959.861" y="416.802" width="11.4826" height="11.0502" fill="#395ED1"/>
<rect x="971.343" y="405.752" width="11.4826" height="11.0501" fill="#395ED1"/>
<rect x="982.826" y="416.802" width="11.4826" height="11.0502" fill="#395ED1"/>
<rect x="994.309" y="405.752" width="11.4826" height="11.0501" fill="#395ED1"/>
<rect x="994.309" y="295.251" width="80.3781" height="11.0501" fill="#2B83F6"/>
<rect x="982.826" y="306.301" width="114.826" height="11.0502" fill="#2B83F6"/>
<rect x="1086.17" y="295.251" width="22.9652" height="11.0501" fill="#2B83F6"/>
<rect x="1097.65" y="306.301" width="22.9652" height="88.4012" fill="#2B83F6"/>
<rect x="1120.62" y="317.351" width="11.4826" height="77.3511" fill="#2B83F6"/>
<rect x="1132.1" y="328.401" width="11.4826" height="33.1505" fill="#2B83F6"/>
<rect x="1143.58" y="339.451" width="11.4826" height="11.0501" fill="#2B83F6"/>
<rect x="1143.58" y="350.501" width="11.4826" height="11.0502" fill="#2B83F6"/>
<rect x="1109.13" y="328.401" width="11.4826" height="11.0502" fill="#2B83F6"/>
<rect x="1109.13" y="339.451" width="11.4826" height="55.2508" fill="#2B83F6"/>
<rect x="1132.1" y="361.552" width="11.4826" height="11.0501" fill="#2B83F6"/>
<rect x="1132.1" y="372.602" width="11.4826" height="11.0501" fill="#2B83F6"/>
<rect x="1120.62" y="383.652" width="11.4826" height="11.0501" fill="#2B83F6"/>
<rect x="1120.62" y="394.702" width="11.4826" height="11.0502" fill="#2B83F6"/>
<rect x="971.343" y="306.301" width="11.4826" height="11.0502" fill="#2B83F6"/>
<rect x="959.861" y="317.351" width="160.756" height="11.0502" fill="#2B83F6"/>
<rect x="959.861" y="394.702" width="160.756" height="11.0502" fill="#2B83F6"/>
<rect x="982.826" y="295.251" width="11.4826" height="11.0501" fill="#2B83F6"/>
<rect x="1074.69" y="295.251" width="11.4826" height="11.0501" fill="#2B83F6"/>
<rect x="959.861" y="306.301" width="11.4826" height="11.0502" fill="#2B83F6"/>
<rect x="1017.27" y="328.401" width="11.4826" height="22.1003" fill="#2B83F6"/>
<rect x="1017.27" y="361.552" width="11.4826" height="33.1504" fill="#2B83F6"/>
<rect x="959.861" y="405.752" width="11.4826" height="11.0501" fill="#2B83F6"/>
<rect x="982.826" y="405.752" width="11.4826" height="11.0501" fill="#2B83F6"/>
<rect x="971.343" y="416.802" width="11.4826" height="11.0502" fill="#2B83F6"/>
<rect x="948.378" y="317.351" width="11.4826" height="11.0502" fill="#2B83F6"/>
<rect x="936.896" y="394.702" width="22.9652" height="33.1505" fill="#2B83F6"/>
<rect x="994.309" y="416.802" width="11.4826" height="11.0502" fill="#2B83F6"/>
<rect x="1005.79" y="416.802" width="11.4826" height="11.0502" fill="#2B83F6"/>
<rect x="1005.79" y="405.752" width="11.4826" height="11.0501" fill="#2B83F6"/>
<rect x="1017.27" y="405.752" width="11.4826" height="11.0501" fill="#2B83F6"/>
<rect x="1005.79" y="427.853" width="103.343" height="11.0502" fill="#7CC4F2"/>
<rect x="1017.27" y="416.802" width="11.4826" height="11.0502" fill="#7CC4F2"/>
<rect x="994.309" y="438.903" width="11.4826" height="11.0501" fill="#AB36BE"/>
<rect x="936.896" y="438.903" width="22.9652" height="121.552" fill="#FE500C"/>
<rect x="971.343" y="438.903" width="22.9652" height="55.2507" fill="#FE500C"/>
<rect x="1040.24" y="438.903" width="57.413" height="121.552" fill="#FE500C"/>
<rect x="1040.24" y="438.903" width="11.4826" height="11.0501" fill="#FE500C"/>
<rect x="948.378" y="438.903" width="11.4826" height="11.0501" fill="#FE500C"/>
<rect x="1051.72" y="438.903" width="11.4826" height="11.0501" fill="#FE500C"/>
<rect x="1017.27" y="438.903" width="11.4826" height="11.0501" fill="#AB36BE"/>
<rect x="971.343" y="438.903" width="11.4826" height="11.0501" fill="#FE500C"/>
<rect x="1074.69" y="438.903" width="11.4826" height="11.0501" fill="#FE500C"/>
<rect x="1017.27" y="449.953" width="11.4826" height="110.502" fill="#AB36BE"/>
<rect x="1005.79" y="438.903" width="11.4826" height="11.0501" fill="#AB36BE"/>
<rect x="959.861" y="438.903" width="11.4826" height="11.0501" fill="#FE500C"/>
<rect x="959.861" y="449.953" width="11.4826" height="11.0501" fill="#FE500C"/>
<rect x="959.861" y="461.003" width="11.4826" height="11.0502" fill="#FE500C"/>
<rect x="959.861" y="472.053" width="11.4826" height="11.0501" fill="#FE500C"/>
<rect x="948.378" y="483.104" width="11.4826" height="11.0501" fill="#FE500C"/>
<rect x="971.343" y="483.104" width="22.9652" height="77.3511" fill="#FE500C"/>
<rect x="1063.2" y="438.903" width="11.4826" height="11.0501" fill="#FE500C"/>
<rect x="1005.79" y="449.953" width="11.4826" height="110.502" fill="#AB36BE"/>
<rect x="1028.76" y="438.903" width="11.4826" height="11.0501" fill="#AB36BE"/>
<rect x="982.826" y="438.903" width="11.4826" height="11.0501" fill="#FE500C"/>
<rect x="1086.17" y="438.903" width="11.4826" height="11.0501" fill="#FE500C"/>
<rect x="1028.76" y="416.802" width="11.4826" height="11.0502" fill="#7CC4F2"/>
<rect x="1051.72" y="416.802" width="11.4826" height="11.0502" fill="#7CC4F2"/>
<rect x="1074.69" y="416.802" width="11.4826" height="11.0502" fill="#7CC4F2"/>
<rect x="1097.65" y="416.802" width="11.4826" height="11.0502" fill="#7CC4F2"/>
<rect x="1109.13" y="416.802" width="11.4826" height="11.0502" fill="#7CC4F2"/>
<rect x="1109.13" y="405.752" width="11.4826" height="11.0501" fill="#7CC4F2"/>
<rect x="1028.76" y="405.752" width="11.4826" height="11.0501" fill="#7CC4F2"/>
<rect x="1040.24" y="405.752" width="11.4826" height="11.0501" fill="#7CC4F2"/>
<rect x="1063.2" y="405.752" width="11.4826" height="11.0501" fill="#7CC4F2"/>
<rect x="1086.17" y="405.752" width="11.4826" height="11.0501" fill="#7CC4F2"/>
<rect x="1051.72" y="405.752" width="11.4826" height="11.0501" fill="white"/>
<rect x="1074.69" y="405.752" width="11.4826" height="11.0501" fill="white"/>
<rect x="1097.65" y="405.752" width="11.4826" height="11.0501" fill="white"/>
<rect x="1040.24" y="416.802" width="11.4826" height="11.0502" fill="white"/>
<rect x="1063.2" y="416.802" width="11.4826" height="11.0502" fill="white"/>
<rect x="1086.17" y="416.802" width="11.4826" height="11.0502" fill="white"/>
<rect x="936.896" y="405.752" width="11.4826" height="11.0501" fill="#2B83F6"/>
<rect x="936.896" y="427.853" width="68.8956" height="11.0502" fill="#2B83F6"/>
<rect x="936.896" y="317.351" width="11.4826" height="88.4013" fill="#2B83F6"/>
<rect x="948.378" y="328.401" width="11.4826" height="11.0502" fill="black"/>
<rect x="1028.76" y="328.401" width="11.4826" height="11.0502" fill="black"/>
<rect x="948.378" y="339.451" width="11.4826" height="11.0501" fill="black"/>
<rect x="1028.76" y="339.451" width="11.4826" height="11.0501" fill="black"/>
<rect x="959.861" y="328.401" width="11.4826" height="11.0502" fill="black"/>
<rect x="1040.24" y="328.401" width="11.4826" height="11.0502" fill="black"/>
<rect x="959.861" y="339.451" width="11.4826" height="11.0501" fill="black"/>
<rect x="1040.24" y="339.451" width="11.4826" height="11.0501" fill="black"/>
<rect x="994.309" y="372.602" width="11.4826" height="11.0501" fill="black"/>
<rect x="1074.69" y="372.602" width="11.4826" height="11.0501" fill="black"/>
<rect x="948.378" y="328.401" width="68.8956" height="66.3009" fill="black"/>
<rect x="1028.76" y="328.401" width="68.8956" height="66.3009" fill="black"/>
<rect x="971.343" y="339.451" width="11.4826" height="11.0501" fill="white"/>
<rect x="1051.72" y="339.451" width="11.4826" height="11.0501" fill="white"/>
<rect x="982.826" y="339.451" width="11.4826" height="11.0501" fill="white"/>
<rect x="1063.2" y="339.451" width="11.4826" height="11.0501" fill="white"/>
<rect x="994.309" y="339.451" width="11.4826" height="11.0501" fill="white"/>
<rect x="1074.69" y="339.451" width="11.4826" height="11.0501" fill="white"/>
<rect x="994.309" y="350.501" width="11.4826" height="11.0502" fill="white"/>
<rect x="1074.69" y="350.501" width="11.4826" height="11.0502" fill="white"/>
<rect x="1017.27" y="350.501" width="11.4826" height="11.0502" fill="black"/>
<rect x="936.896" y="350.501" width="11.4826" height="11.0502" fill="black"/>
<rect x="925.413" y="350.501" width="11.4826" height="11.0502" fill="black"/>
<rect x="913.93" y="350.501" width="11.4826" height="11.0502" fill="black"/>
<rect x="913.93" y="361.552" width="11.4826" height="11.0501" fill="black"/>
<rect x="913.93" y="372.602" width="11.4826" height="11.0501" fill="black"/>
<rect x="994.309" y="361.552" width="11.4826" height="11.0501" fill="white"/>
<rect x="1074.69" y="361.552" width="11.4826" height="11.0501" fill="white"/>
<rect x="1120.62" y="361.552" width="11.4826" height="11.0501" fill="#395ED1"/>
<rect x="1120.62" y="372.602" width="11.4826" height="11.0501" fill="#395ED1"/>
<path fill-rule="evenodd" clip-rule="evenodd" d="M982.826 240H994.309H994.309H1005.79H1005.79H1017.27H1017.27H1028.76V251.05H1017.27H1017.27H1005.79H1005.79H994.309H994.309H982.826V240ZM1017.27 251.05H1005.79H1005.79H994.309V262.1H1005.79V273.15H1017.27H1017.27H1028.76V262.1V262.1V251.05H1017.27H1017.27ZM1005.79 273.15H1017.27H1017.27H1028.76V284.201H1017.27H1017.27H1005.79V273.15ZM1017.27 284.201H1005.79V295.251H1017.27H1017.27H1028.76V284.201H1017.27H1017.27ZM1028.76 251.05H1040.24H1040.24H1051.72V262.1V262.1V273.15H1040.24H1040.24H1028.76V262.1V262.1V251.05ZM1028.76 273.15H1040.24H1040.24H1051.72V284.201H1040.24H1040.24H1028.76V273.15ZM1040.24 284.201H1028.76V295.251H1040.24H1040.24H1051.72V284.201H1040.24H1040.24ZM1051.72 262.1H1063.2V273.15H1051.72V262.1ZM1063.2 273.15H1051.72V284.201H1063.2V273.15ZM1051.72 284.201H1063.2H1063.2H1074.69V295.251H1063.2H1063.2H1051.72V284.201Z" fill="#395ED1"/>
</svg>
