<svg width="1280" height="1280" viewBox="0 0 1280 1280" fill="none" xmlns="http://www.w3.org/2000/svg">
<path fill-rule="evenodd" clip-rule="evenodd" d="M360 840L360 1280H400H440L440 1000H480L480 1280H520H560L560 840H520H480H440H400H360ZM720 840L720 1280H760H800H840H880H920L920 840H880H840H800H760H720Z" fill="#FE500C"/>
<path fill-rule="evenodd" clip-rule="evenodd" d="M560 880V840H600H640H680H720V880H680L680 1280H640H600V880H560Z" fill="#AB36BE"/>
<path fill-rule="evenodd" clip-rule="evenodd" d="M560 880L560 1280H600L600 880H560ZM680 880L680 1280H720L720 880H680Z" fill="#E5E5DE"/>
<path fill-rule="evenodd" clip-rule="evenodd" d="M680 760L680 720H720H760H800H840H880H920H960H1000V800H960V840H920H880H840H800H760H720H680H640H600V800H640L640 760H680Z" fill="#7CC4F2"/>
<path fill-rule="evenodd" clip-rule="evenodd" d="M520 840H480H440H400H360L360 400H400H440L440 360H480H520L520 320H560H600H640H680H720H760H800H840H880H920H960V360H1000V400H1040V440H1080V480H1120V560H1080V640H1040V720H1000H960H920H880H840H800H760H720H680L680 760H640L640 800H600L600 840H560H520Z" fill="#2B83F6"/>
<path fill-rule="evenodd" clip-rule="evenodd" d="M120 280V320H160V440H200V520H240L240 640H200L200 760H160V800H200H240L240 720H280L280 680H320L320 640H360V480H320V440H280L280 400H240L240 360H200L200 320H160V280H120Z" fill="#395ED1"/>
<path fill-rule="evenodd" clip-rule="evenodd" d="M520 120V160H560V200H600V320H640H680H720H760H800H840V280H800V200H760V160H720H680V120H640H600H560H520Z" fill="#395ED1"/>
<path fill-rule="evenodd" clip-rule="evenodd" d="M480 720V760H440V800H480V760H520V800H560V760H600V720H560V760H520V720H480Z" fill="#395ED1"/>
<rect x="1000" y="640" width="80" height="40" transform="rotate(-90 1000 640)" fill="#395ED1"/>
<path fill-rule="evenodd" clip-rule="evenodd" d="M560 440H600H640V520H680V440H720H760H800H840H880H920V680H880H840H800H760H720H680V560H640V680H600H560H520H480H440H400V560H360H320L320 640H280L280 520H320H360H400L400 440H440H480H520H560ZM560 480H600V640H560H520H480H440V480H480H520H560ZM880 640H840H800H760H720V480H760H800H840H880V640Z" fill="black"/>
<rect x="560" y="560" width="80" height="40" transform="rotate(-90 560 560)" fill="white"/>
<rect x="840" y="560" width="80" height="40" transform="rotate(-90 840 560)" fill="white"/>
<path fill-rule="evenodd" clip-rule="evenodd" d="M440 480L440 640H480H520L520 480H480H440Z" fill="black"/>
<path fill-rule="evenodd" clip-rule="evenodd" d="M720 480L720 640H760H800L800 480H760H720Z" fill="black"/>
<path fill-rule="evenodd" clip-rule="evenodd" d="M520 480L520 640H560H600V560H560L560 480H520Z" fill="black"/>
<path fill-rule="evenodd" clip-rule="evenodd" d="M800 480L800 640H840H880V560H840L840 480H800Z" fill="black"/>
<path fill-rule="evenodd" clip-rule="evenodd" d="M760 720V760H720V800H760V760H800V800H840V760H880V800H920V760H960V720H920V760H880V720H840V760H800V720H760Z" fill="white"/>
</svg>
