<svg width="1800" height="700" viewBox="0 0 1800 700" fill="none" xmlns="http://www.w3.org/2000/svg">
<path fill-rule="evenodd" clip-rule="evenodd" d="M800 0H900H1000V100H900H800V0ZM1000 100H1100V200V300H1000H900H800V200H900H1000V100ZM0 200H100V100V0H200H300V100H200V200V300H100H0V200ZM200 300H300V400V500V600V700H200H100H0V600V500V400H100H200V300ZM100 500H200V600H100V500ZM1200 200V300H1300V200V100H1400V0H1300H1200V100V200ZM900 400H1000H1100V500V600V700H1000H900H800V600V500V400H900ZM1000 500H900V600H1000V500ZM500 600H400V700H500H600H700V600V500H600V400H500H400V500H500H600V600H500ZM500 0H400V100V200V300H500V200H600V300H700V200V100V0H600V100H500V0ZM1500 0H1600V100H1700V200H1600V300H1500V200V100V0ZM1700 200V300H1800V200H1700ZM1700 100V0H1800V100H1700Z" fill="#3A5ED1"/>
</svg>
