<svg width="790" height="578" viewBox="0 0 790 578" fill="none" xmlns="http://www.w3.org/2000/svg">
<rect x="34.8398" y="361.379" width="2.44" height="2.35238" fill="#395ED1"/>
<rect x="32.3999" y="361.379" width="2.44" height="2.35238" fill="#395ED1"/>
<rect x="20.2002" y="382.55" width="2.44" height="2.35238" fill="#395ED1"/>
<rect x="20.2002" y="387.255" width="2.44" height="2.35238" fill="#395ED1"/>
<rect x="20.2002" y="389.608" width="2.44" height="2.35238" fill="#395ED1"/>
<rect x="15.3198" y="389.608" width="2.44" height="2.35238" fill="#395ED1"/>
<rect x="12.8799" y="391.96" width="2.44" height="2.35238" fill="#395ED1"/>
<rect x="15.3198" y="391.96" width="2.44" height="2.35238" fill="#395ED1"/>
<rect x="17.7598" y="391.96" width="2.44" height="2.35238" fill="#395ED1"/>
<rect x="15.3198" y="394.312" width="2.44" height="2.35238" fill="#395ED1"/>
<rect x="12.8799" y="394.312" width="2.44" height="2.35238" fill="#395ED1"/>
<rect x="12.8799" y="396.665" width="2.44" height="2.35239" fill="#395ED1"/>
<rect x="10.4399" y="399.017" width="2.44" height="2.35238" fill="#395ED1"/>
<rect x="15.3198" y="387.255" width="2.44" height="2.35238" fill="#395ED1"/>
<rect x="15.3198" y="384.903" width="2.44" height="2.35238" fill="#395ED1"/>
<rect x="12.8799" y="382.55" width="2.44" height="2.35238" fill="#395ED1"/>
<rect x="15.3198" y="382.55" width="2.44" height="2.35238" fill="#395ED1"/>
<rect x="17.7598" y="382.55" width="2.44" height="2.35238" fill="#395ED1"/>
<rect x="17.7598" y="380.198" width="2.44" height="2.35238" fill="#395ED1"/>
<rect x="15.3198" y="377.846" width="2.44" height="2.35238" fill="#395ED1"/>
<rect x="12.8799" y="375.493" width="2.44" height="2.35238" fill="#395ED1"/>
<rect x="15.3198" y="380.198" width="2.44" height="2.35238" fill="#395ED1"/>
<rect x="12.8799" y="380.198" width="2.44" height="2.35238" fill="#395ED1"/>
<rect x="10.4399" y="377.846" width="2.44" height="2.35238" fill="#395ED1"/>
<rect x="12.8799" y="377.846" width="2.44" height="2.35238" fill="#395ED1"/>
<rect x="10.4399" y="375.493" width="2.44" height="2.35238" fill="#395ED1"/>
<rect x="10.4399" y="373.141" width="2.44" height="2.35238" fill="#395ED1"/>
<rect x="8" y="370.788" width="2.44" height="2.35238" fill="#395ED1"/>
<rect x="27.52" y="399.017" width="2.44" height="2.35238" fill="#395ED1"/>
<rect x="29.96" y="396.665" width="2.44" height="2.35239" fill="#395ED1"/>
<rect x="32.3999" y="399.017" width="2.44" height="2.35238" fill="#395ED1"/>
<rect x="34.8398" y="396.665" width="2.44" height="2.35239" fill="#395ED1"/>
<rect x="37.2798" y="363.731" width="2.44" height="2.35238" fill="#395ED1"/>
<rect x="34.8398" y="363.731" width="2.44" height="2.35238" fill="#395ED1"/>
<rect x="37.2798" y="366.084" width="2.44" height="2.35238" fill="#395ED1"/>
<rect x="37.2798" y="368.436" width="2.44" height="2.35238" fill="#395ED1"/>
<rect x="37.2798" y="370.788" width="2.44" height="2.35238" fill="#395ED1"/>
<rect x="34.8398" y="373.141" width="17.08" height="2.35238" fill="#2B83F6"/>
<rect x="32.3999" y="375.493" width="24.4" height="2.35238" fill="#2B83F6"/>
<rect x="54.3599" y="373.141" width="4.88" height="2.35238" fill="#2B83F6"/>
<rect x="56.7998" y="375.493" width="4.88" height="18.8191" fill="#2B83F6"/>
<rect x="61.6802" y="377.846" width="2.44" height="16.4667" fill="#2B83F6"/>
<rect x="64.1201" y="380.198" width="2.43999" height="7.05715" fill="#2B83F6"/>
<rect x="66.5601" y="382.55" width="2.44" height="2.35238" fill="#2B83F6"/>
<rect x="66.5601" y="384.903" width="2.44" height="2.35238" fill="#2B83F6"/>
<rect x="59.2402" y="380.198" width="2.44" height="2.35238" fill="#2B83F6"/>
<rect x="59.2402" y="382.55" width="2.44" height="11.7619" fill="#2B83F6"/>
<rect x="64.1201" y="387.255" width="2.43999" height="2.35238" fill="#2B83F6"/>
<rect x="64.1201" y="389.608" width="2.43999" height="2.35238" fill="#2B83F6"/>
<rect x="61.6802" y="391.96" width="2.44" height="2.35238" fill="#2B83F6"/>
<rect x="61.6802" y="394.312" width="2.44" height="2.35238" fill="#2B83F6"/>
<rect x="29.96" y="375.493" width="2.44" height="2.35238" fill="#2B83F6"/>
<rect x="27.52" y="377.846" width="34.16" height="2.35238" fill="#2B83F6"/>
<rect x="27.52" y="394.312" width="34.16" height="2.35238" fill="#2B83F6"/>
<rect x="32.3999" y="373.141" width="2.44" height="2.35238" fill="#2B83F6"/>
<rect x="51.9199" y="373.141" width="2.44" height="2.35238" fill="#2B83F6"/>
<rect x="27.52" y="375.493" width="2.44" height="2.35238" fill="#2B83F6"/>
<rect x="39.7202" y="380.198" width="2.44" height="4.70477" fill="#2B83F6"/>
<rect x="39.7202" y="387.255" width="2.44" height="7.05715" fill="#2B83F6"/>
<rect x="27.52" y="396.665" width="2.44" height="2.35239" fill="#2B83F6"/>
<rect x="32.3999" y="396.665" width="2.44" height="2.35239" fill="#2B83F6"/>
<rect x="29.96" y="399.017" width="2.44" height="2.35238" fill="#2B83F6"/>
<rect x="25.0801" y="377.846" width="2.44" height="2.35238" fill="#2B83F6"/>
<rect x="22.6401" y="394.312" width="4.88" height="7.05715" fill="#2B83F6"/>
<rect x="34.8398" y="399.017" width="2.44" height="2.35238" fill="#2B83F6"/>
<rect x="37.2798" y="399.017" width="2.44" height="2.35238" fill="#2B83F6"/>
<rect x="37.2798" y="396.665" width="2.44" height="2.35239" fill="#2B83F6"/>
<rect x="39.7202" y="396.665" width="2.44" height="2.35239" fill="#2B83F6"/>
<rect x="37.2798" y="401.369" width="21.96" height="2.35238" fill="#7CC4F2"/>
<rect x="39.7202" y="399.017" width="2.44" height="2.35238" fill="#7CC4F2"/>
<rect x="42.1602" y="399.017" width="2.43999" height="2.35238" fill="#7CC4F2"/>
<rect x="47.04" y="399.017" width="2.44" height="2.35238" fill="#7CC4F2"/>
<rect x="51.9199" y="399.017" width="2.44" height="2.35238" fill="#7CC4F2"/>
<rect x="56.7998" y="399.017" width="2.44" height="2.35238" fill="#7CC4F2"/>
<rect x="59.2402" y="399.017" width="2.44" height="2.35238" fill="#7CC4F2"/>
<rect x="59.2402" y="396.665" width="2.44" height="2.35239" fill="#7CC4F2"/>
<rect x="42.1602" y="396.665" width="2.43999" height="2.35239" fill="#7CC4F2"/>
<rect x="44.6001" y="396.665" width="2.44001" height="2.35239" fill="#7CC4F2"/>
<rect x="49.48" y="396.665" width="2.44" height="2.35239" fill="#7CC4F2"/>
<rect x="54.3599" y="396.665" width="2.44" height="2.35239" fill="#7CC4F2"/>
<rect x="47.04" y="396.665" width="2.44" height="2.35239" fill="white"/>
<rect x="51.9199" y="396.665" width="2.44" height="2.35239" fill="white"/>
<rect x="56.7998" y="396.665" width="2.44" height="2.35239" fill="white"/>
<rect x="44.6001" y="399.017" width="2.44001" height="2.35238" fill="white"/>
<rect x="49.48" y="399.017" width="2.44" height="2.35238" fill="white"/>
<rect x="54.3599" y="399.017" width="2.44" height="2.35238" fill="white"/>
<rect x="22.6401" y="396.665" width="2.44" height="2.35239" fill="#2B83F6"/>
<rect x="22.6401" y="401.369" width="14.64" height="2.35238" fill="#2B83F6"/>
<rect x="22.6401" y="377.846" width="2.44" height="18.8191" fill="#2B83F6"/>
<rect x="25.0801" y="380.198" width="2.44" height="2.35238" fill="black"/>
<rect x="42.1602" y="380.198" width="2.43999" height="2.35238" fill="black"/>
<rect x="25.0801" y="382.55" width="2.44" height="2.35238" fill="black"/>
<rect x="42.1602" y="382.55" width="2.43999" height="2.35238" fill="black"/>
<rect x="27.52" y="380.198" width="2.44" height="2.35238" fill="black"/>
<rect x="44.6001" y="380.198" width="2.44001" height="2.35238" fill="black"/>
<rect x="27.52" y="382.55" width="2.44" height="2.35238" fill="black"/>
<rect x="44.6001" y="382.55" width="2.44001" height="2.35238" fill="black"/>
<rect x="34.8398" y="389.608" width="2.44" height="2.35238" fill="black"/>
<rect x="51.9199" y="389.608" width="2.44" height="2.35238" fill="black"/>
<rect x="25.0801" y="380.198" width="14.64" height="14.1143" fill="#FF638D"/>
<rect x="42.1602" y="380.198" width="14.64" height="14.1143" fill="#FF638D"/>
<rect x="29.96" y="382.55" width="2.44" height="2.35238" fill="white"/>
<rect x="27.52" y="382.55" width="4.88" height="9.40953" fill="white"/>
<rect x="32.3999" y="382.55" width="4.88" height="9.40953" fill="black"/>
<rect x="27.52" y="384.903" width="2.44" height="2.35238" fill="white"/>
<rect x="27.52" y="387.255" width="2.44" height="2.35238" fill="white"/>
<rect x="27.52" y="389.608" width="2.44" height="2.35238" fill="white"/>
<rect x="29.96" y="389.608" width="2.44" height="2.35238" fill="white"/>
<rect x="29.96" y="387.255" width="2.44" height="2.35238" fill="white"/>
<rect x="29.96" y="384.903" width="2.44" height="2.35238" fill="white"/>
<rect x="47.04" y="382.55" width="2.44" height="2.35238" fill="white"/>
<rect x="49.48" y="382.55" width="2.44" height="2.35238" fill="white"/>
<rect x="51.9199" y="382.55" width="2.44" height="2.35238" fill="white"/>
<rect x="51.9199" y="384.903" width="2.44" height="2.35238" fill="white"/>
<rect x="39.7202" y="384.903" width="2.44" height="2.35238" fill="#FF638D"/>
<rect x="39.7202" y="387.255" width="2.44" height="2.35238" fill="#FF638D"/>
<rect x="22.6401" y="384.903" width="2.44" height="2.35238" fill="#FF638D"/>
<rect x="22.6401" y="387.255" width="2.44" height="2.35238" fill="#FF638D"/>
<rect x="20.2002" y="384.903" width="2.44" height="2.35238" fill="#FF638D"/>
<rect x="20.2002" y="387.255" width="2.44" height="2.35238" fill="#FF638D"/>
<rect x="17.7598" y="384.903" width="2.44" height="2.35238" fill="#FF638D"/>
<rect x="17.7598" y="387.255" width="2.44" height="2.35238" fill="#FF638D"/>
<rect x="17.7598" y="389.608" width="2.44" height="2.35238" fill="#FF638D"/>
<rect x="51.9199" y="387.255" width="2.44" height="2.35238" fill="white"/>
<rect x="39.7202" y="363.731" width="2.44" height="2.35238" fill="#395ED1"/>
<rect x="39.7202" y="366.084" width="2.44" height="2.35238" fill="#395ED1"/>
<rect x="39.7202" y="368.436" width="2.44" height="2.35238" fill="#395ED1"/>
<rect x="39.7202" y="370.788" width="2.44" height="2.35238" fill="#395ED1"/>
<rect x="42.1602" y="363.731" width="2.43999" height="2.35238" fill="#395ED1"/>
<rect x="42.1602" y="366.084" width="2.43999" height="2.35238" fill="#395ED1"/>
<rect x="42.1602" y="368.436" width="2.43999" height="2.35238" fill="#395ED1"/>
<rect x="42.1602" y="370.788" width="2.43999" height="2.35238" fill="#395ED1"/>
<rect x="44.6001" y="363.731" width="2.44001" height="2.35238" fill="#395ED1"/>
<rect x="44.6001" y="366.084" width="2.44001" height="2.35238" fill="#395ED1"/>
<rect x="44.6001" y="368.436" width="2.44001" height="2.35238" fill="#395ED1"/>
<rect x="44.6001" y="370.788" width="2.44001" height="2.35238" fill="#395ED1"/>
<rect x="47.04" y="366.084" width="2.44" height="2.35238" fill="#395ED1"/>
<rect x="61.6802" y="387.255" width="2.44" height="2.35238" fill="#395ED1"/>
<rect x="47.04" y="368.436" width="2.44" height="2.35238" fill="#395ED1"/>
<rect x="61.6802" y="389.608" width="2.44" height="2.35238" fill="#395ED1"/>
<rect x="47.04" y="370.788" width="2.44" height="2.35238" fill="#395ED1"/>
<rect x="49.48" y="370.788" width="2.44" height="2.35238" fill="#395ED1"/>
<rect x="37.2798" y="361.379" width="2.44" height="2.35238" fill="#395ED1"/>
<rect x="39.7202" y="361.379" width="2.44" height="2.35238" fill="#395ED1"/>
<rect x="44.6001" y="382.55" width="4.88001" height="9.40953" fill="white"/>
<rect x="49.48" y="382.55" width="4.88" height="9.40953" fill="black"/>
<rect width="2.44" height="2.35239" transform="matrix(-1 0 0 1 763.16 172.76)" fill="#395ED1"/>
<rect width="2.44" height="2.35239" transform="matrix(-1 0 0 1 765.6 172.76)" fill="#395ED1"/>
<rect width="2.44" height="2.35239" transform="matrix(-1 0 0 1 777.8 193.932)" fill="#395ED1"/>
<rect width="2.44" height="2.35239" transform="matrix(-1 0 0 1 777.8 198.637)" fill="#395ED1"/>
<rect width="2.44" height="2.35239" transform="matrix(-1 0 0 1 777.8 200.989)" fill="#395ED1"/>
<rect width="2.44" height="2.35239" transform="matrix(-1 0 0 1 782.68 200.989)" fill="#395ED1"/>
<rect width="2.44" height="2.35239" transform="matrix(-1 0 0 1 785.12 203.341)" fill="#395ED1"/>
<rect width="2.44" height="2.35239" transform="matrix(-1 0 0 1 782.68 203.341)" fill="#395ED1"/>
<rect width="2.44" height="2.35239" transform="matrix(-1 0 0 1 780.24 203.341)" fill="#395ED1"/>
<rect width="2.44" height="2.35239" transform="matrix(-1 0 0 1 782.68 205.694)" fill="#395ED1"/>
<rect width="2.44" height="2.35239" transform="matrix(-1 0 0 1 785.12 205.694)" fill="#395ED1"/>
<rect width="2.44" height="2.35239" transform="matrix(-1 0 0 1 785.12 208.046)" fill="#395ED1"/>
<rect width="2.44" height="2.35239" transform="matrix(-1 0 0 1 787.56 210.399)" fill="#395ED1"/>
<rect width="2.44" height="2.35239" transform="matrix(-1 0 0 1 782.68 198.637)" fill="#395ED1"/>
<rect width="2.44" height="2.35238" transform="matrix(-1 0 0 1 782.68 196.284)" fill="#395ED1"/>
<rect width="2.44" height="2.35239" transform="matrix(-1 0 0 1 785.12 193.932)" fill="#395ED1"/>
<rect width="2.44" height="2.35239" transform="matrix(-1 0 0 1 782.68 193.932)" fill="#395ED1"/>
<rect width="2.44" height="2.35239" transform="matrix(-1 0 0 1 780.24 193.932)" fill="#395ED1"/>
<rect width="2.44" height="2.35239" transform="matrix(-1 0 0 1 780.24 191.579)" fill="#395ED1"/>
<rect width="2.44" height="2.35239" transform="matrix(-1 0 0 1 782.68 189.227)" fill="#395ED1"/>
<rect width="2.44" height="2.35239" transform="matrix(-1 0 0 1 785.12 186.875)" fill="#395ED1"/>
<rect width="2.44" height="2.35239" transform="matrix(-1 0 0 1 782.68 191.579)" fill="#395ED1"/>
<rect width="2.44" height="2.35239" transform="matrix(-1 0 0 1 785.12 191.579)" fill="#395ED1"/>
<rect width="2.44" height="2.35239" transform="matrix(-1 0 0 1 787.56 189.227)" fill="#395ED1"/>
<rect width="2.44" height="2.35239" transform="matrix(-1 0 0 1 785.12 189.227)" fill="#395ED1"/>
<rect width="2.44" height="2.35239" transform="matrix(-1 0 0 1 787.56 186.875)" fill="#395ED1"/>
<rect width="2.44" height="2.35239" transform="matrix(-1 0 0 1 787.56 184.522)" fill="#395ED1"/>
<rect width="2.44" height="2.35239" transform="matrix(-1 0 0 1 790 182.17)" fill="#395ED1"/>
<rect width="2.44" height="2.35239" transform="matrix(-1 0 0 1 770.48 210.399)" fill="#395ED1"/>
<rect width="2.44" height="2.35239" transform="matrix(-1 0 0 1 768.04 208.046)" fill="#395ED1"/>
<rect width="2.44" height="2.35239" transform="matrix(-1 0 0 1 765.6 210.399)" fill="#395ED1"/>
<rect width="2.44" height="2.35239" transform="matrix(-1 0 0 1 763.16 208.046)" fill="#395ED1"/>
<rect width="2.44" height="2.35239" transform="matrix(-1 0 0 1 760.72 175.113)" fill="#395ED1"/>
<rect width="2.44" height="2.35239" transform="matrix(-1 0 0 1 763.16 175.113)" fill="#395ED1"/>
<rect width="2.44" height="2.35239" transform="matrix(-1 0 0 1 760.72 177.465)" fill="#395ED1"/>
<rect width="2.44" height="2.35239" transform="matrix(-1 0 0 1 760.72 179.818)" fill="#395ED1"/>
<rect width="2.44" height="2.35239" transform="matrix(-1 0 0 1 760.72 182.17)" fill="#395ED1"/>
<rect width="17.08" height="2.35239" transform="matrix(-1 0 0 1 763.16 184.522)" fill="#2B83F6"/>
<rect width="24.4" height="2.35239" transform="matrix(-1 0 0 1 765.6 186.875)" fill="#2B83F6"/>
<rect width="4.88" height="2.35239" transform="matrix(-1 0 0 1 743.64 184.522)" fill="#2B83F6"/>
<rect width="4.88" height="18.8191" transform="matrix(-1 0 0 1 741.2 186.875)" fill="#2B83F6"/>
<rect width="2.44" height="16.4667" transform="matrix(-1 0 0 1 736.32 189.227)" fill="#2B83F6"/>
<rect width="2.43999" height="7.05716" transform="matrix(-1 0 0 1 733.88 191.579)" fill="#2B83F6"/>
<rect width="2.44" height="2.35239" transform="matrix(-1 0 0 1 731.44 193.932)" fill="#2B83F6"/>
<rect width="2.44" height="2.35238" transform="matrix(-1 0 0 1 731.44 196.284)" fill="#2B83F6"/>
<rect width="2.44" height="2.35239" transform="matrix(-1 0 0 1 738.76 191.579)" fill="#2B83F6"/>
<rect width="2.44" height="11.7619" transform="matrix(-1 0 0 1 738.76 193.932)" fill="#2B83F6"/>
<rect width="2.43999" height="2.35239" transform="matrix(-1 0 0 1 733.88 198.637)" fill="#2B83F6"/>
<rect width="2.43999" height="2.35239" transform="matrix(-1 0 0 1 733.88 200.989)" fill="#2B83F6"/>
<rect width="2.44" height="2.35239" transform="matrix(-1 0 0 1 736.32 203.341)" fill="#2B83F6"/>
<rect width="2.44" height="2.35239" transform="matrix(-1 0 0 1 736.32 205.694)" fill="#2B83F6"/>
<rect width="2.44" height="2.35239" transform="matrix(-1 0 0 1 768.04 186.875)" fill="#2B83F6"/>
<rect width="34.16" height="2.35239" transform="matrix(-1 0 0 1 770.48 189.227)" fill="#2B83F6"/>
<rect width="34.16" height="2.35239" transform="matrix(-1 0 0 1 770.48 205.694)" fill="#2B83F6"/>
<rect width="2.44" height="2.35239" transform="matrix(-1 0 0 1 765.6 184.522)" fill="#2B83F6"/>
<rect width="2.44" height="2.35239" transform="matrix(-1 0 0 1 746.08 184.522)" fill="#2B83F6"/>
<rect width="2.44" height="2.35239" transform="matrix(-1 0 0 1 770.48 186.875)" fill="#2B83F6"/>
<rect width="2.44" height="4.70477" transform="matrix(-1 0 0 1 758.28 191.579)" fill="#2B83F6"/>
<rect width="2.44" height="7.05716" transform="matrix(-1 0 0 1 758.28 198.637)" fill="#2B83F6"/>
<rect width="2.44" height="2.35239" transform="matrix(-1 0 0 1 770.48 208.046)" fill="#2B83F6"/>
<rect width="2.44" height="2.35239" transform="matrix(-1 0 0 1 765.6 208.046)" fill="#2B83F6"/>
<rect width="2.44" height="2.35239" transform="matrix(-1 0 0 1 768.04 210.399)" fill="#2B83F6"/>
<rect width="2.44" height="2.35239" transform="matrix(-1 0 0 1 772.92 189.227)" fill="#2B83F6"/>
<rect width="4.88" height="7.05716" transform="matrix(-1 0 0 1 775.36 205.694)" fill="#2B83F6"/>
<rect width="2.44" height="2.35239" transform="matrix(-1 0 0 1 763.16 210.399)" fill="#2B83F6"/>
<rect width="2.44" height="2.35239" transform="matrix(-1 0 0 1 760.72 210.399)" fill="#2B83F6"/>
<rect width="2.44" height="2.35239" transform="matrix(-1 0 0 1 760.72 208.046)" fill="#2B83F6"/>
<rect width="2.44" height="2.35239" transform="matrix(-1 0 0 1 758.28 208.046)" fill="#2B83F6"/>
<rect width="21.96" height="2.35239" transform="matrix(-1 0 0 1 760.72 212.751)" fill="#7CC4F2"/>
<rect width="2.44" height="2.35239" transform="matrix(-1 0 0 1 758.28 210.399)" fill="#7CC4F2"/>
<rect width="2.43999" height="2.35239" transform="matrix(-1 0 0 1 755.84 210.399)" fill="#7CC4F2"/>
<rect width="2.44" height="2.35239" transform="matrix(-1 0 0 1 750.96 210.399)" fill="#7CC4F2"/>
<rect width="2.44" height="2.35239" transform="matrix(-1 0 0 1 746.08 210.399)" fill="#7CC4F2"/>
<rect width="2.44" height="2.35239" transform="matrix(-1 0 0 1 741.2 210.399)" fill="#7CC4F2"/>
<rect width="2.44" height="2.35239" transform="matrix(-1 0 0 1 738.76 210.399)" fill="#7CC4F2"/>
<rect width="2.44" height="2.35239" transform="matrix(-1 0 0 1 738.76 208.046)" fill="#7CC4F2"/>
<rect width="2.43999" height="2.35239" transform="matrix(-1 0 0 1 755.84 208.046)" fill="#7CC4F2"/>
<rect width="2.44001" height="2.35239" transform="matrix(-1 0 0 1 753.4 208.046)" fill="#7CC4F2"/>
<rect width="2.44" height="2.35239" transform="matrix(-1 0 0 1 748.52 208.046)" fill="#7CC4F2"/>
<rect width="2.44" height="2.35239" transform="matrix(-1 0 0 1 743.64 208.046)" fill="#7CC4F2"/>
<rect width="2.44" height="2.35239" transform="matrix(-1 0 0 1 750.96 208.046)" fill="white"/>
<rect width="2.44" height="2.35239" transform="matrix(-1 0 0 1 746.08 208.046)" fill="white"/>
<rect width="2.44" height="2.35239" transform="matrix(-1 0 0 1 741.2 208.046)" fill="white"/>
<rect width="2.44001" height="2.35239" transform="matrix(-1 0 0 1 753.4 210.399)" fill="white"/>
<rect width="2.44" height="2.35239" transform="matrix(-1 0 0 1 748.52 210.399)" fill="white"/>
<rect width="2.44" height="2.35239" transform="matrix(-1 0 0 1 743.64 210.399)" fill="white"/>
<rect width="2.44" height="2.35239" transform="matrix(-1 0 0 1 775.36 208.046)" fill="#2B83F6"/>
<rect width="14.64" height="2.35239" transform="matrix(-1 0 0 1 775.36 212.751)" fill="#2B83F6"/>
<rect width="2.44" height="18.8191" transform="matrix(-1 0 0 1 775.36 189.227)" fill="#2B83F6"/>
<rect width="2.44" height="2.35239" transform="matrix(-1 0 0 1 772.92 191.579)" fill="black"/>
<rect width="2.43999" height="2.35239" transform="matrix(-1 0 0 1 755.84 191.579)" fill="black"/>
<rect width="2.44" height="2.35239" transform="matrix(-1 0 0 1 772.92 193.932)" fill="black"/>
<rect width="2.43999" height="2.35239" transform="matrix(-1 0 0 1 755.84 193.932)" fill="black"/>
<rect width="2.44" height="2.35239" transform="matrix(-1 0 0 1 770.48 191.579)" fill="black"/>
<rect width="2.44001" height="2.35239" transform="matrix(-1 0 0 1 753.4 191.579)" fill="black"/>
<rect width="2.44" height="2.35239" transform="matrix(-1 0 0 1 770.48 193.932)" fill="black"/>
<rect width="2.44001" height="2.35239" transform="matrix(-1 0 0 1 753.4 193.932)" fill="black"/>
<rect width="2.44" height="2.35239" transform="matrix(-1 0 0 1 763.16 200.989)" fill="black"/>
<rect width="2.44" height="2.35239" transform="matrix(-1 0 0 1 746.08 200.989)" fill="black"/>
<rect width="14.64" height="14.1143" transform="matrix(-1 0 0 1 772.92 191.579)" fill="#FF638D"/>
<rect width="14.64" height="14.1143" transform="matrix(-1 0 0 1 755.84 191.579)" fill="#FF638D"/>
<rect width="2.44" height="2.35239" transform="matrix(-1 0 0 1 768.04 193.932)" fill="white"/>
<rect width="4.88" height="9.40955" transform="matrix(-1 0 0 1 770.48 193.932)" fill="white"/>
<rect width="4.88" height="9.40955" transform="matrix(-1 0 0 1 765.6 193.932)" fill="black"/>
<rect width="2.44" height="2.35238" transform="matrix(-1 0 0 1 770.48 196.284)" fill="white"/>
<rect width="2.44" height="2.35239" transform="matrix(-1 0 0 1 770.48 198.637)" fill="white"/>
<rect width="2.44" height="2.35239" transform="matrix(-1 0 0 1 770.48 200.989)" fill="white"/>
<rect width="2.44" height="2.35239" transform="matrix(-1 0 0 1 768.04 200.989)" fill="white"/>
<rect width="2.44" height="2.35239" transform="matrix(-1 0 0 1 768.04 198.637)" fill="white"/>
<rect width="2.44" height="2.35238" transform="matrix(-1 0 0 1 768.04 196.284)" fill="white"/>
<rect width="2.44" height="2.35239" transform="matrix(-1 0 0 1 750.96 193.932)" fill="white"/>
<rect width="2.44" height="2.35239" transform="matrix(-1 0 0 1 748.52 193.932)" fill="white"/>
<rect width="2.44" height="2.35239" transform="matrix(-1 0 0 1 746.08 193.932)" fill="white"/>
<rect width="2.44" height="2.35238" transform="matrix(-1 0 0 1 746.08 196.284)" fill="white"/>
<rect width="2.44" height="2.35238" transform="matrix(-1 0 0 1 758.28 196.284)" fill="#FF638D"/>
<rect width="2.44" height="2.35239" transform="matrix(-1 0 0 1 758.28 198.637)" fill="#FF638D"/>
<rect width="2.44" height="2.35238" transform="matrix(-1 0 0 1 775.36 196.284)" fill="#FF638D"/>
<rect width="2.44" height="2.35239" transform="matrix(-1 0 0 1 775.36 198.637)" fill="#FF638D"/>
<rect width="2.44" height="2.35238" transform="matrix(-1 0 0 1 777.8 196.284)" fill="#FF638D"/>
<rect width="2.44" height="2.35239" transform="matrix(-1 0 0 1 777.8 198.637)" fill="#FF638D"/>
<rect width="2.44" height="2.35238" transform="matrix(-1 0 0 1 780.24 196.284)" fill="#FF638D"/>
<rect width="2.44" height="2.35239" transform="matrix(-1 0 0 1 780.24 198.637)" fill="#FF638D"/>
<rect width="2.44" height="2.35239" transform="matrix(-1 0 0 1 780.24 200.989)" fill="#FF638D"/>
<rect width="2.44" height="2.35239" transform="matrix(-1 0 0 1 746.08 198.637)" fill="white"/>
<rect width="2.44" height="2.35239" transform="matrix(-1 0 0 1 758.28 175.113)" fill="#395ED1"/>
<rect width="2.44" height="2.35239" transform="matrix(-1 0 0 1 758.28 177.465)" fill="#395ED1"/>
<rect width="2.44" height="2.35239" transform="matrix(-1 0 0 1 758.28 179.818)" fill="#395ED1"/>
<rect width="2.44" height="2.35239" transform="matrix(-1 0 0 1 758.28 182.17)" fill="#395ED1"/>
<rect width="2.43999" height="2.35239" transform="matrix(-1 0 0 1 755.84 175.113)" fill="#395ED1"/>
<rect width="2.43999" height="2.35239" transform="matrix(-1 0 0 1 755.84 177.465)" fill="#395ED1"/>
<rect width="2.43999" height="2.35239" transform="matrix(-1 0 0 1 755.84 179.818)" fill="#395ED1"/>
<rect width="2.43999" height="2.35239" transform="matrix(-1 0 0 1 755.84 182.17)" fill="#395ED1"/>
<rect width="2.44001" height="2.35239" transform="matrix(-1 0 0 1 753.4 175.113)" fill="#395ED1"/>
<rect width="2.44001" height="2.35239" transform="matrix(-1 0 0 1 753.4 177.465)" fill="#395ED1"/>
<rect width="2.44001" height="2.35239" transform="matrix(-1 0 0 1 753.4 179.818)" fill="#395ED1"/>
<rect width="2.44001" height="2.35239" transform="matrix(-1 0 0 1 753.4 182.17)" fill="#395ED1"/>
<rect width="2.44" height="2.35239" transform="matrix(-1 0 0 1 750.96 177.465)" fill="#395ED1"/>
<rect width="2.44" height="2.35239" transform="matrix(-1 0 0 1 736.32 198.637)" fill="#395ED1"/>
<rect width="2.44" height="2.35239" transform="matrix(-1 0 0 1 750.96 179.818)" fill="#395ED1"/>
<rect width="2.44" height="2.35239" transform="matrix(-1 0 0 1 736.32 200.989)" fill="#395ED1"/>
<rect width="2.44" height="2.35239" transform="matrix(-1 0 0 1 750.96 182.17)" fill="#395ED1"/>
<rect width="2.44" height="2.35239" transform="matrix(-1 0 0 1 748.52 182.17)" fill="#395ED1"/>
<rect width="2.44" height="2.35239" transform="matrix(-1 0 0 1 760.72 172.76)" fill="#395ED1"/>
<rect width="2.44" height="2.35239" transform="matrix(-1 0 0 1 758.28 172.76)" fill="#395ED1"/>
<rect width="4.88001" height="9.40955" transform="matrix(-1 0 0 1 753.4 193.932)" fill="white"/>
<rect width="4.88" height="9.40955" transform="matrix(-1 0 0 1 748.52 193.932)" fill="black"/>
<path d="M96.6646 32.6L90.6166 83H85.1446L82.4806 56.576L82.1206 43.76H82.4086L81.5446 56.504L78.0886 83H71.8966L67.2166 32.6H73.6966L75.3526 56.504L75.8566 71.336H75.5686L76.5766 56.504L78.9526 32.816H86.0806L88.0246 56.504L88.3846 72.848H88.0966L88.8886 56.504L90.9766 32.6H96.6646ZM124.947 71.336C124.227 75.512 122.739 78.608 120.483 80.624C118.275 82.64 115.731 83.648 112.851 83.648C110.547 83.648 108.435 83 106.515 81.704C104.595 80.408 103.035 78.368 101.835 75.584C100.683 72.752 100.107 69.2 100.107 64.928C100.107 60.656 100.683 57.128 101.835 54.344C103.035 51.56 104.595 49.52 106.515 48.224C108.483 46.928 110.643 46.28 112.995 46.28C116.835 46.28 119.763 47.792 121.779 50.816C123.843 53.84 124.875 58.208 124.875 63.92V66.872H107.091C107.235 70.568 107.763 73.28 108.675 75.008C109.635 76.736 111.027 77.6 112.851 77.6C116.067 77.6 118.035 75.512 118.755 71.336H124.947ZM112.995 52.328C109.683 52.328 107.763 55.376 107.235 61.472H118.467C118.179 55.376 116.355 52.328 112.995 52.328ZM146.389 31.88V83H139.621V31.88H146.389ZM185.758 70.688C185.614 73.712 184.942 76.184 183.742 78.104C182.542 80.024 181.054 81.44 179.278 82.352C177.55 83.216 175.726 83.648 173.806 83.648C171.502 83.648 169.39 83 167.47 81.704C165.55 80.408 163.99 78.368 162.79 75.584C161.638 72.752 161.062 69.2 161.062 64.928C161.062 60.656 161.638 57.128 162.79 54.344C163.99 51.56 165.55 49.52 167.47 48.224C169.39 46.928 171.502 46.28 173.806 46.28C175.87 46.28 177.814 46.76 179.638 47.72C181.462 48.68 182.926 50.144 184.03 52.112C185.182 54.032 185.758 56.384 185.758 59.168H178.918C178.966 57.2 178.534 55.616 177.622 54.416C176.758 53.216 175.558 52.616 174.022 52.616C172.15 52.616 170.686 53.696 169.63 55.856C168.574 58.016 168.046 61.04 168.046 64.928C168.046 68.864 168.574 71.912 169.63 74.072C170.686 76.232 172.15 77.312 174.022 77.312C175.558 77.312 176.758 76.736 177.622 75.584C178.534 74.384 178.966 72.752 178.918 70.688H185.758ZM204.248 83.72C200.264 83.72 197.216 82.112 195.104 78.896C192.992 75.632 191.936 70.976 191.936 64.928C191.936 58.928 192.992 54.32 195.104 51.104C197.216 47.888 200.264 46.28 204.248 46.28C208.232 46.28 211.28 47.888 213.392 51.104C215.552 54.32 216.632 58.928 216.632 64.928C216.632 70.976 215.552 75.632 213.392 78.896C211.28 82.112 208.232 83.72 204.248 83.72ZM204.248 77.384C206.072 77.384 207.416 76.376 208.28 74.36C209.144 72.344 209.576 69.2 209.576 64.928C209.576 60.704 209.144 57.608 208.28 55.64C207.416 53.624 206.072 52.616 204.248 52.616C202.424 52.616 201.08 53.624 200.216 55.64C199.352 57.608 198.92 60.704 198.92 64.928C198.92 69.2 199.352 72.344 200.216 74.36C201.08 76.376 202.424 77.384 204.248 77.384ZM242.97 46.28C244.458 46.28 245.61 46.688 246.426 47.504C247.242 48.272 247.818 49.544 248.154 51.32C248.49 53.048 248.658 55.448 248.658 58.52V83H242.61V57.08C242.61 55.4 242.49 54.176 242.25 53.408C242.058 52.64 241.722 52.256 241.242 52.256C240.282 52.256 239.514 53.072 238.938 54.704C238.41 56.336 238.146 58.64 238.146 61.616V83H232.098V57.08C232.098 53.864 231.57 52.256 230.514 52.256C229.65 52.256 228.954 53.096 228.426 54.776C227.898 56.456 227.634 58.736 227.634 61.616V83H221.586V57.152L221.226 47H226.338L226.914 51.608H226.626C227.826 48.056 229.722 46.28 232.314 46.28C234.858 46.28 236.538 47.792 237.354 50.816C238.746 47.792 240.618 46.28 242.97 46.28ZM277.876 71.336C277.156 75.512 275.668 78.608 273.412 80.624C271.204 82.64 268.66 83.648 265.78 83.648C263.476 83.648 261.364 83 259.444 81.704C257.524 80.408 255.964 78.368 254.764 75.584C253.612 72.752 253.036 69.2 253.036 64.928C253.036 60.656 253.612 57.128 254.764 54.344C255.964 51.56 257.524 49.52 259.444 48.224C261.412 46.928 263.572 46.28 265.924 46.28C269.764 46.28 272.692 47.792 274.708 50.816C276.772 53.84 277.804 58.208 277.804 63.92V66.872H260.02C260.164 70.568 260.692 73.28 261.604 75.008C262.564 76.736 263.956 77.6 265.78 77.6C268.996 77.6 270.964 75.512 271.684 71.336H277.876ZM265.924 52.328C262.612 52.328 260.692 55.376 260.164 61.472H271.396C271.108 55.376 269.284 52.328 265.924 52.328ZM339.12 77.24V83.36H331.488C328.656 83.36 326.496 82.616 325.008 81.128C323.568 79.592 322.848 77.36 322.848 74.432V52.76H315.072V47H322.848V36.344H329.616V47H337.896V52.76H329.616V71.264C329.616 72.944 329.712 74.216 329.904 75.08C330.096 75.896 330.432 76.472 330.912 76.808C331.44 77.096 332.184 77.24 333.144 77.24H339.12ZM357.178 83.72C353.194 83.72 350.146 82.112 348.034 78.896C345.922 75.632 344.866 70.976 344.866 64.928C344.866 58.928 345.922 54.32 348.034 51.104C350.146 47.888 353.194 46.28 357.178 46.28C361.162 46.28 364.21 47.888 366.322 51.104C368.482 54.32 369.562 58.928 369.562 64.928C369.562 70.976 368.482 75.632 366.322 78.896C364.21 82.112 361.162 83.72 357.178 83.72ZM357.178 77.384C359.002 77.384 360.346 76.376 361.21 74.36C362.074 72.344 362.506 69.2 362.506 64.928C362.506 60.704 362.074 57.608 361.21 55.64C360.346 53.624 359.002 52.616 357.178 52.616C355.354 52.616 354.01 53.624 353.146 55.64C352.282 57.608 351.85 60.704 351.85 64.928C351.85 69.2 352.282 72.344 353.146 74.36C354.01 76.376 355.354 77.384 357.178 77.384ZM405.03 65.936H411.798V68.672C411.798 74.624 413.862 77.6 417.99 77.6C420.054 77.6 421.71 76.976 422.958 75.728C424.206 74.48 424.83 72.8 424.83 70.688C424.83 69.008 424.446 67.52 423.678 66.224C422.958 64.928 422.046 63.8 420.942 62.84C419.838 61.88 418.326 60.704 416.406 59.312C414.198 57.776 412.422 56.408 411.078 55.208C409.734 53.96 408.582 52.448 407.622 50.672C406.662 48.896 406.182 46.832 406.182 44.48C406.182 42.128 406.662 39.992 407.622 38.072C408.582 36.152 409.95 34.64 411.726 33.536C413.502 32.432 415.59 31.88 417.99 31.88C420.438 31.88 422.574 32.48 424.398 33.68C426.27 34.832 427.686 36.416 428.646 38.432C429.654 40.4 430.158 42.584 430.158 44.984V47.504H423.39V45.2C423.39 42.992 422.934 41.264 422.022 40.016C421.11 38.768 419.862 38.144 418.278 38.144C416.646 38.144 415.398 38.744 414.534 39.944C413.718 41.144 413.31 42.656 413.31 44.48C413.31 45.776 413.646 46.976 414.318 48.08C414.99 49.184 415.806 50.168 416.766 51.032C417.726 51.896 419.118 53.024 420.942 54.416C423.246 56.144 425.118 57.68 426.558 59.024C427.998 60.368 429.222 62 430.23 63.92C431.238 65.792 431.742 67.952 431.742 70.4C431.742 73.184 431.142 75.584 429.942 77.6C428.742 79.616 427.086 81.152 424.974 82.208C422.91 83.216 420.582 83.72 417.99 83.72C413.91 83.72 410.718 82.4 408.414 79.76C406.158 77.12 405.03 73.424 405.03 68.672V65.936ZM453.112 46.136C455.8 46.136 457.864 47.216 459.304 49.376C460.792 51.488 461.536 54.512 461.536 58.448V83H454.768V61.328C454.768 58.16 454.456 55.976 453.832 54.776C453.256 53.528 452.2 52.904 450.664 52.904C448.84 52.904 447.328 53.936 446.128 56C444.976 58.016 444.28 60.8 444.04 64.352V83H437.272V31.52H444.04V52.904H443.752C444.568 50.792 445.768 49.136 447.352 47.936C448.936 46.736 450.856 46.136 453.112 46.136ZM486.434 83L485.786 77.528C484.682 79.448 483.386 80.96 481.898 82.064C480.458 83.168 478.898 83.72 477.218 83.72C474.242 83.72 471.914 82.856 470.234 81.128C468.554 79.352 467.714 76.928 467.714 73.856C467.714 71.168 468.722 68.84 470.738 66.872C472.754 64.904 475.562 63.128 479.162 61.544L485.354 58.808V58.088C485.354 56.264 484.922 54.824 484.058 53.768C483.242 52.664 481.922 52.112 480.098 52.112C478.562 52.112 477.314 52.664 476.354 53.768C475.394 54.872 474.914 56.312 474.914 58.088V59.528H468.434V58.088C468.434 55.736 468.986 53.672 470.09 51.896C471.194 50.072 472.634 48.704 474.41 47.792C476.186 46.832 478.082 46.352 480.098 46.352C483.602 46.352 486.41 47.408 488.522 49.52C490.634 51.584 491.69 54.44 491.69 58.088V73.136L492.626 83H486.434ZM477.434 77.384C478.826 77.384 480.194 76.736 481.538 75.44C482.93 74.144 484.202 72.32 485.354 69.968V64.64L480.602 66.944C478.682 67.856 477.194 68.912 476.138 70.112C475.082 71.264 474.554 72.512 474.554 73.856C474.554 74.96 474.794 75.824 475.274 76.448C475.802 77.072 476.522 77.384 477.434 77.384ZM520.836 46.568V52.832H515.796C513.636 52.832 511.86 53.24 510.468 54.056C509.124 54.872 508.092 56.312 507.372 58.376C506.652 60.392 506.292 63.224 506.292 66.872V83H499.524V47H506.076L506.292 53.984H506.004C506.868 51.584 508.116 49.736 509.748 48.44C511.428 47.096 513.444 46.448 515.796 46.496L520.836 46.568ZM537.166 67.376L535.078 69.68H535.15V83H528.382V31.52H535.15V60.752L536.878 58.16L546.454 47H554.662L541.486 62.336L556.174 83H548.182L537.166 67.376ZM600.138 32.6C605.37 32.6 609.234 34.664 611.73 38.792C614.274 42.872 615.546 49.16 615.546 57.656C615.546 66.248 614.274 72.632 611.73 76.808C609.234 80.936 605.37 83 600.138 83H589.698V32.6H600.138ZM598.986 77.384C602.442 77.384 604.914 75.848 606.402 72.776C607.938 69.704 608.706 64.664 608.706 57.656C608.706 51.032 607.914 46.184 606.33 43.112C604.794 40.04 602.346 38.504 598.986 38.504H596.466V77.384H598.986ZM637.348 67.52H627.556L624.244 83H617.548L628.636 32.6H636.268L647.356 83H640.66L637.348 67.52ZM635.98 61.4L633.316 48.872L632.308 41.528H632.596L631.588 48.944L628.924 61.4H635.98ZM663.109 83.648C658.453 83.648 654.949 81.464 652.597 77.096C650.293 72.728 649.141 66.248 649.141 57.656C649.141 40.424 653.797 31.808 663.109 31.808C672.421 31.808 677.077 40.424 677.077 57.656C677.077 66.248 675.901 72.728 673.549 77.096C671.245 81.464 667.765 83.648 663.109 83.648ZM663.109 77.24C665.509 77.24 667.285 75.656 668.437 72.488C669.637 69.32 670.237 64.376 670.237 57.656C670.237 51.032 669.637 46.136 668.437 42.968C667.285 39.8 665.509 38.216 663.109 38.216C660.709 38.216 658.933 39.8 657.781 42.968C656.677 46.088 656.125 50.984 656.125 57.656C656.125 64.424 656.677 69.392 657.781 72.56C658.933 75.68 660.709 77.24 663.109 77.24Z" fill="#343235"/>
<path fill-rule="evenodd" clip-rule="evenodd" d="M302.344 578L302.344 479.781H316.375V578H330.406H344.438L344.438 423.656H330.406L316.375 423.656H302.344L288.313 423.656L274.281 423.656L274.281 578H288.313H302.344ZM400.563 423.656L400.563 578H414.594H428.625H442.656H456.688H470.719V423.656H456.688H442.656H428.625H414.594H400.563Z" fill="#FE500C"/>
<path fill-rule="evenodd" clip-rule="evenodd" d="M344.438 437.688L344.438 423.656L358.469 423.656L372.5 423.656H386.531L400.562 423.656V437.688L386.531 437.688L386.531 578H372.5H358.469L358.469 437.688L344.438 437.688Z" fill="#AB36BE"/>
<path fill-rule="evenodd" clip-rule="evenodd" d="M344.438 437.688L344.438 578H358.469L358.469 437.688L344.438 437.688ZM386.531 437.688L386.531 578H400.563L400.563 437.688L386.531 437.688Z" fill="#E5E5DE"/>
<path fill-rule="evenodd" clip-rule="evenodd" d="M498.781 381.563L484.75 381.563L470.719 381.563H456.688H442.656H428.625H414.594H400.562L386.531 381.563L386.531 395.594L372.5 395.594V409.625H358.469L358.469 423.656H372.5H386.531H400.562H414.594H428.625H442.656H456.688H470.719H484.75L484.75 409.625H498.781V381.563Z" fill="#7CC4F2"/>
<path fill-rule="evenodd" clip-rule="evenodd" d="M330.406 423.656H316.375H302.344H288.313L288.313 409.625H274.281L274.281 269.312H288.313H302.344L302.344 255.281L316.375 255.281H330.406L330.406 241.25L344.438 241.25H358.469H372.5H386.531H400.563H414.594H428.625H442.656H456.688H470.719H484.75V255.281L498.781 255.281V269.312H512.813V283.344H526.844V297.375H540.875V325.437H526.844V353.5H512.813V381.562H498.781H484.75H470.719H456.688H442.656H428.625H414.594H400.563H386.531L386.531 395.594H372.5L372.5 409.625H358.469L358.469 423.656H344.438H330.406Z" fill="#2B83F6"/>
<path fill-rule="evenodd" clip-rule="evenodd" d="M190.094 227.219V241.25L204.125 241.25V283.344H218.156L218.156 311.406H232.188V353.5H218.156L218.156 395.594H204.125L204.125 409.625H218.156H232.188V381.563H246.219L246.219 367.531H260.25L260.25 353.5H274.281V297.375H260.25L260.25 283.344H246.219L246.219 269.313H232.188L232.188 255.281H218.156L218.156 241.25H204.125L204.125 227.219L190.094 227.219Z" fill="#395ED1"/>
<path fill-rule="evenodd" clip-rule="evenodd" d="M330.406 171.094L330.406 185.125L344.438 185.125L344.438 199.156H358.469V241.25H372.5H386.531H400.562H414.594H428.625H442.656V227.219H428.625V199.156H414.594V185.125H400.562L386.531 185.125L386.531 171.094H372.5H358.469H344.438L330.406 171.094Z" fill="#395ED1"/>
<path fill-rule="evenodd" clip-rule="evenodd" d="M316.375 381.563L316.375 395.594H302.344L302.344 409.625H316.375V395.594L330.406 395.594V409.625H344.438L344.438 395.594H358.469V381.563L344.438 381.563L344.438 395.594H330.406V381.563L316.375 381.563Z" fill="#395ED1"/>
<rect x="498.781" y="353.5" width="28.0625" height="14.0313" transform="rotate(-90 498.781 353.5)" fill="#395ED1"/>
<path fill-rule="evenodd" clip-rule="evenodd" d="M344.438 283.344L358.469 283.344L372.5 283.344V311.406H386.531L386.531 283.344L400.563 283.344H414.594H428.625H442.656L456.688 283.344L470.719 283.344V367.531H456.688H442.656H428.625H414.594H400.563H386.531L386.531 325.438H372.5L372.5 367.531H358.469H344.438H330.406H316.375H302.344H288.313L288.313 325.438H274.281H260.25L260.25 353.5H246.219L246.219 311.406H260.25H274.281H288.313L288.312 283.344L302.344 283.344H316.375H330.406H344.438ZM344.438 297.375L358.469 297.375V353.5H344.438H330.406H316.375H302.344V297.375H316.375H330.406H344.438ZM456.688 353.5H442.656H428.625H414.594H400.563V297.375H414.594H428.625H442.656L456.688 297.375V353.5Z" fill="black"/>
<rect x="344.438" y="325.438" width="28.0625" height="14.0313" transform="rotate(-90 344.438 325.438)" fill="white"/>
<rect x="442.656" y="325.438" width="28.0625" height="14.0313" transform="rotate(-90 442.656 325.438)" fill="white"/>
<path fill-rule="evenodd" clip-rule="evenodd" d="M302.344 297.375L302.344 353.5H316.375H330.406L330.406 297.375H316.375H302.344Z" fill="black"/>
<path fill-rule="evenodd" clip-rule="evenodd" d="M400.562 297.375L400.563 353.5H414.594H428.625L428.625 297.375H414.594H400.562Z" fill="black"/>
<path fill-rule="evenodd" clip-rule="evenodd" d="M330.406 297.375L330.406 353.5H344.438H358.469V325.438H344.438L344.438 297.375H330.406Z" fill="black"/>
<path fill-rule="evenodd" clip-rule="evenodd" d="M428.625 297.375L428.625 353.5H442.656H456.688L456.688 325.438H442.656L442.656 297.375H428.625Z" fill="black"/>
<path fill-rule="evenodd" clip-rule="evenodd" d="M414.594 381.563L414.594 395.594H400.562L400.563 409.625H414.594L414.594 395.594L428.625 395.594V409.625H442.656V395.594H456.688V409.625H470.719L470.719 395.594H484.75V381.563L470.719 381.563V395.594H456.688V381.563L442.656 381.563L442.656 395.594H428.625V381.563L414.594 381.563Z" fill="white"/>
<rect x="274.281" y="409.625" width="14.0312" height="14.0312" fill="#2B83F6"/>
<mask id="path-312-inside-1" fill="white">
<path fill-rule="evenodd" clip-rule="evenodd" d="M24 0C10.7452 0 0 10.7452 0 24V89C0 102.255 10.7452 113 24 113H343.302L372.698 142.397L402.095 113H721C734.255 113 745 102.255 745 89V24C745 10.7452 734.255 0 721 0H24Z"/>
</mask>
<path d="M343.302 113L345.423 110.879L344.544 110H343.302V113ZM372.698 142.397L370.577 144.518L372.698 146.64L374.82 144.518L372.698 142.397ZM402.095 113V110H400.853L399.974 110.879L402.095 113ZM3 24C3 12.402 12.402 3 24 3V-3C9.08831 -3 -3 9.08832 -3 24H3ZM3 89V24H-3V89H3ZM24 110C12.402 110 3 100.598 3 89H-3C-3 103.912 9.08831 116 24 116V110ZM343.302 110H24V116H343.302V110ZM374.82 140.276L345.423 110.879L341.18 115.121L370.577 144.518L374.82 140.276ZM399.974 110.879L370.577 140.276L374.82 144.518L404.217 115.121L399.974 110.879ZM721 110H402.095V116H721V110ZM742 89C742 100.598 732.598 110 721 110V116C735.912 116 748 103.912 748 89H742ZM742 24V89H748V24H742ZM721 3C732.598 3 742 12.402 742 24H748C748 9.08831 735.912 -3 721 -3V3ZM24 3H721V-3H24V3Z" fill="black" mask="url(#path-312-inside-1)"/>
</svg>
