<svg width="61" height="43" viewBox="0 0 61 43" fill="none" xmlns="http://www.w3.org/2000/svg">
<path fill-rule="evenodd" clip-rule="evenodd" d="M2.44 9.53204H0V11.8844H2.44V14.2368V16.5892V18.9416H4.88V21.294V23.6464H7.32V25.9987V28.3511V30.7035H4.88V33.0559V35.4083V37.7607H2.44V40.1131H4.88V37.7607H7.32V35.4083H9.76V33.0559H12.2V30.7035H14.64V28.3511H12.2V30.7035H9.76V28.3511V25.9987V23.6464H12.2H14.64V21.294H12.2V18.9416H9.76V16.5892H7.32V14.2368H4.88V11.8844H2.44V9.53204Z" fill="#395ED1"/>
<path fill-rule="evenodd" clip-rule="evenodd" d="M24.4 35.4083H21.96V37.7607H19.52V40.1131H21.96L21.96 37.7607H24.4L24.4 40.1131H26.84V37.7607H29.28V35.4083H26.84L26.84 37.7607H24.4V35.4083Z" fill="#395ED1"/>
<path fill-rule="evenodd" clip-rule="evenodd" d="M53.6798 35.4083H51.2398V37.7607H48.7998V35.4083H46.3598V37.7607H43.9198V35.4083H41.4798L41.4798 37.7607H39.0398V35.4083H36.5998H34.1598V37.7607H31.7198V40.1131H29.2798V42.4655H51.2398V40.1131H53.6798V37.7607V35.4083ZM39.0398 37.7607V40.1131H36.5998V37.7607H39.0398ZM41.4798 37.7607H43.9198V40.1131H41.4798V37.7607ZM46.3598 37.7607H48.7998V40.1131H46.3598V37.7607Z" fill="#7CC4F2"/>
<path fill-rule="evenodd" clip-rule="evenodd" d="M41.4801 35.4083H39.0401V37.7607H36.6001V40.1131H39.0401V37.7607H41.4801L41.4801 40.1131H43.9201V37.7607H46.3601V40.1131H48.8001V37.7607H51.2401V35.4083H48.8001V37.7607H46.3601V35.4083H43.9201V37.7607H41.4801V35.4083Z" fill="white"/>
<path fill-rule="evenodd" clip-rule="evenodd" d="M26.8401 11.8844H43.9201H46.3601H51.2401V14.2368H53.6801V16.5892H56.1201V18.9416H58.5601V21.294H61.0001V23.6464V25.9987H58.5601V28.3511V30.7035H56.1201V33.0559V35.4083H53.6801H34.1601V37.7607H31.7201V40.1131H29.2801V42.4655H17.0801V40.1131H14.6401V35.4083V33.0559V16.5892H17.0801H19.5201L19.5201 14.2368H21.9601H24.4001V11.8844H26.8401ZM17.0801 18.9416V33.0559H19.5201H31.7201V25.9987H34.1601V33.0559H48.8001L48.8001 18.9416H34.1601V23.6464H31.7201V18.9416H19.5201H17.0801ZM26.8401 37.7607L26.8401 40.1131H24.4001L24.4001 37.7607H26.8401ZM26.8401 37.7607V35.4083H29.2801V37.7607H26.8401ZM21.9601 37.7607V35.4083H24.4001V37.7607H21.9601ZM21.9601 37.7607H19.5201V40.1131H21.9601L21.9601 37.7607Z" fill="#2B83F6"/>
<path fill-rule="evenodd" clip-rule="evenodd" d="M17.0798 18.9416H31.7198V23.6464H34.1598L34.1598 18.9416H48.7998V33.0559H34.1598L34.1598 28.3511H31.7198V33.0559H17.0798V28.3511H14.6398H12.1998V30.7035H9.75977V28.3511V25.9987V23.6464H12.1998H14.6398H17.0798V18.9416Z" fill="#FF638D"/>
<rect x="19.52" y="21.294" width="4.88" height="9.40955" fill="white"/>
<rect x="24.3999" y="21.294" width="4.88" height="9.40955" fill="black"/>
<rect x="19.52" y="23.6464" width="2.44" height="2.35238" fill="white"/>
<rect x="19.52" y="25.9987" width="2.44" height="2.35239" fill="white"/>
<rect x="19.52" y="28.3511" width="2.44" height="2.35239" fill="white"/>
<rect x="21.96" y="28.3511" width="2.44" height="2.35239" fill="white"/>
<rect x="21.96" y="25.9987" width="2.44" height="2.35239" fill="white"/>
<rect x="21.96" y="23.6464" width="2.44" height="2.35238" fill="white"/>
<rect x="39.04" y="21.294" width="2.44" height="2.35239" fill="white"/>
<rect x="41.48" y="21.294" width="2.44" height="2.35239" fill="white"/>
<rect x="43.9199" y="21.294" width="2.44" height="2.35239" fill="white"/>
<rect x="43.9199" y="23.6464" width="2.44" height="2.35238" fill="white"/>
<rect x="43.9199" y="25.9987" width="2.44" height="2.35239" fill="white"/>
<path fill-rule="evenodd" clip-rule="evenodd" d="M56.1202 25.9987H53.6802V28.3511V30.7035H56.1202V28.3511V25.9987Z" fill="#395ED1"/>
<path fill-rule="evenodd" clip-rule="evenodd" d="M24.3999 0.122498H26.8399H29.2799H31.7199H34.1599V2.47488H36.5999H39.0399V4.82727H41.4799V7.17966V9.53204H43.9199V11.8844H41.4799H39.0399H36.5999H34.1599H31.7199H29.2799V9.53204V7.17966V4.82727H26.8399V2.47488H24.3999V0.122498Z" fill="#395ED1"/>
<rect x="36.6001" y="21.294" width="4.88001" height="9.40955" fill="white"/>
<rect x="41.48" y="21.294" width="4.88" height="9.40955" fill="black"/>
</svg>
