<svg width="61" height="43" viewBox="0 0 61 43" fill="none" xmlns="http://www.w3.org/2000/svg">
<rect x="26.8398" y="0.122498" width="2.44" height="2.35239" fill="#395ED1"/>
<rect x="24.3999" y="0.122498" width="2.44" height="2.35239" fill="#395ED1"/>
<rect x="12.2002" y="21.294" width="2.44" height="2.35239" fill="#395ED1"/>
<rect x="12.2002" y="25.9987" width="2.44" height="2.35239" fill="#395ED1"/>
<rect x="12.2002" y="28.3511" width="2.44" height="2.35239" fill="#395ED1"/>
<rect x="7.31982" y="28.3511" width="2.44" height="2.35239" fill="#395ED1"/>
<rect x="4.87988" y="30.7035" width="2.44" height="2.35239" fill="#395ED1"/>
<rect x="7.31982" y="30.7035" width="2.44" height="2.35239" fill="#395ED1"/>
<rect x="9.75977" y="30.7035" width="2.44" height="2.35239" fill="#395ED1"/>
<rect x="7.31982" y="33.0559" width="2.44" height="2.35239" fill="#395ED1"/>
<rect x="4.87988" y="33.0559" width="2.44" height="2.35239" fill="#395ED1"/>
<rect x="4.87988" y="35.4083" width="2.44" height="2.35239" fill="#395ED1"/>
<rect x="2.43994" y="37.7607" width="2.44" height="2.35239" fill="#395ED1"/>
<rect x="7.31982" y="25.9987" width="2.44" height="2.35239" fill="#395ED1"/>
<rect x="7.31982" y="23.6464" width="2.44" height="2.35238" fill="#395ED1"/>
<rect x="4.87988" y="21.294" width="2.44" height="2.35239" fill="#395ED1"/>
<rect x="7.31982" y="21.294" width="2.44" height="2.35239" fill="#395ED1"/>
<rect x="9.75977" y="21.294" width="2.44" height="2.35239" fill="#395ED1"/>
<rect x="9.75977" y="18.9416" width="2.44" height="2.35239" fill="#395ED1"/>
<rect x="7.31982" y="16.5892" width="2.44" height="2.35239" fill="#395ED1"/>
<rect x="4.87988" y="14.2368" width="2.44" height="2.35239" fill="#395ED1"/>
<rect x="7.31982" y="18.9416" width="2.44" height="2.35239" fill="#395ED1"/>
<rect x="4.87988" y="18.9416" width="2.44" height="2.35239" fill="#395ED1"/>
<rect x="2.43994" y="16.5892" width="2.44" height="2.35239" fill="#395ED1"/>
<rect x="4.87988" y="16.5892" width="2.44" height="2.35239" fill="#395ED1"/>
<rect x="2.43994" y="14.2368" width="2.44" height="2.35239" fill="#395ED1"/>
<rect x="2.43994" y="11.8844" width="2.44" height="2.35239" fill="#395ED1"/>
<rect y="9.53204" width="2.44" height="2.35239" fill="#395ED1"/>
<rect x="19.52" y="37.7607" width="2.44" height="2.35239" fill="#395ED1"/>
<rect x="21.96" y="35.4083" width="2.44" height="2.35239" fill="#395ED1"/>
<rect x="24.3999" y="37.7607" width="2.44" height="2.35239" fill="#395ED1"/>
<rect x="26.8398" y="35.4083" width="2.44" height="2.35239" fill="#395ED1"/>
<rect x="29.2798" y="2.47488" width="2.44" height="2.35239" fill="#395ED1"/>
<rect x="26.8398" y="2.47488" width="2.44" height="2.35239" fill="#395ED1"/>
<rect x="29.2798" y="4.82727" width="2.44" height="2.35239" fill="#395ED1"/>
<rect x="29.2798" y="7.17966" width="2.44" height="2.35239" fill="#395ED1"/>
<rect x="29.2798" y="9.53204" width="2.44" height="2.35239" fill="#395ED1"/>
<rect x="26.8398" y="11.8844" width="17.08" height="2.35239" fill="#2B83F6"/>
<rect x="24.3999" y="14.2368" width="24.4" height="2.35239" fill="#2B83F6"/>
<rect x="46.3599" y="11.8844" width="4.88" height="2.35239" fill="#2B83F6"/>
<rect x="48.7998" y="14.2368" width="4.88" height="18.8191" fill="#2B83F6"/>
<rect x="53.6802" y="16.5892" width="2.44" height="16.4667" fill="#2B83F6"/>
<rect x="56.1201" y="18.9416" width="2.43999" height="7.05716" fill="#2B83F6"/>
<rect x="58.5601" y="21.294" width="2.44" height="2.35239" fill="#2B83F6"/>
<rect x="58.5601" y="23.6464" width="2.44" height="2.35238" fill="#2B83F6"/>
<rect x="51.2402" y="18.9416" width="2.44" height="2.35239" fill="#2B83F6"/>
<rect x="51.2402" y="21.294" width="2.44" height="11.7619" fill="#2B83F6"/>
<rect x="56.1201" y="25.9987" width="2.43999" height="2.35239" fill="#2B83F6"/>
<rect x="56.1201" y="28.3511" width="2.43999" height="2.35239" fill="#2B83F6"/>
<rect x="53.6802" y="30.7035" width="2.44" height="2.35239" fill="#2B83F6"/>
<rect x="53.6802" y="33.0559" width="2.44" height="2.35239" fill="#2B83F6"/>
<rect x="21.96" y="14.2368" width="2.44" height="2.35239" fill="#2B83F6"/>
<rect x="19.52" y="16.5892" width="34.16" height="2.35239" fill="#2B83F6"/>
<rect x="19.52" y="33.0559" width="34.16" height="2.35239" fill="#2B83F6"/>
<rect x="24.3999" y="11.8844" width="2.44" height="2.35239" fill="#2B83F6"/>
<rect x="43.9199" y="11.8844" width="2.44" height="2.35239" fill="#2B83F6"/>
<rect x="19.52" y="14.2368" width="2.44" height="2.35239" fill="#2B83F6"/>
<rect x="31.7202" y="18.9416" width="2.44" height="4.70477" fill="#2B83F6"/>
<rect x="31.7202" y="25.9987" width="2.44" height="7.05716" fill="#2B83F6"/>
<rect x="19.52" y="35.4083" width="2.44" height="2.35239" fill="#2B83F6"/>
<rect x="24.3999" y="35.4083" width="2.44" height="2.35239" fill="#2B83F6"/>
<rect x="21.96" y="37.7607" width="2.44" height="2.35239" fill="#2B83F6"/>
<rect x="17.0801" y="16.5892" width="2.44" height="2.35239" fill="#2B83F6"/>
<rect x="14.6401" y="33.0559" width="4.88" height="7.05716" fill="#2B83F6"/>
<rect x="26.8398" y="37.7607" width="2.44" height="2.35239" fill="#2B83F6"/>
<rect x="29.2798" y="37.7607" width="2.44" height="2.35239" fill="#2B83F6"/>
<rect x="29.2798" y="35.4083" width="2.44" height="2.35239" fill="#2B83F6"/>
<rect x="31.7202" y="35.4083" width="2.44" height="2.35239" fill="#2B83F6"/>
<rect x="29.2798" y="40.1131" width="21.96" height="2.35239" fill="#7CC4F2"/>
<rect x="31.7202" y="37.7607" width="2.44" height="2.35239" fill="#7CC4F2"/>
<rect x="34.1602" y="37.7607" width="2.43999" height="2.35239" fill="#7CC4F2"/>
<rect x="39.04" y="37.7607" width="2.44" height="2.35239" fill="#7CC4F2"/>
<rect x="43.9199" y="37.7607" width="2.44" height="2.35239" fill="#7CC4F2"/>
<rect x="48.7998" y="37.7607" width="2.44" height="2.35239" fill="#7CC4F2"/>
<rect x="51.2402" y="37.7607" width="2.44" height="2.35239" fill="#7CC4F2"/>
<rect x="51.2402" y="35.4083" width="2.44" height="2.35239" fill="#7CC4F2"/>
<rect x="34.1602" y="35.4083" width="2.43999" height="2.35239" fill="#7CC4F2"/>
<rect x="36.6001" y="35.4083" width="2.44001" height="2.35239" fill="#7CC4F2"/>
<rect x="41.48" y="35.4083" width="2.44" height="2.35239" fill="#7CC4F2"/>
<rect x="46.3599" y="35.4083" width="2.44" height="2.35239" fill="#7CC4F2"/>
<rect x="39.04" y="35.4083" width="2.44" height="2.35239" fill="white"/>
<rect x="43.9199" y="35.4083" width="2.44" height="2.35239" fill="white"/>
<rect x="48.7998" y="35.4083" width="2.44" height="2.35239" fill="white"/>
<rect x="36.6001" y="37.7607" width="2.44001" height="2.35239" fill="white"/>
<rect x="41.48" y="37.7607" width="2.44" height="2.35239" fill="white"/>
<rect x="46.3599" y="37.7607" width="2.44" height="2.35239" fill="white"/>
<rect x="14.6401" y="35.4083" width="2.44" height="2.35239" fill="#2B83F6"/>
<rect x="14.6401" y="40.1131" width="14.64" height="2.35239" fill="#2B83F6"/>
<rect x="14.6401" y="16.5892" width="2.44" height="18.8191" fill="#2B83F6"/>
<rect x="17.0801" y="18.9416" width="2.44" height="2.35239" fill="black"/>
<rect x="34.1602" y="18.9416" width="2.43999" height="2.35239" fill="black"/>
<rect x="17.0801" y="21.294" width="2.44" height="2.35239" fill="black"/>
<rect x="34.1602" y="21.294" width="2.43999" height="2.35239" fill="black"/>
<rect x="19.52" y="18.9416" width="2.44" height="2.35239" fill="black"/>
<rect x="36.6001" y="18.9416" width="2.44001" height="2.35239" fill="black"/>
<rect x="19.52" y="21.294" width="2.44" height="2.35239" fill="black"/>
<rect x="36.6001" y="21.294" width="2.44001" height="2.35239" fill="black"/>
<rect x="26.8398" y="28.3511" width="2.44" height="2.35239" fill="black"/>
<rect x="43.9199" y="28.3511" width="2.44" height="2.35239" fill="black"/>
<rect x="17.0801" y="18.9416" width="14.64" height="14.1143" fill="#FF638D"/>
<rect x="34.1602" y="18.9416" width="14.64" height="14.1143" fill="#FF638D"/>
<rect x="21.96" y="21.294" width="2.44" height="2.35239" fill="white"/>
<rect x="19.52" y="21.294" width="4.88" height="9.40955" fill="white"/>
<rect x="24.3999" y="21.294" width="4.88" height="9.40955" fill="black"/>
<rect x="19.52" y="23.6464" width="2.44" height="2.35238" fill="white"/>
<rect x="19.52" y="25.9987" width="2.44" height="2.35239" fill="white"/>
<rect x="19.52" y="28.3511" width="2.44" height="2.35239" fill="white"/>
<rect x="21.96" y="28.3511" width="2.44" height="2.35239" fill="white"/>
<rect x="21.96" y="25.9987" width="2.44" height="2.35239" fill="white"/>
<rect x="21.96" y="23.6464" width="2.44" height="2.35238" fill="white"/>
<rect x="39.04" y="21.294" width="2.44" height="2.35239" fill="white"/>
<rect x="41.48" y="21.294" width="2.44" height="2.35239" fill="white"/>
<rect x="43.9199" y="21.294" width="2.44" height="2.35239" fill="white"/>
<rect x="43.9199" y="23.6464" width="2.44" height="2.35238" fill="white"/>
<rect x="31.7202" y="23.6464" width="2.44" height="2.35238" fill="#FF638D"/>
<rect x="31.7202" y="25.9987" width="2.44" height="2.35239" fill="#FF638D"/>
<rect x="14.6401" y="23.6464" width="2.44" height="2.35238" fill="#FF638D"/>
<rect x="14.6401" y="25.9987" width="2.44" height="2.35239" fill="#FF638D"/>
<rect x="12.2002" y="23.6464" width="2.44" height="2.35238" fill="#FF638D"/>
<rect x="12.2002" y="25.9987" width="2.44" height="2.35239" fill="#FF638D"/>
<rect x="9.75977" y="23.6464" width="2.44" height="2.35238" fill="#FF638D"/>
<rect x="9.75977" y="25.9987" width="2.44" height="2.35239" fill="#FF638D"/>
<rect x="9.75977" y="28.3511" width="2.44" height="2.35239" fill="#FF638D"/>
<rect x="43.9199" y="25.9987" width="2.44" height="2.35239" fill="white"/>
<rect x="31.7202" y="2.47488" width="2.44" height="2.35239" fill="#395ED1"/>
<rect x="31.7202" y="4.82727" width="2.44" height="2.35239" fill="#395ED1"/>
<rect x="31.7202" y="7.17966" width="2.44" height="2.35239" fill="#395ED1"/>
<rect x="31.7202" y="9.53204" width="2.44" height="2.35239" fill="#395ED1"/>
<rect x="34.1602" y="2.47488" width="2.43999" height="2.35239" fill="#395ED1"/>
<rect x="34.1602" y="4.82727" width="2.43999" height="2.35239" fill="#395ED1"/>
<rect x="34.1602" y="7.17966" width="2.43999" height="2.35239" fill="#395ED1"/>
<rect x="34.1602" y="9.53204" width="2.43999" height="2.35239" fill="#395ED1"/>
<rect x="36.6001" y="2.47488" width="2.44001" height="2.35239" fill="#395ED1"/>
<rect x="36.6001" y="4.82727" width="2.44001" height="2.35239" fill="#395ED1"/>
<rect x="36.6001" y="7.17966" width="2.44001" height="2.35239" fill="#395ED1"/>
<rect x="36.6001" y="9.53204" width="2.44001" height="2.35239" fill="#395ED1"/>
<rect x="39.04" y="4.82727" width="2.44" height="2.35239" fill="#395ED1"/>
<rect x="53.6802" y="25.9987" width="2.44" height="2.35239" fill="#395ED1"/>
<rect x="39.04" y="7.17966" width="2.44" height="2.35239" fill="#395ED1"/>
<rect x="53.6802" y="28.3511" width="2.44" height="2.35239" fill="#395ED1"/>
<rect x="39.04" y="9.53204" width="2.44" height="2.35239" fill="#395ED1"/>
<rect x="41.48" y="9.53204" width="2.44" height="2.35239" fill="#395ED1"/>
<rect x="29.2798" y="0.122498" width="2.44" height="2.35239" fill="#395ED1"/>
<rect x="31.7202" y="0.122498" width="2.44" height="2.35239" fill="#395ED1"/>
<rect x="36.6001" y="21.294" width="4.88001" height="9.40955" fill="white"/>
<rect x="41.48" y="21.294" width="4.88" height="9.40955" fill="black"/>
</svg>
